<svg width="45" height="41" viewBox="0 0 45 41" fill="none" xmlns="http://www.w3.org/2000/svg">
<g filter="url(#filter0_d_2125_1893)">
<path d="M32.1196 7.11246C32.8583 7.86244 33.3164 8.59781 33.65 9.56854L33.8018 10.0103L33.8866 9.87579C33.9475 9.77955 33.976 9.65553 33.9865 9.44598C34.0157 8.87387 33.783 8.13778 33.3798 7.52571C33.2426 7.31738 32.9514 6.96748 32.7187 6.73065C32.2446 6.24844 31.9602 6.06887 31.3406 5.86127C30.8925 5.71142 30.5999 5.66293 30.3825 5.70411L30.2305 5.73262L30.5733 5.91585C31.066 6.17778 31.6264 6.61198 32.1196 7.11246Z" fill="#FFF6E1"/>
<path d="M14.6028 25.765C14.97 25.8837 15.4748 25.9141 15.7619 25.8347C16.0026 25.7684 16.2872 25.6502 16.2631 25.6266C16.2538 25.6173 15.8964 25.4356 15.4692 25.2234C13.7746 24.3813 13.1281 23.8043 12.1684 22.2792C11.8528 21.778 11.4635 21.0288 11.4635 20.9225C11.4635 20.8999 11.4469 20.8813 11.4262 20.8813C11.3831 20.8813 11.2598 21.3887 11.2598 21.5648C11.2598 22.2683 12.1123 23.7378 13.1528 24.8272C13.5465 25.2392 14.1147 25.6066 14.6028 25.765Z" fill="#FFF6E1"/>
<path d="M16.9891 23.6518C17.7774 24.4184 18.7615 25.0952 19.6628 25.4905C19.9259 25.606 20.1599 25.7232 20.1825 25.7504C20.2303 25.8075 20.6886 25.7351 21.4856 25.5448C22.2237 25.3684 23.1208 25.0355 23.8627 24.6623L24.1008 24.5429L23.9648 24.4727C23.8023 24.3891 23.016 23.8209 22.5857 23.4761C22.1255 23.1067 20.0541 21.0142 19.5607 20.4192C18.7625 19.457 18.0595 18.3668 17.4148 17.0925C16.4745 15.2332 15.8088 12.9518 15.669 11.107L15.6397 10.7238L15.1917 11.1314C14.496 11.7647 13.7872 12.5675 13.2417 13.3394L12.9717 13.7215V14.3579C12.9724 15.8301 13.4556 17.9755 14.1534 19.6042C14.8366 21.1987 15.6263 22.3251 16.9891 23.6518ZM14.0443 16.2546C13.9899 16.1128 14.2265 15.8143 15.1536 14.8567C15.7677 14.2215 15.9056 14.1062 16.0023 14.1433C16.1283 14.1913 16.064 14.315 15.7708 14.5923C15.2967 15.0392 14.456 15.9305 14.3167 16.1327C14.1861 16.3235 14.0874 16.3674 14.0443 16.2546Z" fill="#FFFA63"/>
<path d="M31.6421 5.70095C31.7588 5.7414 31.9769 5.84496 32.1275 5.93024L32.4001 6.08619L32.5095 5.90076C32.6396 5.67781 33.3889 4.67808 33.6116 4.43004C33.7261 4.30138 33.7885 4.26093 33.8401 4.28165C33.8794 4.29675 33.9111 4.33915 33.9111 4.37643C33.9111 4.41298 33.7266 4.67223 33.5012 4.95268C33.0417 5.52358 32.5948 6.15879 32.6145 6.21191C32.6218 6.23116 32.7532 6.37882 32.9064 6.54061L33.1842 6.83446L33.4157 6.64611C34.0782 6.10763 34.8945 5.51773 34.96 5.53015C35.123 5.56207 35.0316 5.70656 34.6854 5.96314C34.1542 6.35762 33.3406 7.006 33.3406 7.03523C33.3406 7.04912 33.3672 7.08299 33.3996 7.10955C33.4454 7.14732 33.5992 7.37222 33.7293 7.59102C33.7385 7.60564 33.97 7.50744 34.5024 7.26476C35.0399 7.01939 35.8591 6.70435 35.9597 6.70435C36.0513 6.70435 36.0945 6.80912 36.0333 6.88344C36.0075 6.9139 35.8179 6.99942 35.6111 7.073C35.4042 7.14586 34.9478 7.33152 34.5965 7.48479C34.2451 7.6378 33.9281 7.76304 33.893 7.76304C33.836 7.76304 33.8377 7.78181 33.9062 7.91558C33.9486 7.99988 34.007 8.14632 34.0356 8.24183C34.0938 8.43676 34.1038 8.43944 34.4612 8.35319C34.7795 8.27619 34.8857 8.27765 34.9176 8.35977C34.952 8.44846 34.8474 8.52009 34.6337 8.55421C34.539 8.56858 34.3923 8.59928 34.3082 8.62169C34.1496 8.66409 34.143 8.68797 34.2195 8.93407C34.238 8.99425 34.25 8.99425 35.1915 8.94455C36.5209 8.87364 37.2523 8.75182 38.3888 8.40947C39.1176 8.18994 39.4445 8.04545 39.896 7.74233C40.3926 7.4095 40.6745 7.01696 40.6745 6.65878C40.6745 6.40026 40.2913 6.1471 39.7291 6.03355C39.3247 5.95193 39.0693 5.95339 38.3863 6.03892C37.9244 6.09666 37.8188 6.09934 37.765 6.05499C37.7292 6.02502 37.7007 5.97946 37.7007 5.95339C37.7007 5.92683 37.8381 5.72338 38.0057 5.50116C38.4387 4.92759 38.6721 4.46488 38.7608 4.00656C38.8286 3.65374 38.7046 3.48878 38.324 3.42592C37.9329 3.36086 36.9665 3.61207 36.2996 3.95295C35.9044 4.15397 35.8084 4.1737 35.7499 4.06576C35.7061 3.98292 35.72 3.93979 36.047 3.16203C36.431 2.24904 36.5172 1.77025 36.3593 1.42352C36.2146 1.10457 35.8813 0.942055 35.3786 0.944735C34.4488 0.950095 33.5139 1.58604 32.7361 2.74367C32.2854 3.41324 31.5963 4.90663 31.4533 5.52333C31.4313 5.61739 31.4477 5.63273 31.6421 5.70095ZM36.6074 6.65902C36.6159 6.59494 36.669 6.5389 36.7626 6.49529C36.9229 6.41878 37.008 6.43486 37.008 6.54036C37.008 6.63977 36.9205 6.70337 36.7436 6.73188C36.6032 6.75454 36.594 6.74991 36.6074 6.65902ZM34.5689 3.32455C34.7149 3.32041 34.6949 3.46124 34.5265 3.61743C34.354 3.77946 34.211 3.81382 34.1693 3.70563C34.1406 3.63083 34.459 3.32723 34.5689 3.32455Z" fill="#FFFA63"/>
<path d="M28.733 12.8759C29.6089 14.5662 30.6764 15.8513 31.8131 16.5839C32.1895 16.8259 32.25 16.8525 32.2931 16.7908C32.3101 16.7662 32.4237 16.5628 32.545 16.3386C32.8655 15.7465 33.1656 15.0628 33.3462 14.5146C33.4332 14.2507 33.5041 14.0211 33.5041 14.0041C33.5041 13.9875 33.3435 13.8986 33.1479 13.8057C32.4005 13.4524 31.4556 12.4936 30.6759 11.2973C30.2364 10.6221 29.5619 9.08851 29.308 8.18551C29.0946 7.42481 28.8955 6.33151 28.8485 5.65925C28.8397 5.5345 28.8324 5.52987 28.57 5.48674C28.4214 5.46237 28.0892 5.42973 27.8315 5.41511L27.3627 5.38855L27.3203 5.52646C27.244 5.77621 27.2294 6.18361 27.2706 6.9275C27.4077 9.42549 27.8254 11.1236 28.733 12.8759ZM28.2152 7.47914C28.4128 7.42627 28.493 7.44357 28.493 7.53884C28.493 7.69332 28.0315 7.80004 27.9772 7.65823C27.9448 7.57344 27.9884 7.5403 28.2152 7.47914Z" fill="#FFFA63"/>
<path d="M5.63325 26.1941C6.25458 26.3905 6.8228 26.4221 7.85859 26.3181C9.23307 26.1807 9.26353 26.1836 9.26353 26.4282C9.26353 26.5708 9.20578 26.6877 8.70457 27.5588C8.49308 27.9267 8.27549 28.3273 8.22189 28.4494C7.83276 29.3292 7.87248 30.0095 8.32666 30.2444C8.48723 30.3272 8.55083 30.3365 8.83591 30.3192C9.30617 30.2892 9.89217 30.0712 10.3636 29.749C10.4645 29.6801 10.7243 29.452 10.9414 29.2417C11.2457 28.9472 11.357 28.8631 11.4306 28.8731C11.5108 28.885 11.5266 28.9135 11.5378 29.07C11.5452 29.1708 11.5186 29.4732 11.4789 29.7425C11.4396 30.011 11.4058 30.4605 11.4053 30.7405C11.4021 31.6065 11.6048 32.0567 12.1175 32.3226C12.4372 32.489 12.6699 32.4863 12.9304 32.3138C13.4277 31.9851 13.9238 30.9332 14.289 29.4367C14.6903 27.791 14.8314 27.0676 14.8733 26.4548L14.8977 26.1007L14.7797 26.0754C14.7147 26.0615 14.5616 26.0152 14.4396 25.9726C14.3175 25.9302 14.2115 25.9009 14.2047 25.9075C14.1981 25.9141 14.1543 26.0647 14.108 26.2423C14.0244 26.5625 13.6491 27.5366 13.5717 27.6334C13.5171 27.7023 13.3814 27.6984 13.3543 27.6268C13.3424 27.5956 13.3597 27.5166 13.3933 27.4518C13.5178 27.2099 13.8295 26.4014 13.8906 26.1614C13.925 26.024 13.9615 25.8829 13.972 25.8471C13.9859 25.8008 13.9135 25.7365 13.7232 25.6251C13.576 25.5389 13.3831 25.4063 13.2949 25.3308L13.1338 25.1934L13.0217 25.3274C12.7856 25.609 12.5887 25.8327 12.0907 26.3831C11.7043 26.8093 11.5515 26.9514 11.4789 26.9514C11.2925 26.9514 11.3799 26.7988 11.8814 26.2518C12.156 25.9528 12.5147 25.5584 12.6777 25.3746L12.9754 25.0418L12.683 24.6931C12.5227 24.5014 12.3848 24.3442 12.3768 24.3442C12.3687 24.3442 12.2586 24.39 12.1319 24.4463C11.9253 24.5379 11.7488 24.5762 11.7488 24.5311C11.7488 24.5211 11.7374 24.4846 11.7242 24.4487C11.705 24.399 11.7627 24.3547 11.9677 24.2618L12.2362 24.1405L11.7016 23.4139L11.5578 23.4741C11.329 23.5696 9.91264 23.8951 9.72429 23.8956C9.63072 23.8956 9.54325 23.8791 9.53058 23.8586C9.47137 23.7623 9.57297 23.7046 9.92433 23.6337C10.3766 23.5423 11.5456 23.2572 11.571 23.2319C11.5807 23.2222 11.4979 23.0289 11.3873 22.8023C11.2764 22.5762 11.1797 22.3728 11.1716 22.3516C11.1412 22.2634 8.90462 22.6386 8.12272 22.8632C6.89468 23.2161 5.96365 23.7046 5.31309 24.3381C4.95052 24.6909 4.74097 25.0589 4.74219 25.342C4.74414 25.7087 5.06236 26.0138 5.63325 26.1941ZM13.2262 28.7554C13.2725 28.5678 13.3024 28.5174 13.3726 28.5066C13.425 28.4988 13.4708 28.52 13.4854 28.559C13.5127 28.6299 13.4311 28.9774 13.3675 29.0597C13.3136 29.1289 13.2184 29.1241 13.1903 29.0512C13.1777 29.0188 13.1935 28.8855 13.2262 28.7554ZM10.3537 24.9806C10.4823 24.8985 10.618 24.8096 10.656 24.7838C10.7084 24.7467 10.7382 24.7479 10.7874 24.7891C10.8843 24.8688 10.8047 24.977 10.5135 25.1617C10.2199 25.3481 10.1197 25.3646 10.1197 25.226C10.1195 25.1532 10.1765 25.0932 10.3537 24.9806ZM8.00089 24.2202C8.05669 24.2048 8.18875 24.1517 8.29401 24.102C8.4982 24.0053 8.57129 24.0158 8.57129 24.142C8.57129 24.2626 8.12223 24.4729 7.94728 24.4348C7.83739 24.4112 7.87638 24.254 8.00089 24.2202Z" fill="#FFFA63"/>
<path d="M20.2905 14.6683C20.9794 16.3666 22.6716 18.6833 24.7246 20.7402C25.6596 21.6771 26.3671 22.2546 26.8961 22.5119L27.0467 22.5847L27.2709 22.3964C27.3942 22.2931 27.7058 22.0251 27.9631 21.8016C28.4407 21.3867 30.1229 19.7183 30.1229 19.6591C30.1229 19.6421 29.9796 19.5524 29.8047 19.4615C28.9577 19.0212 27.651 17.7484 26.6756 16.4133C25.8525 15.2874 24.6591 13.1629 24.1559 11.9288C23.8185 11.1001 23.489 9.76121 23.3431 8.62454C23.2637 8.00321 23.2622 7.11604 23.3407 6.68306C23.3731 6.50324 23.3996 6.34487 23.4004 6.32976C23.4011 6.31441 23.2135 6.37533 22.9832 6.46426C21.6516 6.98277 19.4226 8.06022 19.3018 8.24394C19.1193 8.52318 19.2287 10.7039 19.4921 12.0243C19.6553 12.8462 19.9596 13.8527 20.2905 14.6683ZM20.5671 10.8384C20.7917 10.6944 20.8919 10.6659 20.9338 10.7336C20.9781 10.806 20.9046 10.8996 20.7069 11.0214C20.4823 11.1593 20.4623 11.164 20.3938 11.0957C20.3144 11.0161 20.3337 10.9875 20.5671 10.8384Z" fill="#FFFA63"/>
<path d="M30.9598 11.2668C31.4659 12.0241 32.223 12.8715 32.7441 13.2626C32.9476 13.4151 33.4649 13.7009 33.5524 13.709C33.5677 13.7102 33.5994 13.6147 33.6225 13.4975C33.74 12.9166 33.767 12.6096 33.7677 11.8776C33.7685 11.1973 33.7546 11.019 33.673 10.635C33.4793 9.72732 33.1233 8.82603 32.7249 8.23735C32.1287 7.35677 31.2222 6.53978 30.3297 6.07902C29.9525 5.88482 29.2342 5.60437 29.1136 5.60437C29.0081 5.60437 29.2969 7.25394 29.5585 8.15061C29.818 9.03534 30.5354 10.6323 30.9598 11.2668ZM29.8697 7.29025C30.0169 7.26028 30.0885 7.35189 30.0003 7.45788C29.9372 7.53366 29.7311 7.53757 29.7033 7.46398C29.6709 7.37846 29.7284 7.31803 29.8697 7.29025Z" fill="#D980FA"/>
<path d="M27.0086 16.4254C28.0463 17.8118 29.4825 19.1439 30.1026 19.2945C30.395 19.3661 30.4115 19.3569 30.7802 18.9154C31.3796 18.1978 32.1666 17.0879 32.093 17.0633C31.9758 17.0243 31.1601 16.4493 30.9028 16.2246C30.0602 15.4881 29.1628 14.2771 28.4974 12.9776C27.6421 11.3093 27.2062 9.66217 27.0683 7.57937C27.0166 6.79577 27.0152 5.74462 27.0664 5.56772L27.1053 5.42981L26.7518 5.45905C26.5576 5.47441 26.2055 5.52192 25.9687 5.56505C25.2406 5.69638 23.7787 6.124 23.6895 6.23072C23.6312 6.30089 23.5396 6.81696 23.5041 7.27431C23.4297 8.2219 23.8871 10.5652 24.3912 11.8171C24.9049 13.0936 26.13 15.2512 27.0086 16.4254ZM24.2324 8.92998C24.1892 8.81667 24.2304 8.78086 24.6008 8.61712C25.0272 8.42804 25.1234 8.41488 25.1047 8.54743C25.0949 8.61663 25.0145 8.67608 24.7818 8.78939C24.3822 8.98358 24.2648 9.01355 24.2324 8.92998Z" fill="#D980FA"/>
<path d="M20.0129 20.5552C20.4308 21.0326 22.1181 22.7282 22.5248 23.0795C23.0574 23.5398 24.2201 24.3739 24.3395 24.3812C24.3746 24.3831 24.6261 24.2486 24.8978 24.082C25.521 23.7006 25.7895 23.5198 26.3697 23.0905L26.8331 22.7477L26.6078 22.6336C25.2735 21.9614 22.3454 18.7597 20.862 16.3543C19.949 14.8721 19.2839 12.8778 19.085 11.0218C19.0088 10.3116 18.9517 9.04966 18.9803 8.70366L19.0088 8.36084L18.8112 8.4756C18.0368 8.92442 17.0778 9.57353 16.3585 10.1352C15.897 10.4958 15.9043 10.4841 15.9043 10.9029C15.9043 12.2711 16.6199 14.8543 17.5103 16.7049C18.2013 18.1401 19.076 19.4848 20.0129 20.5552ZM17.1404 13.1585C17.1272 13.1234 17.1319 13.0798 17.1518 13.061C17.2876 12.935 17.8441 12.4887 17.8645 12.4887C17.8792 12.4887 17.9142 12.5172 17.9428 12.5515C17.9866 12.6039 17.9732 12.6371 17.8565 12.7577C17.6523 12.9684 17.3129 13.2218 17.234 13.2218C17.1959 13.2221 17.1535 13.1938 17.1404 13.1585Z" fill="#D980FA"/>
<path d="M15.4429 24.9262C16.5496 25.4871 17.2882 25.7239 18.3693 25.8638C18.5847 25.8923 19.3902 25.893 19.5908 25.8657L19.7849 25.8392L19.3812 25.6481C18.5126 25.2383 17.5486 24.5595 16.8067 23.8358C15.4242 22.4884 14.5719 21.2625 13.8757 19.6178C13.2583 18.1598 12.8107 16.2207 12.7332 14.6679L12.7067 14.1382L12.4447 14.6031C11.8665 15.6296 11.3816 16.9066 11.1969 17.8927C11.1411 18.1917 11.138 18.3164 11.177 18.7156C11.2959 19.9282 11.6784 21.0125 12.3884 22.1443C13.28 23.5668 13.934 24.1623 15.4429 24.9262Z" fill="#D980FA"/>
<g opacity="0.2">
<path d="M11.415 30.438C11.415 30.438 12.7335 30.2971 13.3675 29.0598C14.0015 27.8223 10.8098 23.6837 11.0566 22.1036L11.4798 22.3909C11.4798 22.3909 12.225 24.1136 12.7669 24.5465C13.3088 24.9795 14.5962 24.7571 14.5962 24.7571L13.2759 23.7505C13.2759 23.7505 16.9707 23.4318 21.369 21.5281C25.7673 19.6244 31.0766 15.5638 32.4219 13.6043C33.7673 11.6448 33.7678 10.4828 33.7678 10.4828C33.7678 10.4828 34.7408 13.5185 32.0978 17.3776C29.4548 21.2367 25.2356 24.1694 23.2118 25.1128C21.188 26.056 18.1179 26.2448 16.4885 25.5243C16.4885 25.5243 16.1233 26.1618 15.0477 26.0046C15.0477 26.0046 14.6019 29.3491 13.9157 31.0812C13.2296 32.8134 12.0291 32.9335 11.4974 31.9216C10.9657 30.9094 11.415 30.438 11.415 30.438Z" fill="black"/>
<path d="M32.2158 7.40051C32.2158 7.40051 32.8669 8.064 33.7677 8.02964L32.9919 6.9149C32.9919 6.9149 34.3807 7.7068 37.1385 7.72434C39.8962 7.74213 40.6747 6.65857 40.6747 6.65857C40.6747 6.65857 40.9761 7.33132 39.4537 8.16756C37.9311 9.00379 34.1675 9.07591 34.1675 9.07591C34.1675 9.07591 34.1193 9.89924 33.7679 10.1736C33.7679 10.1736 32.7487 7.76015 32.2158 7.40051Z" fill="black"/>
</g>
<path d="M14.3168 16.1325C14.4562 15.9303 15.2968 15.0392 15.771 14.5921C16.0639 14.3148 16.1282 14.191 16.0025 14.143C15.9057 14.106 15.7678 14.2213 15.1538 14.8565C14.2267 15.8141 13.9901 16.1125 14.0444 16.2544C14.0876 16.3674 14.1862 16.3236 14.3168 16.1325Z" fill="#1B1464"/>
<path d="M36.7431 6.73189C36.9202 6.70338 37.0075 6.63978 37.0075 6.54037C37.0075 6.43486 36.9227 6.41903 36.7621 6.49529C36.6685 6.53891 36.6156 6.5947 36.6069 6.65903C36.5937 6.74991 36.603 6.75455 36.7431 6.73189Z" fill="#1B1464"/>
<path d="M30.0003 7.45794C30.0885 7.35195 30.0169 7.26034 29.8697 7.29031C29.7284 7.31808 29.6709 7.37851 29.703 7.46404C29.731 7.53762 29.9372 7.53372 30.0003 7.45794Z" fill="#1B1464"/>
<path d="M28.4931 7.5388C28.4931 7.44329 28.4129 7.42599 28.2153 7.47911C27.9885 7.54027 27.9449 7.57341 27.9773 7.6582C28.0316 7.80025 28.4931 7.69328 28.4931 7.5388Z" fill="#1B1464"/>
<path d="M5.84216 26.5238C6.42768 26.6578 7.60723 26.6385 8.80554 26.4753C8.93956 26.4565 8.97854 26.4646 8.97854 26.5096C8.97854 26.5413 8.81285 26.8513 8.60989 27.1973C8.21272 27.8763 7.92691 28.4399 7.81483 28.764C7.72053 29.0359 7.68934 29.7069 7.75976 29.9562C7.82677 30.1955 8.07993 30.4581 8.3114 30.5271C8.53874 30.5946 8.98366 30.5887 9.30334 30.5139C9.64105 30.4343 10.2748 30.1338 10.566 29.9165C10.69 29.8229 10.9088 29.6353 11.0513 29.5001C11.2124 29.3471 11.3028 29.2839 11.2875 29.3341C11.2173 29.5744 11.1303 30.6319 11.153 30.9847C11.2066 31.8321 11.4453 32.2731 12.0023 32.5517C12.6268 32.8645 13.1125 32.6815 13.5976 31.951C13.9404 31.4345 14.2055 30.7827 14.455 29.8436C14.5983 29.302 14.9087 27.936 14.9816 27.5216C15.1156 26.7609 15.1797 26.2967 15.1611 26.2238C15.1426 26.1549 15.1731 26.1456 15.4713 26.1264C15.8427 26.1025 16.212 25.9872 16.4157 25.832L16.5517 25.7285L16.895 25.8279C17.8087 26.0925 18.8691 26.1892 19.8211 26.0945C22.1054 25.8676 24.0006 25.0964 26.3073 23.4546C28.2422 22.0768 30.4834 19.8553 31.8016 18.0089C32.9507 16.4002 33.6644 14.7935 33.938 13.2015C34.0362 12.632 34.0374 11.0982 33.9399 10.6401L33.8724 10.3185L33.9797 10.1918C34.1548 9.98347 34.235 9.76296 34.2362 9.48422L34.237 9.2296L34.39 9.22838C35.2223 9.22302 36.6904 9.08852 37.3334 8.9584C37.7452 8.87483 38.8199 8.56124 39.2093 8.41139C39.6111 8.25618 40.3214 7.78883 40.5638 7.51886C40.8893 7.15605 41.0121 6.63365 40.8377 6.34857C40.5804 5.92631 39.8258 5.68825 38.9094 5.73991C38.6589 5.7538 38.3743 5.77694 38.2783 5.79229L38.1024 5.81885L38.3334 5.49722C39.0375 4.5165 39.2244 3.59742 38.7783 3.30503C38.7193 3.2658 38.5622 3.21414 38.4294 3.18953C37.9757 3.10523 37.1034 3.29114 36.3685 3.62787L36.0768 3.76189L36.222 3.43026C36.7937 2.12328 36.83 1.39523 36.3441 0.979301C36.1068 0.775845 35.8383 0.69812 35.378 0.69812C34.9458 0.698851 34.6539 0.769025 34.2594 0.968095C33.5579 1.3214 33.0136 1.84137 32.4663 2.68297C32.076 3.28237 31.3803 4.81742 31.2568 5.3503C31.2178 5.52062 31.1939 5.55985 31.1435 5.53865C30.9982 5.47749 30.2656 5.47237 30.0972 5.53134C29.9381 5.58714 29.9096 5.58324 29.527 5.45848C28.8721 5.24504 28.4138 5.18071 27.5558 5.1812C26.6865 5.18242 26.0698 5.25771 25.2338 5.46287C22.9853 6.01598 19.7792 7.47549 17.5546 8.95743C14.186 11.2013 12.0589 13.8935 11.1108 17.112C10.9556 17.6378 10.9544 17.6478 10.9544 18.3546C10.9544 19.1143 11.0072 19.503 11.2031 20.1786L11.3033 20.5227L11.19 20.7932C11.0864 21.0412 11.0772 21.1075 11.0772 21.5836C11.0772 21.8687 11.0679 22.1028 11.0565 22.1028C11.0453 22.1028 10.7429 22.1406 10.3842 22.1864C8.22125 22.4649 6.90695 22.8728 5.81975 23.6035C5.16406 24.0436 4.70696 24.5331 4.55857 24.9549C4.47719 25.1861 4.48108 25.5389 4.56734 25.7212C4.7362 26.0781 5.21693 26.3805 5.84216 26.5238ZM31.4532 5.52306C31.5962 4.90635 32.2853 3.41296 32.736 2.74339C33.5138 1.58577 34.4487 0.949816 35.3785 0.944456C35.8812 0.942019 36.2145 1.1043 36.3592 1.42324C36.5171 1.76997 36.4309 2.24876 36.0469 3.16175C35.7199 3.93951 35.706 3.98264 35.7498 4.06549C35.8083 4.17367 35.9043 4.15369 36.2995 3.95267C36.9667 3.61179 37.9328 3.36058 38.3239 3.42564C38.7044 3.4885 38.8285 3.6537 38.7607 4.00628C38.672 4.4646 38.4386 4.92731 38.0056 5.50088C37.838 5.7231 37.7006 5.92655 37.7006 5.95311C37.7006 5.97918 37.7291 6.02475 37.7649 6.05472C37.8187 6.09931 37.9243 6.09638 38.3862 6.03864C39.0692 5.95311 39.3246 5.95165 39.729 6.03328C40.2912 6.14658 40.6744 6.39998 40.6744 6.65851C40.6744 7.01669 40.3928 7.40922 39.8959 7.74206C39.4444 8.04517 39.1175 8.18966 38.3887 8.4092C37.2522 8.75154 36.5208 8.87336 35.1914 8.94427C34.2499 8.99397 34.2379 8.99397 34.2194 8.93379C34.1429 8.68794 34.1497 8.66382 34.3081 8.62142C34.3924 8.59876 34.5389 8.5683 34.6336 8.55393C34.8471 8.52006 34.9519 8.44842 34.9175 8.35949C34.8856 8.27737 34.7796 8.27591 34.4611 8.35291C34.1037 8.43916 34.0937 8.43648 34.0355 8.24155C34.0069 8.14604 33.9485 7.9996 33.9061 7.9153C33.8376 7.78128 33.8359 7.76277 33.8929 7.76277C33.928 7.76277 34.245 7.63752 34.5964 7.48451C34.9477 7.33125 35.4041 7.14558 35.611 7.07272C35.8178 6.99914 36.0074 6.91337 36.0332 6.88316C36.0941 6.80884 36.051 6.70407 35.9596 6.70407C35.859 6.70407 35.0401 7.01912 34.5023 7.26449C33.9697 7.50717 33.7384 7.60536 33.7292 7.59074C33.5991 7.37194 33.4453 7.14704 33.3995 7.10927C33.3671 7.08271 33.3405 7.04884 33.3405 7.03496C33.3405 7.00572 34.1541 6.35734 34.6853 5.96286C35.0315 5.70629 35.1229 5.56179 34.9599 5.52987C34.8941 5.5172 34.0781 6.10735 33.4156 6.64584L33.1841 6.83418L32.9063 6.54033C32.7533 6.37854 32.6217 6.23064 32.6144 6.21163C32.5947 6.15852 33.0416 5.5233 33.5011 4.9524C33.7265 4.67171 33.9109 4.4127 33.9109 4.37615C33.9109 4.33887 33.8793 4.29647 33.84 4.28137C33.7881 4.2609 33.726 4.30135 33.6115 4.42976C33.3885 4.6778 32.6393 5.67753 32.5094 5.90048L32.4 6.08591L32.1274 5.92996C31.977 5.84468 31.7587 5.74113 31.642 5.70068C31.4476 5.6327 31.4312 5.61735 31.4532 5.52306ZM30.3828 5.70409C30.6001 5.66291 30.8927 5.7114 31.3408 5.86125C31.9602 6.06885 32.2448 6.24843 32.719 6.73063C32.9517 6.96746 33.2428 7.31736 33.38 7.52569C33.7833 8.13751 34.016 8.87361 33.9867 9.44597C33.9762 9.65576 33.9477 9.77953 33.8868 9.87577L33.802 10.0103L33.6502 9.56852C33.3167 8.59779 32.8586 7.86242 32.1198 7.11244C31.6264 6.61172 31.0662 6.17752 30.5743 5.91583L30.2314 5.7326L30.3828 5.70409ZM29.1135 5.6042C29.2342 5.6042 29.9525 5.88465 30.3296 6.07884C31.2222 6.5396 32.1286 7.35683 32.7248 8.23717C33.1232 8.8261 33.4794 9.72715 33.6729 10.6348C33.7545 11.0188 33.7684 11.1971 33.7677 11.8774C33.7669 12.6094 33.7399 12.9164 33.6225 13.4973C33.5993 13.6145 33.5674 13.71 33.5523 13.7088C33.4648 13.7007 32.9475 13.4149 32.7441 13.2624C32.2229 12.8711 31.4656 12.0236 30.9597 11.2666C30.5353 10.6321 29.818 9.03515 29.5587 8.15018C29.2968 7.25376 29.0083 5.6042 29.1135 5.6042ZM27.32 5.52647L27.3624 5.38856L27.8312 5.41512C28.089 5.42974 28.4213 5.46238 28.5697 5.48675C28.8324 5.52987 28.8397 5.5345 28.8482 5.65926C28.8952 6.33151 29.094 7.42506 29.3077 8.18552C29.5616 9.08852 30.2361 10.6223 30.6756 11.2973C31.4554 12.4934 32.4003 13.4522 33.1476 13.8057C33.3432 13.8986 33.5038 13.9875 33.5038 14.0041C33.5038 14.0214 33.4329 14.2507 33.3459 14.5146C33.1653 15.0628 32.8652 15.7465 32.5447 16.3386C32.4234 16.5628 32.3099 16.7662 32.2928 16.7908C32.2497 16.8525 32.1893 16.8259 31.8128 16.584C30.6761 15.8513 29.6087 14.5662 28.7327 12.876C27.8251 11.1236 27.4072 9.42526 27.27 6.92751C27.2293 6.18362 27.2437 5.77646 27.32 5.52647ZM23.504 7.27423C23.5396 6.81664 23.6312 6.30081 23.6895 6.23064C23.7784 6.12392 25.2403 5.6963 25.9686 5.56496C26.2055 5.52184 26.5576 5.47408 26.7518 5.45897L27.1053 5.42974L27.0663 5.56764C27.0152 5.74478 27.0166 6.79568 27.0683 7.57929C27.2062 9.66209 27.6418 11.3092 28.4973 12.9776C29.163 14.2772 30.0602 15.488 30.9027 16.2246C31.16 16.4494 31.9758 17.0242 32.093 17.0632C32.1666 17.0878 31.3796 18.1977 30.7802 18.9153C30.4115 19.3568 30.3949 19.366 30.1026 19.2944C29.4824 19.1438 28.0463 17.8117 27.0086 16.4253C26.1299 15.2509 24.9046 13.0933 24.3914 11.8168C23.8873 10.5653 23.4297 8.22182 23.504 7.27423ZM19.3014 8.24448C19.422 8.06076 21.6512 6.9833 22.9828 6.46479C23.2131 6.37586 23.4007 6.31494 23.4 6.33029C23.3993 6.34565 23.3729 6.50403 23.3403 6.6836C23.2621 7.11659 23.2635 8.00374 23.3427 8.62507C23.4887 9.76174 23.8181 11.1007 24.1556 11.9293C24.659 13.1635 25.8524 15.2879 26.6752 16.4139C27.6506 17.7489 28.9576 19.022 29.8043 19.4621C29.9793 19.5529 30.1225 19.6424 30.1225 19.6597C30.1225 19.7186 28.4403 21.387 27.9627 21.8022C27.7054 22.0256 27.3938 22.2936 27.2705 22.3969L27.0463 22.5853L26.8958 22.5124C26.3665 22.2551 25.6592 21.6776 24.7243 20.7408C22.6712 18.6838 20.979 16.3671 20.2902 14.6688C19.9593 13.853 19.6549 12.8467 19.4912 12.0251C19.2285 10.7045 19.1189 8.52372 19.3014 8.24448ZM16.3587 10.1355C17.078 9.57388 18.0371 8.92478 18.8114 8.47596L19.009 8.36119L18.9805 8.70402C18.952 9.05026 19.009 10.3119 19.0853 11.0222C19.2841 12.8781 19.9493 14.8725 20.8623 16.3547C22.3454 18.7601 25.2737 21.9618 26.608 22.634L26.8334 22.748L26.3699 23.0909C25.7898 23.52 25.5213 23.701 24.898 24.0823C24.6263 24.2487 24.3749 24.3835 24.3398 24.3815C24.2204 24.3742 23.0576 23.5402 22.525 23.0799C22.1186 22.7285 20.431 21.0329 20.0131 20.5556C19.0763 19.4854 18.2015 18.1407 17.5107 16.7058C16.6202 14.8552 15.9048 12.2717 15.9048 10.9038C15.9043 10.4844 15.897 10.4964 16.3587 10.1355ZM12.9716 13.7214L13.2416 13.3394C13.7872 12.5675 14.496 11.7646 15.1916 11.1314L15.6397 10.7237L15.6689 11.107C15.8088 12.9517 16.4745 15.2334 17.4147 17.0925C18.0592 18.367 18.7622 19.4572 19.5607 20.4191C20.0538 21.0139 22.1254 23.1067 22.5857 23.4761C23.0162 23.8209 23.8025 24.3891 23.9648 24.4727L24.1007 24.5428L23.8627 24.6622C23.1208 25.0355 22.2236 25.3683 21.4856 25.5448C20.6885 25.7351 20.2302 25.8074 20.1825 25.7504C20.1598 25.7234 19.9259 25.6059 19.6627 25.4904C18.7614 25.0952 17.7776 24.4183 16.9891 23.6518C15.6263 22.3248 14.8366 21.1984 14.1531 19.6043C13.4555 17.9757 12.9721 15.8301 12.9714 14.3581V13.7214H12.9716ZM11.1766 18.716C11.1376 18.3169 11.1408 18.1921 11.1966 17.8931C11.3815 16.9073 11.8661 15.63 12.4443 14.6035L12.7063 14.1386L12.7328 14.6683C12.8103 16.2211 13.2579 18.1599 13.8754 19.6182C14.5715 21.2627 15.4236 22.4888 16.8063 23.8362C17.5483 24.5596 18.5124 25.2387 19.3808 25.6486L19.7846 25.8396L19.5904 25.8661C19.3901 25.8934 18.5846 25.8927 18.3689 25.8642C17.288 25.7243 16.5493 25.4875 15.4426 24.9266C13.9336 24.1627 13.2796 23.5672 12.3878 22.145C11.678 21.0127 11.2955 19.9287 11.1766 18.716ZM11.4266 20.8816C11.4471 20.8816 11.4639 20.9001 11.4639 20.9228C11.4639 21.0288 11.8532 21.778 12.1688 22.2795C13.1283 23.8045 13.7747 24.3815 15.4696 25.2236C15.8968 25.4358 16.2542 25.6174 16.2635 25.6269C16.2873 25.6507 16.003 25.7687 15.7623 25.835C15.4752 25.9146 14.9706 25.8839 14.6032 25.7653C14.1151 25.6069 13.5469 25.2395 13.1536 24.8277C12.1132 23.7383 11.2607 22.2688 11.2607 21.5653C11.2602 21.3889 11.3835 20.8816 11.4266 20.8816ZM5.31367 24.3382C5.96424 23.7049 6.89526 23.2161 8.1233 22.8633C8.9052 22.6386 11.1415 22.2632 11.1722 22.3516C11.1802 22.3728 11.277 22.5763 11.3878 22.8024C11.4985 23.0292 11.5813 23.2222 11.5716 23.2319C11.5462 23.2573 10.3771 23.5424 9.92491 23.6337C9.57356 23.7046 9.47195 23.7624 9.53116 23.8586C9.54359 23.8791 9.6313 23.8957 9.72487 23.8957C9.91322 23.8949 11.3296 23.5697 11.5584 23.4741L11.7022 23.414L12.2367 24.1405L11.9682 24.2619C11.7633 24.3547 11.7056 24.3991 11.7248 24.4488C11.738 24.4846 11.7494 24.5211 11.7494 24.5311C11.7494 24.5762 11.9258 24.5377 12.1325 24.4463C12.2592 24.3901 12.3693 24.3442 12.3773 24.3442C12.3854 24.3442 12.523 24.5014 12.6836 24.6932L12.976 25.0418L12.6783 25.3747C12.515 25.5584 12.1563 25.9531 11.882 26.2519C11.3808 26.7989 11.2931 26.9514 11.4795 26.9514C11.5523 26.9514 11.7048 26.8096 12.0913 26.3832C12.5893 25.8328 12.7862 25.6093 13.0223 25.3274L13.1344 25.1934L13.2954 25.3308C13.3834 25.4064 13.5766 25.5389 13.7238 25.6252C13.9141 25.7365 13.9865 25.8008 13.9726 25.8471C13.9621 25.883 13.9255 26.0243 13.8912 26.1615C13.83 26.4015 13.5184 27.2099 13.3939 27.4519C13.36 27.5167 13.3427 27.5956 13.3549 27.6268C13.3819 27.6985 13.5179 27.7024 13.5722 27.6334C13.6497 27.5367 14.0252 26.5625 14.1085 26.2424C14.1548 26.0647 14.1987 25.9141 14.2053 25.9076C14.2118 25.901 14.3181 25.9302 14.4402 25.9726C14.5622 26.015 14.7152 26.0613 14.7803 26.0754L14.8982 26.1008L14.8739 26.4548C14.8322 27.0674 14.6909 27.7908 14.2896 29.4367C13.9243 30.9333 13.4282 31.9849 12.9309 32.3138C12.6705 32.4864 12.4378 32.489 12.1181 32.3226C11.6057 32.0568 11.4027 31.6065 11.4059 30.7405C11.4066 30.4606 11.4402 30.011 11.4795 29.7425C11.5192 29.4733 11.5457 29.1709 11.5384 29.07C11.5272 28.9136 11.5114 28.8851 11.4312 28.8731C11.3576 28.8631 11.2463 28.9472 10.9419 29.2418C10.7251 29.4518 10.4651 29.6801 10.3642 29.7491C9.89275 30.0712 9.30675 30.2895 8.83649 30.3193C8.55141 30.3366 8.48781 30.3273 8.32724 30.2444C7.87306 30.0096 7.83334 29.3293 8.22247 28.4494C8.27632 28.3273 8.49366 27.9268 8.70516 27.5588C9.20636 26.6875 9.26411 26.5708 9.26411 26.4283C9.26411 26.1836 9.23365 26.1809 7.85917 26.3181C6.82338 26.4222 6.25517 26.3905 5.63384 26.1941C5.06294 26.0138 4.74472 25.7087 4.74326 25.342C4.74131 25.0589 4.9511 24.691 5.31367 24.3382Z" fill="#1B1464"/>
<path d="M10.5136 25.1617C10.8048 24.9768 10.8845 24.8686 10.7875 24.7891C10.7385 24.748 10.7088 24.7467 10.6562 24.7838C10.6184 24.8096 10.4824 24.8985 10.3538 24.9807C10.1766 25.0935 10.1196 25.1532 10.1196 25.226C10.1196 25.3647 10.22 25.3481 10.5136 25.1617Z" fill="#1B1464"/>
<path d="M7.94728 24.4349C8.12223 24.4727 8.57129 24.2626 8.57129 24.142C8.57129 24.0158 8.49819 24.0053 8.29401 24.1021C8.1885 24.1518 8.05668 24.2049 8.00089 24.2202C7.87638 24.2541 7.83739 24.4113 7.94728 24.4349Z" fill="#1B1464"/>
<path d="M13.3675 29.0601C13.4311 28.978 13.5128 28.6305 13.4855 28.5594C13.4708 28.5204 13.4253 28.4992 13.3727 28.507C13.3025 28.5177 13.2725 28.5681 13.2262 28.7557C13.1936 28.8859 13.1777 29.0191 13.1904 29.0515C13.2182 29.1242 13.3137 29.129 13.3675 29.0601Z" fill="#1B1464"/>
<path d="M25.1044 8.54737C25.1231 8.41482 25.0269 8.42798 24.6005 8.61706C24.2299 8.7808 24.189 8.81662 24.2321 8.92992C24.2645 9.01349 24.3817 8.98377 24.7818 8.78933C25.0142 8.67603 25.0946 8.61657 25.1044 8.54737Z" fill="#1B1464"/>
<path d="M34.5262 3.61743C34.6946 3.461 34.7146 3.32041 34.5686 3.32455C34.4587 3.32723 34.1403 3.63083 34.1688 3.70588C34.2107 3.81382 34.3537 3.77946 34.5262 3.61743Z" fill="#1B1464"/>
<path d="M17.9426 12.5519C17.9141 12.5175 17.879 12.489 17.8644 12.489C17.8439 12.489 17.2874 12.9354 17.1517 13.0614C17.1317 13.0801 17.1271 13.1237 17.1402 13.1588C17.1534 13.1942 17.196 13.2227 17.2338 13.2227C17.3128 13.2227 17.6522 12.9693 17.8564 12.7585C17.9731 12.6374 17.9865 12.6043 17.9426 12.5519Z" fill="#1B1464"/>
<path d="M20.7069 11.0214C20.9045 10.8993 20.9781 10.8058 20.9338 10.7336C20.8921 10.6662 20.792 10.6947 20.5671 10.8384C20.3336 10.9875 20.3144 11.0161 20.3938 11.0957C20.4623 11.164 20.4823 11.1593 20.7069 11.0214Z" fill="#1B1464"/>
<g opacity="0.5">
<path d="M22.6818 20.179C22.6643 20.1518 22.6406 20.134 22.6097 20.1235C22.5412 20.1003 22.4725 20.0774 22.404 20.0543C22.3753 20.0445 22.3366 20.0516 22.311 20.0665C22.2859 20.0811 22.262 20.1099 22.2554 20.1388C22.2484 20.1698 22.2498 20.2046 22.2676 20.2319C22.2851 20.2592 22.3088 20.277 22.3397 20.2875C22.4082 20.3106 22.4769 20.3335 22.5454 20.3567C22.5741 20.3664 22.6129 20.3596 22.6384 20.3445C22.6635 20.3299 22.6874 20.3011 22.694 20.2721C22.7011 20.2412 22.6996 20.2066 22.6818 20.179Z" fill="white"/>
<path d="M19.5183 21.3449C19.5037 21.3198 19.475 21.2959 19.446 21.2894C19.415 21.2823 19.3802 21.2837 19.3529 21.3015C19.3259 21.3188 19.3069 21.3427 19.2974 21.3739L19.2333 21.581C19.2243 21.6105 19.2301 21.648 19.2455 21.6741C19.2601 21.6992 19.2888 21.7231 19.3178 21.7296C19.3488 21.7367 19.3836 21.7352 19.4109 21.7175C19.4379 21.7002 19.4567 21.6763 19.4665 21.6453L19.5305 21.4382C19.5398 21.4087 19.5337 21.3712 19.5183 21.3449Z" fill="white"/>
<path d="M6.48837 25.1219C6.44646 25.061 6.39261 25.0084 6.32633 24.974C6.26006 24.9394 6.18672 24.9197 6.11167 24.9202C6.08048 24.9204 6.04832 24.9336 6.02615 24.9555C6.00519 24.9765 5.98935 25.0108 5.99082 25.041C5.99228 25.0722 6.00251 25.1046 6.02615 25.1266C6.04978 25.1482 6.07902 25.1621 6.11167 25.1619C6.11971 25.1619 6.128 25.1629 6.13604 25.1633C6.15577 25.1668 6.17478 25.1724 6.19354 25.1792C6.21035 25.1872 6.22643 25.1967 6.24154 25.2074C6.25738 25.2211 6.27297 25.2352 6.28613 25.2518C6.28564 25.2511 6.28491 25.2503 6.28442 25.2496C6.30172 25.273 6.32268 25.2918 6.35167 25.2998C6.38067 25.3078 6.41917 25.3042 6.44475 25.2876C6.47058 25.271 6.49324 25.2462 6.50031 25.2152C6.50737 25.1845 6.50664 25.1485 6.48837 25.1219Z" fill="white"/>
<path d="M9.55091 24.8477C9.5363 24.8226 9.50754 24.7987 9.47879 24.7922C9.44785 24.7851 9.413 24.7866 9.38571 24.8043C9.35964 24.8212 9.33796 24.8455 9.33016 24.8765C9.30701 24.9678 9.28386 25.0592 9.26072 25.1508C9.25292 25.1815 9.25682 25.2164 9.2729 25.2439C9.28752 25.269 9.31627 25.2929 9.34527 25.2995C9.37621 25.3065 9.41105 25.3051 9.43834 25.2873C9.46466 25.2705 9.4861 25.2461 9.4939 25.2152C9.51705 25.1238 9.54019 25.0324 9.5631 24.9408C9.57089 24.9101 9.567 24.8752 9.55091 24.8477Z" fill="white"/>
<path d="M9.99989 28.4111C9.99014 28.3809 9.97187 28.3555 9.94434 28.3387C9.88732 28.3044 9.83006 28.27 9.7728 28.2356C9.746 28.2196 9.70945 28.2152 9.67972 28.2235C9.6517 28.2313 9.62124 28.2529 9.6076 28.279C9.59274 28.307 9.58543 28.3411 9.59542 28.3721C9.60516 28.4023 9.62344 28.4276 9.65097 28.4445C9.70823 28.4788 9.76525 28.5132 9.82251 28.5475C9.84931 28.5636 9.88586 28.568 9.91558 28.5597C9.9436 28.5519 9.97406 28.5302 9.98771 28.5041C10.0023 28.4761 10.0099 28.4423 9.99989 28.4111Z" fill="white"/>
<path d="M11.5734 25.4776C11.5685 25.4627 11.5602 25.4495 11.5483 25.4386C11.5373 25.4269 11.5244 25.4186 11.5093 25.4135C11.4949 25.4059 11.4793 25.4025 11.4627 25.403C11.452 25.4045 11.4413 25.4059 11.4306 25.4074C11.4101 25.413 11.3923 25.4235 11.3772 25.4386C11.3709 25.4469 11.3645 25.4549 11.3585 25.4629C11.3475 25.4817 11.3421 25.5022 11.3419 25.5239V25.6267C11.3412 25.6432 11.3448 25.6588 11.3524 25.6732C11.3572 25.6883 11.3655 25.7012 11.3775 25.7122C11.3884 25.7239 11.4013 25.7324 11.4164 25.7373C11.4308 25.7449 11.4464 25.7483 11.463 25.7478C11.4737 25.7463 11.4844 25.7449 11.4951 25.7434C11.5156 25.7375 11.5334 25.7273 11.5485 25.7122C11.5548 25.7042 11.5612 25.6959 11.5675 25.6878C11.5785 25.6691 11.5838 25.6486 11.5841 25.6269V25.5241C11.5846 25.5075 11.5809 25.4922 11.5734 25.4776Z" fill="white"/>
<path d="M9.26756 23.1051H8.95885C8.89574 23.1051 8.83507 23.1607 8.83799 23.226C8.84092 23.2915 8.89111 23.3468 8.95885 23.3468H9.26756C9.33091 23.3468 9.39134 23.2913 9.38842 23.226C9.38549 23.1607 9.3353 23.1051 9.26756 23.1051Z" fill="white"/>
<path d="M14.4891 21.6702C14.4842 21.6554 14.476 21.6422 14.464 21.6313C14.4409 21.6101 14.4106 21.5945 14.3785 21.5959C14.3463 21.5974 14.3161 21.6081 14.293 21.6313C14.2472 21.6771 14.2016 21.7226 14.1558 21.7684C14.1441 21.7794 14.1356 21.7923 14.1307 21.8074C14.1231 21.8218 14.1197 21.8374 14.1202 21.854C14.1195 21.8705 14.1231 21.8861 14.1307 21.9005C14.1356 21.9154 14.1438 21.9285 14.1558 21.9395C14.1789 21.9607 14.2091 21.9763 14.2413 21.9748C14.2735 21.9733 14.3037 21.9626 14.3268 21.9395C14.3726 21.8937 14.4182 21.8481 14.464 21.8023C14.4757 21.7913 14.4842 21.7784 14.4891 21.7633C14.4967 21.7489 14.5001 21.7333 14.4996 21.7168C14.5001 21.7002 14.4967 21.6846 14.4891 21.6702Z" fill="white"/>
<path d="M16.7606 20.6868C16.7513 20.6583 16.733 20.6281 16.705 20.6145C16.6768 20.6011 16.6475 20.5884 16.6175 20.5799C16.5883 20.5714 16.5581 20.5672 16.5279 20.5636C16.4752 20.5572 16.4226 20.5618 16.3705 20.5723C16.342 20.5782 16.3125 20.6035 16.2984 20.6279C16.2832 20.6537 16.2767 20.692 16.2862 20.721C16.2957 20.7502 16.3137 20.7785 16.3417 20.7933C16.3714 20.8092 16.4012 20.8121 16.4343 20.8055C16.4601 20.8026 16.4862 20.8031 16.512 20.8053C16.5396 20.8101 16.5669 20.8162 16.5927 20.8267C16.5912 20.8262 16.59 20.8255 16.5885 20.825C16.6166 20.8374 16.6453 20.8438 16.676 20.8355C16.704 20.8277 16.7345 20.806 16.7481 20.7799C16.7633 20.7519 16.7706 20.718 16.7606 20.6868Z" fill="white"/>
<path d="M16.3458 17.4644C16.338 17.4364 16.3164 17.4059 16.2903 17.3923C16.2316 17.3611 16.1599 17.3779 16.1248 17.4356L15.9567 17.7122C15.9406 17.7388 15.9362 17.7756 15.9445 17.8053C15.9523 17.8333 15.974 17.8638 16.0001 17.8776C16.0588 17.9088 16.1304 17.892 16.1655 17.8343C16.2216 17.7422 16.2776 17.6498 16.3337 17.5577C16.35 17.5309 16.3541 17.4941 16.3458 17.4644Z" fill="white"/>
<path d="M20.4513 18.3969C20.434 18.3704 20.4101 18.3501 20.3789 18.3414C20.299 18.3185 20.2188 18.2956 20.1389 18.2727C20.1089 18.2641 20.0726 18.2692 20.0458 18.2848C20.0207 18.2995 19.9969 18.3282 19.9903 18.3572C19.9832 18.3882 19.9847 18.423 20.0025 18.4503C20.0198 18.4768 20.0436 18.4971 20.0748 18.5058C20.1548 18.5287 20.2349 18.5516 20.3148 18.5743C20.3448 18.5828 20.3811 18.5777 20.4079 18.5621C20.433 18.5475 20.4569 18.5187 20.4635 18.49C20.4705 18.4593 20.4691 18.4245 20.4513 18.3969Z" fill="white"/>
<path d="M23.6045 16.2788C23.5346 16.2819 23.4892 16.3319 23.4836 16.3996L23.4437 16.8794C23.4383 16.9425 23.5031 17.0029 23.5645 17.0002C23.6345 16.9971 23.6798 16.9471 23.6854 16.8794L23.7253 16.3996C23.7307 16.3365 23.6659 16.2761 23.6045 16.2788Z" fill="white"/>
<path d="M25.6277 17.2096C25.4829 17.175 25.3323 17.1606 25.184 17.1708C25.1211 17.1752 25.0599 17.2232 25.0631 17.2917C25.0658 17.3533 25.1165 17.4172 25.184 17.4125C25.2714 17.4065 25.3592 17.4099 25.4464 17.4206C25.4856 17.4267 25.5248 17.4333 25.5636 17.4425C25.625 17.4571 25.6973 17.4233 25.7122 17.3582C25.7263 17.2961 25.6935 17.2252 25.6277 17.2096Z" fill="white"/>
<path d="M24.0319 13.9329C24.0241 13.9049 24.0025 13.8744 23.9764 13.8605C23.9484 13.8457 23.9142 13.8384 23.8833 13.8483C23.8533 13.8581 23.827 13.8761 23.8109 13.9039C23.7651 13.9838 23.7193 14.064 23.6735 14.1439C23.6579 14.1712 23.6528 14.2065 23.6613 14.237C23.6691 14.265 23.6908 14.2955 23.7169 14.3093C23.7449 14.3242 23.779 14.3315 23.81 14.3215C23.8397 14.3118 23.8662 14.2938 23.8821 14.266C23.9279 14.1861 23.9737 14.1059 24.0195 14.026C24.0356 13.9987 24.0405 13.9634 24.0319 13.9329Z" fill="white"/>
<path d="M27.4649 14.1886C27.4418 14.1674 27.4116 14.1518 27.3794 14.1533C27.3572 14.1542 27.335 14.1523 27.3131 14.1503C27.2785 14.1445 27.2449 14.1357 27.2122 14.1228C27.1966 14.1155 27.1813 14.1084 27.1664 14.0994C27.1399 14.0833 27.1031 14.0789 27.0734 14.0872C27.0453 14.095 27.0149 14.1167 27.0012 14.1428C26.9703 14.2013 26.9866 14.2734 27.0446 14.3082C27.1443 14.3682 27.2634 14.3996 27.3796 14.395C27.4113 14.3937 27.4423 14.3823 27.4652 14.3596C27.4861 14.3387 27.502 14.3043 27.5005 14.2741C27.4988 14.2427 27.4886 14.2103 27.4649 14.1886Z" fill="white"/>
<path d="M30.3365 13.8493C30.3317 13.8344 30.3234 13.8212 30.3115 13.8103C30.3005 13.7986 30.2876 13.7901 30.2725 13.7852C30.2581 13.7776 30.2425 13.7742 30.2259 13.7747L30.1938 13.7791C30.1733 13.7849 30.1555 13.7952 30.1404 13.8103C30.1341 13.8183 30.1277 13.8266 30.1216 13.8346C30.1107 13.8534 30.1051 13.8739 30.1051 13.8956V13.9984C30.1043 14.015 30.108 14.0305 30.1155 14.0449C30.1204 14.0598 30.1287 14.0729 30.1406 14.0839C30.1516 14.0956 30.1645 14.1041 30.1796 14.109C30.194 14.1166 30.2096 14.12 30.2262 14.1195C30.2369 14.118 30.2476 14.1166 30.2583 14.1151C30.2788 14.1092 30.2966 14.099 30.3117 14.0839C30.318 14.0759 30.3244 14.0676 30.3307 14.0595C30.3417 14.0408 30.347 14.0203 30.3473 13.9986V13.8958C30.3475 13.8792 30.3441 13.8636 30.3365 13.8493Z" fill="white"/>
<path d="M29.7257 10.9829C29.7065 10.9232 29.6414 10.8771 29.5771 10.8983C29.4287 10.9473 29.2937 11.027 29.1799 11.1339C29.1339 11.1773 29.1329 11.2616 29.1799 11.305C29.2294 11.3503 29.3018 11.3513 29.351 11.305C29.3683 11.2887 29.3865 11.2738 29.4048 11.2589C29.4631 11.2153 29.5257 11.1788 29.5924 11.1498C29.6088 11.1434 29.6248 11.1369 29.6414 11.1315C29.6711 11.1217 29.6975 11.1035 29.7138 11.0759C29.7286 11.0501 29.735 11.0119 29.7257 10.9829Z" fill="white"/>
<path d="M32.5653 10.3033C32.5577 10.2892 32.5472 10.278 32.5341 10.2695C32.5224 10.2588 32.5087 10.2517 32.4929 10.2478L32.4607 10.2434C32.4388 10.2434 32.4186 10.249 32.3996 10.26C32.3915 10.2663 32.3832 10.2727 32.3752 10.279C32.3603 10.2941 32.3499 10.3119 32.344 10.3323C32.3328 10.3667 32.3218 10.4011 32.3106 10.4357C32.3055 10.4517 32.3048 10.4678 32.3084 10.4839C32.3092 10.5 32.314 10.5151 32.3228 10.529C32.3304 10.5431 32.3408 10.5543 32.354 10.5628C32.3657 10.5736 32.3793 10.5806 32.3952 10.5845C32.4059 10.586 32.4166 10.5875 32.4273 10.5889C32.449 10.5889 32.4695 10.5833 32.4883 10.5723C32.4963 10.566 32.5046 10.5597 32.5126 10.5536C32.5275 10.5385 32.538 10.5207 32.5438 10.5002C32.555 10.4659 32.5662 10.4315 32.5772 10.3972C32.5823 10.3811 32.583 10.365 32.5794 10.3489C32.5789 10.3321 32.574 10.3172 32.5653 10.3033Z" fill="white"/>
<path d="M32.1276 8.72315C32.1072 8.65956 32.0448 8.62227 31.979 8.6386C31.9432 8.64761 31.9071 8.65492 31.8708 8.66077C31.8679 8.66126 31.8647 8.66175 31.8618 8.66199C31.8545 8.66321 31.8467 8.66394 31.8399 8.66443C31.8216 8.66638 31.8033 8.66784 31.7848 8.66882C31.7112 8.67296 31.6374 8.67028 31.5643 8.66126C31.5358 8.65785 31.4983 8.67734 31.4788 8.69659C31.4578 8.71754 31.442 8.7519 31.4435 8.78212C31.4449 8.8133 31.4551 8.84571 31.4788 8.86764C31.5039 8.89078 31.5307 8.89883 31.5643 8.90297C31.7239 8.92271 31.8872 8.91028 32.0433 8.8713C32.1047 8.85643 32.1476 8.78406 32.1276 8.72315Z" fill="white"/>
<path d="M38.6733 6.69123C38.6697 6.6754 38.6623 6.66175 38.6516 6.65005C38.6431 6.6369 38.6319 6.62666 38.6178 6.61886C38.608 6.61472 38.5985 6.61082 38.589 6.60668C38.5676 6.60083 38.5461 6.60083 38.5247 6.60668C38.5149 6.61082 38.5054 6.61472 38.4959 6.61886C38.4777 6.62958 38.4633 6.64396 38.4526 6.66223C38.4292 6.6961 38.4058 6.73021 38.3824 6.76408C38.3736 6.77797 38.3687 6.79284 38.368 6.80892C38.3644 6.825 38.3651 6.84108 38.3702 6.85717C38.3739 6.873 38.3812 6.88664 38.3919 6.89834C38.4004 6.9115 38.4116 6.92198 38.4258 6.92953C38.4355 6.93367 38.445 6.93757 38.4547 6.94171C38.4762 6.94756 38.4976 6.94756 38.5191 6.94171C38.5288 6.93757 38.5383 6.93367 38.5478 6.92953C38.5661 6.91881 38.5805 6.90443 38.5912 6.88616C38.6146 6.85229 38.638 6.81818 38.6614 6.78431C38.6701 6.77042 38.675 6.75556 38.6757 6.73948C38.6792 6.7234 38.6784 6.70732 38.6733 6.69123Z" fill="white"/>
<path d="M35.9683 5.39116C35.9624 5.37069 35.9522 5.3529 35.9371 5.33779C35.9288 5.33145 35.9207 5.32512 35.9127 5.31878C35.8939 5.30782 35.8735 5.30222 35.8518 5.30222H35.8174C35.8009 5.30148 35.7853 5.30514 35.7709 5.31269C35.756 5.31757 35.7429 5.32585 35.7319 5.33779C35.7202 5.34875 35.7117 5.36167 35.7068 5.37678C35.6993 5.39115 35.6958 5.40675 35.6963 5.42332C35.6978 5.43404 35.6993 5.44476 35.7007 5.45548C35.7063 5.47594 35.7168 5.49373 35.7319 5.50884C35.7399 5.51517 35.7482 5.52151 35.7563 5.52784C35.775 5.53881 35.7955 5.54417 35.8172 5.54442H35.8515C35.8681 5.54515 35.8837 5.54149 35.8981 5.53394C35.9132 5.52907 35.9261 5.52078 35.9371 5.50884C35.9488 5.49787 35.9573 5.48496 35.9622 5.46986C35.9697 5.45548 35.9731 5.43989 35.9726 5.42332C35.9712 5.4126 35.9697 5.40188 35.9683 5.39116Z" fill="white"/>
<path d="M36.9997 4.42865C36.9929 4.38285 36.9756 4.33801 36.9532 4.29757C36.9386 4.2715 36.9096 4.24981 36.8808 4.24201C36.8518 4.23397 36.8133 4.23762 36.7877 4.25419C36.7619 4.27076 36.7392 4.29561 36.7322 4.32631C36.7249 4.35848 36.7283 4.39016 36.7444 4.4194C36.7458 4.42208 36.747 4.425 36.7485 4.42793C36.7551 4.44498 36.7592 4.46252 36.7626 4.48031C36.7639 4.49785 36.7643 4.5154 36.7626 4.53294C36.7558 4.56462 36.7583 4.59751 36.7748 4.62602C36.7894 4.65111 36.8182 4.67499 36.8469 4.68157C36.8779 4.68864 36.9127 4.68718 36.94 4.66939C36.9656 4.65282 36.989 4.62796 36.9956 4.59726C37.0017 4.56973 37.0056 4.54122 37.0065 4.5132C37.0078 4.48469 37.0039 4.45692 36.9997 4.42865Z" fill="white"/>
<path d="M34.7367 2.38779C34.7257 2.3761 34.7128 2.36757 34.6977 2.3627C34.6833 2.35514 34.6677 2.35173 34.6511 2.35222C34.6199 2.35368 34.5873 2.36391 34.5656 2.38755C34.5439 2.41118 34.5303 2.44018 34.5303 2.47307V2.64461C34.5303 2.67556 34.5437 2.7082 34.5656 2.73013C34.5766 2.74183 34.5895 2.75012 34.6046 2.75499C34.619 2.76254 34.6346 2.76595 34.6511 2.76547C34.6823 2.76401 34.7147 2.75377 34.7367 2.73013C34.7583 2.7065 34.772 2.67751 34.772 2.64461V2.47307C34.772 2.44213 34.7586 2.40972 34.7367 2.38779Z" fill="white"/>
<path d="M32.9029 3.82094C32.887 3.79633 32.861 3.77001 32.8305 3.76538C32.7394 3.75149 32.6483 3.7376 32.5571 3.72372C32.541 3.7186 32.525 3.71787 32.5089 3.72152C32.4928 3.72225 32.4777 3.72713 32.4638 3.7359C32.4387 3.75052 32.4148 3.77927 32.4083 3.80827C32.4012 3.83921 32.4026 3.87405 32.4204 3.90134C32.4363 3.92595 32.4623 3.95227 32.4926 3.9569C32.5837 3.97079 32.6748 3.98467 32.7659 3.99856C32.782 4.00368 32.7981 4.00441 32.8142 4.00075C32.8303 4.00002 32.8454 3.99515 32.859 3.98638C32.8841 3.97176 32.908 3.94301 32.9146 3.91426C32.9221 3.88307 32.9207 3.84823 32.9029 3.82094Z" fill="white"/>
<path d="M32.7686 4.60852C32.7611 4.59439 32.7506 4.58318 32.7374 4.57465C32.7257 4.56393 32.7121 4.55663 32.6963 4.55297C32.6855 4.55151 32.6748 4.55005 32.6641 4.54858C32.6422 4.54858 32.6219 4.55419 32.6032 4.56515C32.5951 4.57149 32.5869 4.57782 32.5788 4.58416C32.5637 4.59926 32.5535 4.61705 32.5476 4.63752C32.5359 4.67187 32.5242 4.70598 32.5128 4.7401C32.5077 4.75618 32.5069 4.77227 32.5106 4.78835C32.5113 4.80443 32.5162 4.81953 32.525 4.83342C32.5325 4.84756 32.543 4.85876 32.5561 4.86729C32.5678 4.87801 32.5815 4.88508 32.5973 4.88898C32.608 4.89044 32.6188 4.8919 32.6295 4.89336C32.6514 4.89336 32.6716 4.88775 32.6904 4.87679C32.6984 4.87045 32.7067 4.86412 32.7148 4.85778C32.7296 4.84268 32.7401 4.82489 32.746 4.80442C32.7577 4.77031 32.7694 4.73596 32.781 4.70184C32.7862 4.68576 32.7869 4.66968 32.7832 4.6536C32.7823 4.63728 32.7774 4.62241 32.7686 4.60852Z" fill="white"/>
<path d="M29.1626 6.98315H28.8539C28.7905 6.98315 28.7301 7.03871 28.733 7.10401C28.7359 7.16955 28.7861 7.22487 28.8539 7.22487H29.1626C29.2257 7.22487 29.2864 7.16931 29.2834 7.10401C29.2805 7.03847 29.2306 6.98315 29.1626 6.98315Z" fill="white"/>
<path d="M28.4587 8.99406C28.4509 8.96603 28.4292 8.93558 28.4031 8.92169C28.3751 8.90683 28.341 8.89951 28.31 8.9095C28.2815 8.91876 28.2513 8.93704 28.2377 8.96506C28.2045 9.03426 28.1714 9.10346 28.1382 9.17266C28.1295 9.18655 28.1246 9.20141 28.1239 9.21749C28.1202 9.23357 28.1209 9.24965 28.1261 9.26573C28.1339 9.29375 28.1555 9.32422 28.1816 9.33786C28.2096 9.35272 28.2437 9.36003 28.2747 9.35004C28.3032 9.34078 28.3334 9.32251 28.3471 9.29449C28.3802 9.22529 28.4133 9.15609 28.4465 9.08689C28.4552 9.073 28.4601 9.05814 28.4608 9.04205C28.4643 9.02622 28.4638 9.01014 28.4587 8.99406Z" fill="white"/>
<path d="M26.1102 9.7616H25.7328C25.6694 9.7616 25.609 9.81715 25.6119 9.88245C25.6148 9.948 25.665 10.0033 25.7328 10.0033H26.1102C26.1733 10.0033 26.234 9.94775 26.2311 9.88245C26.2281 9.81691 26.1779 9.7616 26.1102 9.7616Z" fill="white"/>
<path d="M26.3645 7.08499C26.3414 7.06379 26.3112 7.04819 26.279 7.04966C26.2488 7.05112 26.2137 7.06062 26.1935 7.08499C26.1365 7.1537 26.0795 7.22241 26.0224 7.29112C26.0107 7.30209 26.0022 7.315 25.9973 7.33011C25.9898 7.34448 25.9864 7.36008 25.9869 7.37665C25.9869 7.40637 26 7.44171 26.0222 7.46218C26.0451 7.48337 26.0756 7.49897 26.1077 7.4975C26.1379 7.49604 26.173 7.4863 26.1932 7.46218C26.2503 7.39346 26.3073 7.32475 26.3643 7.25604C26.376 7.24507 26.3845 7.23216 26.3894 7.21705C26.3969 7.20268 26.4004 7.18708 26.3999 7.17051C26.3999 7.14078 26.3867 7.10546 26.3645 7.08499Z" fill="white"/>
<path d="M24.3648 7.51553C24.3585 7.50725 24.3522 7.49921 24.3458 7.49117C24.3307 7.47606 24.3129 7.46583 24.2925 7.45998C24.2581 7.44853 24.224 7.43707 24.1896 7.42562C24.1736 7.4205 24.1575 7.41977 24.1414 7.42343C24.1253 7.42416 24.1102 7.42904 24.0966 7.43781C24.0824 7.44536 24.0712 7.45584 24.0627 7.46899C24.052 7.48069 24.0447 7.49434 24.041 7.51017C24.0395 7.52089 24.0381 7.53161 24.0366 7.54233C24.0366 7.56426 24.0422 7.58449 24.0532 7.60325C24.0595 7.61129 24.0659 7.61958 24.0722 7.62762C24.0873 7.64248 24.1051 7.65295 24.1256 7.6588C24.1599 7.67025 24.194 7.68171 24.2284 7.69316C24.2445 7.69828 24.2605 7.69901 24.2766 7.69536C24.2927 7.69463 24.3078 7.68975 24.3215 7.68098C24.3356 7.67342 24.3468 7.66295 24.3553 7.64979C24.366 7.63809 24.3731 7.62445 24.377 7.60861C24.3785 7.59789 24.3799 7.58717 24.3814 7.57645C24.3812 7.55452 24.3758 7.5343 24.3648 7.51553Z" fill="white"/>
<path d="M22.11 8.86782C22.0868 8.84662 22.0566 8.83103 22.0244 8.83249L21.9923 8.83688C21.9718 8.84248 21.954 8.85296 21.9389 8.86807C21.8936 8.92557 21.848 8.98307 21.8027 9.04033C21.791 9.0513 21.7825 9.06421 21.7776 9.07932C21.7701 9.09369 21.7666 9.10928 21.7671 9.12585C21.7671 9.15558 21.7803 9.19091 21.8025 9.21138C21.8256 9.23258 21.8558 9.24817 21.888 9.24671C21.8987 9.24525 21.9094 9.24379 21.9202 9.24233C21.9406 9.23648 21.9584 9.22624 21.9735 9.21113C22.0188 9.15363 22.0644 9.09637 22.1097 9.03887C22.1214 9.0279 22.1299 9.01499 22.1348 8.99988C22.1424 8.98551 22.1458 8.96992 22.1453 8.95335C22.1455 8.92387 22.1324 8.88829 22.11 8.86782Z" fill="white"/>
<path d="M23.1394 11.0169C23.1304 10.9891 23.1119 10.9567 23.0838 10.9446C23.0039 10.9102 22.9238 10.8758 22.8438 10.8415C22.83 10.8327 22.8151 10.8278 22.7988 10.8271C22.7827 10.8235 22.7666 10.8242 22.7505 10.8293C22.7225 10.8371 22.692 10.8588 22.6784 10.8849C22.6635 10.9129 22.6562 10.947 22.6662 10.9779C22.6752 11.0057 22.6938 11.0381 22.7218 11.0503C22.8017 11.0847 22.8819 11.119 22.9618 11.1534C22.9757 11.1621 22.9905 11.167 23.0066 11.1677C23.0227 11.1714 23.0388 11.1707 23.0549 11.1655C23.0829 11.1578 23.1133 11.1361 23.1272 11.11C23.1421 11.082 23.1494 11.0479 23.1394 11.0169Z" fill="white"/>
<path d="M20.258 9.09573C20.2544 9.0799 20.2471 9.06625 20.2363 9.05455C20.2278 9.0414 20.2166 9.03092 20.2025 9.02337C20.1745 9.0085 20.1403 9.0012 20.1094 9.01119C20.0806 9.02045 20.0512 9.03872 20.037 9.06674C20.0141 9.11255 19.9912 9.15811 19.9683 9.20392C19.9595 9.21781 19.9547 9.23268 19.9539 9.24876C19.9503 9.26484 19.951 9.28092 19.9561 9.297C19.9598 9.3126 19.9671 9.32648 19.9778 9.33817C19.9864 9.35133 19.9976 9.36157 20.0117 9.36937C20.0397 9.38423 20.0738 9.39154 20.1048 9.38155C20.1335 9.37229 20.163 9.35401 20.1771 9.32599C20.2 9.28019 20.2229 9.23462 20.2456 9.18882C20.2544 9.17493 20.2592 9.16006 20.26 9.14398C20.2636 9.1279 20.2629 9.11182 20.258 9.09573Z" fill="white"/>
<path d="M21.7868 13.3985C21.694 13.3734 21.6021 13.3454 21.5112 13.3139C21.4666 13.2986 21.4223 13.2823 21.3782 13.2654C21.3553 13.2567 21.3326 13.2477 21.31 13.2384C21.3002 13.2345 21.2905 13.2304 21.281 13.2265C21.2766 13.2245 21.2722 13.2228 21.2678 13.2209C21.2663 13.2201 21.2659 13.2199 21.2617 13.2182C21.2305 13.2048 21.2028 13.1965 21.1686 13.206C21.1406 13.2138 21.1102 13.2355 21.0963 13.2616C21.069 13.3134 21.0775 13.4004 21.1396 13.427C21.3295 13.5081 21.5234 13.5776 21.7227 13.6314C21.7836 13.648 21.857 13.6107 21.8714 13.5471C21.8857 13.4835 21.8521 13.416 21.7868 13.3985Z" fill="white"/>
<path d="M20.6928 14.7635C20.6565 14.7072 20.5868 14.6877 20.5274 14.7201L19.7727 15.1317C19.7172 15.1619 19.6948 15.2433 19.7294 15.2971C19.7657 15.3534 19.8354 15.3729 19.8948 15.3405C20.1463 15.2033 20.398 15.0661 20.6494 14.929C20.705 14.8985 20.7276 14.8174 20.6928 14.7635Z" fill="white"/>
<path d="M18.9112 14.4776C18.8934 14.4501 18.87 14.4333 18.8388 14.4221C18.7469 14.3889 18.6551 14.3558 18.5632 14.3226C18.535 14.3124 18.4952 14.3202 18.4702 14.3348C18.4451 14.3495 18.4212 14.3782 18.4146 14.4072C18.4075 14.4381 18.409 14.473 18.4268 14.5003C18.4446 14.5278 18.468 14.5446 18.4991 14.5558C18.591 14.589 18.6829 14.6221 18.7747 14.6552C18.803 14.6655 18.8429 14.6577 18.8678 14.6431C18.8929 14.6284 18.9168 14.5997 18.9234 14.5707C18.9304 14.54 18.929 14.5052 18.9112 14.4776Z" fill="white"/>
<path d="M18.6147 10.9634C18.5918 10.9422 18.5614 10.9266 18.5292 10.9281C18.497 10.9295 18.4668 10.9403 18.4437 10.9634C18.3864 11.0207 18.3294 11.0777 18.2721 11.1349C18.2502 11.1569 18.2368 11.1895 18.2368 11.2205C18.2368 11.2502 18.25 11.2855 18.2721 11.306C18.2951 11.3272 18.3255 11.3428 18.3577 11.3413C18.3898 11.3399 18.42 11.3291 18.4432 11.306C18.5005 11.2487 18.5575 11.1917 18.6147 11.1344C18.6367 11.1125 18.6501 11.0799 18.6501 11.0489C18.6503 11.0192 18.6371 10.9836 18.6147 10.9634Z" fill="white"/>
<path d="M17.1146 11.4597C16.9546 11.3912 16.7945 11.3228 16.6341 11.2541C16.603 11.2407 16.5752 11.2324 16.5411 11.2419C16.513 11.2497 16.4826 11.2714 16.4689 11.2974C16.4414 11.3493 16.4502 11.4363 16.5123 11.4629C16.6724 11.5313 16.8325 11.5998 16.9926 11.6685C17.0238 11.6819 17.0515 11.6902 17.0856 11.6807C17.1137 11.6729 17.1441 11.6512 17.158 11.6252C17.1855 11.5733 17.1768 11.4863 17.1146 11.4597Z" fill="white"/>
<path d="M15.3464 12.8994C15.3386 12.8714 15.3169 12.841 15.2908 12.8273C15.2628 12.8125 15.2287 12.8052 15.1978 12.8151C15.1678 12.8249 15.1415 12.8429 15.1254 12.8707C15.092 12.9284 15.0589 12.9862 15.0255 13.0439C15.0097 13.0712 15.005 13.1066 15.0133 13.137C15.0211 13.165 15.0428 13.1955 15.0689 13.2094C15.0969 13.2242 15.131 13.2316 15.162 13.2216C15.1919 13.2118 15.2182 13.1938 15.2343 13.166C15.2677 13.1083 15.3008 13.0505 15.3342 12.9928C15.3498 12.9655 15.3547 12.9299 15.3464 12.8994Z" fill="white"/>
<path d="M14.2223 15.3005C14.2133 15.2724 14.1947 15.2405 14.1667 15.2283C14.0637 15.183 13.9606 15.1377 13.8575 15.0924C13.8268 15.0787 13.7983 15.0709 13.7644 15.0802C13.7364 15.088 13.706 15.1097 13.6921 15.1358C13.6772 15.1638 13.6699 15.1979 13.6799 15.2288C13.6889 15.2569 13.7074 15.2888 13.7354 15.3012C13.8385 15.3465 13.9416 15.3918 14.0446 15.4372C14.0753 15.4508 14.1039 15.4586 14.1377 15.4494C14.1657 15.4416 14.1962 15.4199 14.2098 15.3938C14.225 15.3655 14.2325 15.3317 14.2223 15.3005Z" fill="white"/>
<path d="M14.8252 19.2894C14.7933 19.2436 14.7562 19.2064 14.7085 19.1766C14.6856 19.1623 14.66 19.1518 14.6347 19.1423C14.6178 19.1359 14.6003 19.1315 14.5823 19.1291C14.5662 19.124 14.5501 19.1233 14.534 19.1269C14.5179 19.1276 14.5028 19.1325 14.4892 19.1413C14.4751 19.1488 14.4639 19.1593 14.4553 19.1725C14.4446 19.1842 14.4375 19.1978 14.4336 19.2137C14.4266 19.2446 14.428 19.2794 14.4458 19.3067C14.4522 19.315 14.4585 19.3231 14.4648 19.3311C14.4799 19.346 14.4977 19.3564 14.5182 19.3623C14.5348 19.3647 14.5506 19.3701 14.5662 19.3757C14.5757 19.3806 14.5852 19.3859 14.594 19.392C14.6059 19.4025 14.6178 19.4127 14.6276 19.4254C14.6249 19.4217 14.622 19.4181 14.6193 19.4147C14.6266 19.4271 14.6356 19.4378 14.6478 19.4456C14.6595 19.4563 14.6732 19.4637 14.689 19.4673C14.7051 19.4724 14.7212 19.4732 14.7372 19.4695C14.7533 19.4688 14.7684 19.4639 14.7823 19.4551C14.8081 19.4386 14.8308 19.4137 14.8379 19.3828C14.8444 19.3523 14.8437 19.3158 14.8252 19.2894Z" fill="white"/>
<path d="M12.6461 18.8184C12.6229 18.7972 12.5927 18.7816 12.5606 18.7831C12.5284 18.7845 12.4982 18.7952 12.475 18.8184C12.3951 18.8986 12.315 18.9785 12.235 19.0586C12.2131 19.0806 12.1997 19.1132 12.1997 19.1442C12.1997 19.1739 12.2129 19.2092 12.235 19.2297C12.2582 19.2509 12.2884 19.2665 12.3206 19.265C12.3527 19.2635 12.3829 19.2528 12.4061 19.2297L12.6463 18.9894C12.6683 18.9675 12.6817 18.9349 12.6817 18.9039C12.6814 18.8742 12.6683 18.8389 12.6461 18.8184Z" fill="white"/>
<path d="M12.9857 20.8957C12.9798 20.8752 12.9696 20.8575 12.9545 20.8424C12.9201 20.808 12.8858 20.7739 12.8516 20.7395C12.8407 20.7278 12.8278 20.7196 12.8127 20.7144C12.7983 20.7069 12.7827 20.7035 12.7661 20.7039C12.7495 20.7032 12.734 20.7069 12.7196 20.7144C12.7047 20.7193 12.6916 20.7276 12.6806 20.7395C12.6743 20.7478 12.6679 20.7558 12.6616 20.7639C12.6506 20.7827 12.6453 20.8031 12.645 20.8248C12.6465 20.8355 12.6479 20.8463 12.6494 20.857C12.6553 20.8774 12.6655 20.8952 12.6806 20.9103C12.715 20.9447 12.7493 20.979 12.7834 21.0132C12.7944 21.0249 12.8073 21.0334 12.8224 21.0383C12.8368 21.0458 12.8524 21.0492 12.8689 21.0487C12.8855 21.0495 12.9011 21.0458 12.9155 21.0383C12.9306 21.0334 12.9435 21.0251 12.9545 21.0132C12.9608 21.0051 12.9671 20.9968 12.9735 20.9888C12.9844 20.97 12.9898 20.9496 12.99 20.9279L12.9857 20.8957Z" fill="white"/>
<path d="M12.5741 17.2254C12.5682 17.2049 12.558 17.1871 12.5429 17.172C12.5349 17.1657 12.5266 17.1593 12.5185 17.153C12.4998 17.142 12.4793 17.1367 12.4576 17.1364H12.3548C12.3382 17.1357 12.3226 17.1394 12.3082 17.1469C12.2931 17.1518 12.2802 17.1601 12.2693 17.172C12.2576 17.183 12.249 17.1959 12.2444 17.211C12.2369 17.2254 12.2334 17.241 12.2339 17.2575C12.2354 17.2683 12.2369 17.279 12.2383 17.2897C12.2439 17.3102 12.2544 17.328 12.2693 17.3431C12.2775 17.3494 12.2856 17.3557 12.2936 17.3618C12.3124 17.3728 12.3329 17.3784 12.3545 17.3784H12.4574C12.4739 17.3791 12.4895 17.3755 12.5039 17.3679C12.519 17.3631 12.5319 17.3548 12.5429 17.3428C12.5546 17.3319 12.5631 17.3189 12.568 17.3038C12.5755 17.2895 12.579 17.2739 12.5785 17.2573C12.577 17.2468 12.5755 17.2361 12.5741 17.2254Z" fill="white"/>
</g>
</g>
<defs>
<filter id="filter0_d_2125_1893" x="0.5" y="0.69812" width="44.417" height="40" filterUnits="userSpaceOnUse" color-interpolation-filters="sRGB">
<feFlood flood-opacity="0" result="BackgroundImageFix"/>
<feColorMatrix in="SourceAlpha" type="matrix" values="0 0 0 0 0 0 0 0 0 0 0 0 0 0 0 0 0 0 127 0" result="hardAlpha"/>
<feOffset dy="4"/>
<feGaussianBlur stdDeviation="2"/>
<feComposite in2="hardAlpha" operator="out"/>
<feColorMatrix type="matrix" values="0 0 0 0 0 0 0 0 0 0 0 0 0 0 0 0 0 0 0.25 0"/>
<feBlend mode="normal" in2="BackgroundImageFix" result="effect1_dropShadow_2125_1893"/>
<feBlend mode="normal" in="SourceGraphic" in2="effect1_dropShadow_2125_1893" result="shape"/>
</filter>
</defs>
</svg>
