<svg width="37" height="49" viewBox="0 0 37 49" fill="none" xmlns="http://www.w3.org/2000/svg">
<g filter="url(#filter0_d_2125_2023)">
<path d="M15.6386 19.3293C15.9775 19.5877 17.4142 20.387 17.838 20.5524C21.5212 21.9931 25.5812 21.2692 28.4864 18.6549C30.6587 16.7 31.8827 13.8797 31.8334 10.9425C31.8082 9.40793 31.3897 7.76076 30.6745 6.37735C30.3037 5.66122 29.6081 4.6954 29.0128 4.07135C28.3081 3.33294 27.7393 2.89082 26.7615 2.32252C25.675 1.69134 24.9304 1.40083 23.7654 1.15536C21.0372 0.5797 18.2541 1.12437 15.9597 2.6808C13.4626 4.37501 11.8859 6.98333 11.5434 9.98605C11.3985 11.2562 11.485 12.3855 11.8268 13.6949C12.423 15.9743 13.6853 17.8404 15.6386 19.3293ZM12.252 8.83985C12.4132 8.19463 12.7025 7.26046 12.862 6.86606C13.0345 6.44067 13.5286 5.57606 13.8307 5.17073C14.549 4.20691 15.1778 3.59267 16.0506 3.00074C17.4911 2.02421 18.6919 1.57563 20.3853 1.38099C21.0227 1.30786 21.772 1.26238 21.9268 1.2878C22.0026 1.29983 22.2043 1.32012 22.3758 1.33216C23.1195 1.38456 24.426 1.67417 25.3118 1.98363C25.7515 2.13657 25.8779 2.19855 26.528 2.57534C27.3423 3.04845 27.6205 3.25446 28.1899 3.80582C29.0173 4.60755 29.5276 5.27106 30.0331 6.20434C30.6 7.25243 30.9137 8.02162 31.1686 8.99347C31.4963 10.2427 31.5355 11.732 31.2758 13.053C31.1619 13.6329 31.0524 14.0005 30.7884 14.6894C30.6014 15.1788 30.5053 15.3724 30.0703 16.1411C29.5762 17.0133 29.5615 17.0349 29.1718 17.4853C28.4227 18.3503 27.9213 18.796 27.1298 19.3012C25.4666 20.3645 24.1313 20.8099 22.3403 20.8998C20.8013 20.9767 19.2587 20.7043 17.7428 20.0871C17.2608 19.8914 16.4421 19.4116 15.8125 18.9565C14.7936 18.2192 14.172 17.6088 13.7009 16.882C13.3826 16.391 12.6943 14.9728 12.5146 14.4404C12.0671 13.1096 11.8676 11.8769 11.9318 10.8408C11.9597 10.3961 12.1311 9.32076 12.252 8.83985Z" fill="#530C18"/>
<path d="M11.926 29.3358C12.7133 28.0712 13.0631 27.4772 13.6006 26.4934C13.9741 25.8093 14.3245 25.1976 14.3785 25.1342C14.4708 25.0266 14.5892 24.6741 14.5421 24.6473C14.5319 24.642 14.4019 24.736 14.2532 24.8567C14.1043 24.9771 13.7681 25.2183 13.5045 25.3924C13.2421 25.5665 13.0354 25.7239 13.0452 25.7431C13.0553 25.7623 12.8201 26.1759 12.5061 26.6889C10.1836 30.4884 4.88698 39.5048 4.76435 39.8674C4.7347 39.9568 4.74317 40.0154 4.79891 40.0908C4.88987 40.2165 5.15808 40.3795 5.37501 40.4421L5.37457 40.4419L5.53554 40.489L5.71747 40.2306C5.88625 39.9898 6.50784 38.8079 7.14771 37.5105C7.541 36.7135 10.7377 31.2442 11.926 29.3358Z" fill="#FFF6E1"/>
<path d="M17.6298 9.24817C17.8401 9.44414 18.0844 9.56454 18.3723 9.61448C18.6206 9.65706 19.0427 9.5516 19.2634 9.39175C19.4995 9.22119 19.7236 8.93113 19.7918 8.70751C19.9133 8.31199 19.8924 7.82685 19.751 7.74413C19.7138 7.72228 19.6723 7.64291 19.6594 7.56778C19.5885 7.15732 18.8463 6.83761 18.2985 6.98141C18.0407 7.04941 17.715 7.26456 17.556 7.47302C17.3215 7.77936 17.2004 8.27297 17.2738 8.62435C17.3304 8.89479 17.4212 9.05308 17.6298 9.24817Z" fill="#361123"/>
<path d="M12.8856 14.7614C13.0787 15.2367 13.7083 16.4696 13.9181 16.7849C14.1964 17.2022 14.6728 17.7387 15.0851 18.0974C15.9249 18.8298 17.2715 19.689 17.9939 19.9537C18.8269 20.2585 19.891 20.5218 20.6912 20.621C21.6695 20.742 23.0366 20.6694 24.041 20.4426C25.2425 20.1711 26.9312 19.2844 27.9942 18.3674C28.6102 17.8361 29.4768 16.817 29.8316 16.2063C30.2066 15.5618 30.6665 14.4548 30.8877 13.666C31.2509 12.3697 31.3086 10.8503 31.0466 9.50325C30.9586 9.05333 30.6957 8.19162 30.4919 7.68731C30.2616 7.11566 29.6775 5.9951 29.3406 5.47718C28.985 4.93139 28.0945 3.9776 27.4569 3.45969C27.0284 3.1121 26.2572 2.63008 25.8291 2.44169C24.5117 1.86313 22.3176 1.43038 21.1641 1.52156C19.4794 1.65511 18.2641 1.98597 17.1054 2.62585C15.8119 3.34018 14.9829 4.05185 14.0813 5.22212C13.7335 5.67316 13.2854 6.44145 13.0932 6.91455C12.9302 7.31609 12.639 8.26051 12.4825 8.89414C12.3697 9.35053 12.1894 10.4697 12.1651 10.8673C12.1316 11.4021 12.2154 12.3711 12.3561 13.0638C12.4217 13.3871 12.7334 14.387 12.8856 14.7614ZM19.3486 18.2378C19.0552 18.4381 18.5899 18.5767 18.2748 18.558C17.9984 18.5417 17.3661 18.3803 16.9547 18.2218C16.6163 18.0916 15.7133 17.6154 15.5521 17.4823C15.1742 17.1701 14.7867 16.6408 14.624 16.2134C14.4949 15.8737 14.5116 15.6059 14.6802 15.3174C14.7508 15.1963 14.8376 15.0889 14.8833 15.067C14.9268 15.0454 15.013 14.9798 15.0748 14.921C15.3762 14.6334 15.7486 14.5591 16.0382 14.7286C16.2288 14.8398 16.2736 14.9364 16.3126 15.321C16.3383 15.5693 16.3668 15.6599 16.4464 15.745C16.6038 15.9122 16.7012 15.9078 17.1032 15.7143C17.5085 15.5196 17.719 15.4964 17.9382 15.6237C18.1364 15.7381 18.1716 15.8725 18.0971 16.2275C18.0236 16.5773 18.0434 16.7202 18.1763 16.798C18.2873 16.8629 18.3801 16.8257 18.6188 16.6201C19.0891 16.2161 19.4224 16.1445 19.8034 16.3671C20.107 16.5445 20.1586 16.767 20.0089 17.2502C19.9668 17.3859 19.8573 17.6254 19.7655 17.7826C19.6137 18.0414 19.5755 18.0829 19.3486 18.2378ZM22.9254 15.9457C22.7988 15.8717 22.6911 15.7961 22.6866 15.7771C22.6813 15.7586 22.6931 15.7169 22.7118 15.6846C22.7394 15.6373 22.7716 15.64 22.8672 15.6951C22.9336 15.7339 23.0687 15.801 23.1682 15.8436C23.3214 15.9098 23.3463 15.9321 23.3367 15.9918C23.3173 16.1093 23.1793 16.0939 22.9254 15.9457ZM27.3126 17.8715C27.1336 17.9186 24.7587 16.9296 24.0328 16.506C23.839 16.3927 23.7846 16.3463 23.792 16.2999C23.8134 16.1706 23.9144 16.1916 24.3454 16.4159C25.0443 16.7793 26.1096 17.252 26.7038 17.4622C27.0119 17.5712 27.2897 17.6751 27.3216 17.6938C27.388 17.7329 27.3818 17.8535 27.3126 17.8715ZM27.7157 14.7074C28.1119 14.8735 28.5431 15.0307 28.8992 15.1381C29.2884 15.2561 29.3482 15.2991 29.2608 15.3992C29.1961 15.4726 28.5857 15.2882 27.588 14.8936C27.47 14.8463 27.4413 14.8213 27.4495 14.7721C27.4685 14.6557 27.5465 14.6365 27.7157 14.7074ZM26.4133 14.2009C26.6099 14.3201 26.6282 14.3404 26.6012 14.4069C26.5655 14.4943 26.4763 14.4787 26.2456 14.3447C26.1379 14.2825 26.094 14.2372 26.1005 14.1962C26.1223 14.0637 26.1896 14.0653 26.4133 14.2009ZM15.6152 6.71791C16.1376 5.88541 16.6497 5.31889 17.4709 4.66385C18.3076 3.99678 18.9357 3.67573 19.8975 3.42468C21.1279 3.10363 22.1203 3.13306 23.4371 3.53014C24.0972 3.72968 24.4312 3.87349 24.9897 4.19967C25.3545 4.41281 25.4971 4.51715 25.7611 4.76284C26.4612 5.41342 26.8097 5.89812 27.2788 6.86929C27.6687 7.6775 27.7472 7.88707 27.8399 8.36218C27.9911 9.13917 27.9717 9.74225 27.7721 10.4483C27.4034 11.7528 26.5207 12.9343 25.4929 13.4979C24.6608 13.9547 24.1289 14.0501 23.2291 13.9032C22.7176 13.82 22.5515 13.8229 22.4041 13.9175C22.2354 14.0261 21.9237 14.3921 21.5799 14.8869C21.3039 15.2848 21.1369 15.4621 20.9639 15.5417C20.8134 15.6106 20.6348 15.5997 20.4843 15.5123C20.3585 15.4389 20.3358 15.4046 20.291 15.2153C20.256 15.0684 20.2569 14.9163 20.2941 14.7315C20.3599 14.4011 20.3461 14.3094 20.2172 14.2341C19.98 14.0963 19.7327 14.1997 19.3548 14.5939C18.9381 15.0278 18.6996 15.1161 18.368 14.9576C18.1993 14.8773 18.1857 14.8608 18.1252 14.6708C18.0414 14.4062 18.0554 14.2296 18.1984 13.7628C18.3914 13.1316 18.3876 13.0419 18.1667 13.0607C18.0302 13.0716 17.8659 13.1822 17.443 13.5451C16.9135 14.0009 16.6925 14.0981 16.3088 14.0468C16.112 14.0203 15.8177 13.8363 15.7191 13.6791C15.6757 13.608 15.6237 13.4682 15.6043 13.3683C15.5379 13.0272 15.6188 12.7289 16.0141 11.8538C16.3918 11.0175 16.4225 10.7953 16.2052 10.4553C16.1318 10.3402 16.0255 10.2555 15.6306 9.99798C15.3631 9.8243 15.1031 9.63658 15.0527 9.58106C14.8935 9.40872 14.7328 9.07295 14.7172 8.88411C14.6855 8.48525 15.0351 7.64249 15.6152 6.71791ZM13.6972 6.06332C13.734 6.00045 13.8432 6.00379 13.8778 6.06823C13.9186 6.14626 14.2425 6.42317 14.4046 6.51948C14.5874 6.62784 14.6623 6.75091 14.5839 6.81333C14.519 6.86528 14.2641 6.71724 13.936 6.43677C13.6916 6.22786 13.6441 6.15384 13.6972 6.06332ZM13.4299 10.0305C12.6881 9.5115 12.5996 9.42254 12.7247 9.32266C12.7844 9.27472 12.8172 9.29167 13.0524 9.48831C13.1494 9.5688 13.4687 9.80156 13.7612 10.0049C14.0541 10.2084 14.3 10.3984 14.3078 10.4283C14.3154 10.4573 14.2998 10.4996 14.2733 10.5212C14.2151 10.5672 14.1063 10.5036 13.4299 10.0305Z" fill="#361123"/>
<path d="M21.6548 11.3853C21.8389 11.5632 21.8378 11.5626 22.0628 11.637C22.3459 11.7309 22.5261 11.7293 22.8306 11.6304C23.2605 11.4908 23.6045 11.1704 23.7771 10.749C23.9447 10.3384 23.9229 9.927 23.7164 9.61041C23.5574 9.36784 23.0814 9.05682 22.7916 9.00688C22.4636 8.95025 22.0938 9.04679 21.735 9.28267C21.4679 9.45814 21.424 9.50206 21.3052 9.70695C21.1979 9.89289 21.1712 9.97717 21.162 10.1615C21.1398 10.6213 21.3154 11.0592 21.6548 11.3853Z" fill="#361123"/>
<path d="M19.4164 10.4628C19.5007 10.4318 19.6237 10.2466 19.5912 10.2002C19.5615 10.1569 19.2603 10.3344 19.2612 10.3942C19.263 10.4582 19.3373 10.4916 19.4164 10.4628Z" fill="#361123"/>
<path d="M20.2333 10.8375C20.3287 10.6741 20.3356 10.4313 20.2449 10.434C20.1836 10.4353 20.0248 10.7733 20.0407 10.8676C20.0645 11.0143 20.1363 11.0034 20.2333 10.8375Z" fill="#361123"/>
<path d="M17.238 22.5843C16.6313 22.5538 15.6164 21.9924 14.8789 21.2785C14.602 21.0105 14.2839 20.6252 14.198 20.452C14.1579 20.3717 14.1405 20.3664 14.0023 20.3902C13.9191 20.405 13.6199 20.495 13.3372 20.5918C12.0677 21.0252 11.2256 21.4747 10.6497 22.0251C10.3619 22.3003 10.2973 22.4122 10.4036 22.4523C10.6161 22.5337 11.1935 22.4726 12.4195 22.2396C12.9729 22.1342 13.1927 22.1384 13.2754 22.2561C13.384 22.4095 13.3448 22.5538 13.0072 23.2458C12.5631 24.1561 12.4017 24.6382 12.3642 25.1665C12.3379 25.5364 12.4202 25.6131 12.7513 25.5262L12.7508 25.5259C13.0003 25.4608 13.5546 25.1052 14.2025 24.5965C14.4089 24.4344 14.604 24.2919 14.6361 24.2799C14.6685 24.2678 14.7291 24.2834 14.7708 24.3149C14.8395 24.367 14.8375 24.4257 14.7489 24.92C14.6216 25.6285 14.6058 25.9346 14.6809 26.2414C14.7503 26.5292 14.8595 26.6284 15.0426 26.57C15.3019 26.4882 15.4954 26.1993 15.8086 25.4261C15.9194 25.1534 16.0405 24.8885 16.078 24.8364C16.1883 24.6836 16.2985 24.7648 16.4831 25.1353C16.7428 25.6555 16.8911 25.8838 17.0946 26.0766C17.3116 26.2829 17.5878 26.4267 17.8281 26.459C18.149 26.5016 18.2544 26.403 18.2778 26.0381C18.3064 25.5924 18.2515 25.3732 17.7343 23.8703C17.646 23.6148 17.5274 23.2224 17.4703 22.9979L17.3668 22.5903L17.238 22.5843Z" fill="#361123"/>
<path d="M16.5598 21.2391C16.1342 21.003 15.7728 20.7807 15.5915 20.6425C15.1902 20.3373 14.6321 19.843 14.5207 19.6959C14.4036 19.5405 14.4125 19.5427 14.3528 19.6477C14.1575 19.9877 14.3474 20.4198 14.9717 21.0585C15.4894 21.5881 16.4586 22.1952 16.9486 22.2973L16.9482 22.297C17.2621 22.3624 17.4239 22.3595 17.6612 22.2843C17.8553 22.2228 18.0165 22.0935 18.1207 21.9162L18.1806 21.8135L17.9998 21.7934C17.5579 21.7428 17.2703 21.6324 16.5598 21.2391Z" fill="#FFC312"/>
<path d="M18.8627 21.14C18.7571 21.1224 17.9703 20.8526 17.6329 20.718C17.4193 20.6326 17.0136 20.413 16.3703 20.0346C15.4908 19.5178 15.3909 19.4512 14.9921 19.1114C14.756 18.9094 14.552 18.7475 14.5395 18.7507C14.5261 18.754 14.4967 18.812 14.4721 18.8791C14.3531 19.2128 14.6737 19.644 15.5517 20.3305C15.9842 20.6689 16.9422 21.2314 17.3326 21.3766C17.7056 21.515 18.1968 21.6004 18.3827 21.5587C18.5582 21.5193 18.6964 21.4305 18.8246 21.2751C18.9127 21.1677 18.918 21.1489 18.8627 21.14Z" fill="#FFC312"/>
<path d="M15.0176 9.09758C15.1585 9.38295 15.2932 9.51004 15.8104 9.84603C16.3792 10.2148 16.4839 10.3352 16.5546 10.6975C16.6141 11.002 16.5658 11.1882 16.24 11.9106C15.9415 12.5723 15.9268 12.6093 15.8545 12.9156C15.7359 13.4195 15.9578 13.7818 16.4075 13.8168C16.6663 13.8369 16.8346 13.751 17.2899 13.3649C17.7612 12.9658 17.9871 12.8285 18.1795 12.8249C18.3182 12.8222 18.4553 12.8797 18.5284 12.9711C18.6004 13.061 18.5755 13.3042 18.449 13.7448C18.2887 14.3026 18.2722 14.508 18.3737 14.658C18.4459 14.7641 18.4633 14.7735 18.594 14.7846C18.7688 14.7996 18.8782 14.7322 19.1997 14.4141C19.6904 13.9281 19.9268 13.8431 20.2886 14.025C20.473 14.1173 20.5004 14.1439 20.5464 14.2718C20.578 14.3608 20.5809 14.4917 20.5542 14.6159C20.4396 15.1463 20.5091 15.3795 20.7762 15.3578C20.9178 15.3463 21.1294 15.1327 21.4397 14.6892C22.0051 13.8806 22.3132 13.6052 22.6539 13.6048C22.7518 13.6043 23.0305 13.6349 23.2733 13.6728C23.5156 13.7098 23.801 13.7401 23.9062 13.7403C24.5405 13.7392 25.3155 13.4211 25.938 12.9065C26.8809 12.1264 27.5308 10.932 27.6775 9.70802C27.7769 8.8822 27.6059 8.07824 27.1165 7.07406C26.6898 6.19652 26.3701 5.70826 25.942 5.27907C25.7545 5.09135 25.5427 4.87152 25.472 4.79081C25.297 4.59238 24.5343 4.15183 24.0683 3.9806C23.2597 3.68318 22.5023 3.50995 21.8011 3.46135C20.4237 3.36637 19.059 3.77549 17.8984 4.63051C17.4995 4.92458 16.8614 5.49133 16.6159 5.76935C16.1074 6.34501 15.8864 6.65714 15.5493 7.27606C15.0158 8.25393 14.862 8.78165 15.0176 9.09758ZM22.7152 8.7792C22.9883 8.79904 23.0104 8.80707 23.3841 9.02601C23.7292 9.22778 23.7836 9.27059 23.8862 9.42465C24.0387 9.65451 24.1484 10.0859 24.1216 10.3528C24.0964 10.6079 23.9308 11.0332 23.7834 11.2219C23.2777 11.8709 22.4945 12.1097 21.8691 11.8053C21.7487 11.7469 21.5864 11.6421 21.5088 11.573C20.9847 11.1086 20.774 10.2498 21.046 9.6855C21.3104 9.13548 22.0535 8.73193 22.7152 8.7792ZM20.2106 10.2326C20.3758 10.2028 20.4297 10.2306 20.4982 10.3824C20.6115 10.6348 20.4248 11.1131 20.1883 11.1753C20.0494 11.2121 19.9747 11.1811 19.894 11.0546C19.7868 10.8859 19.8001 10.7291 19.9428 10.4837C20.0641 10.2765 20.086 10.256 20.2106 10.2326ZM19.5812 9.96062C19.8012 9.92294 19.8621 9.97645 19.8376 10.1892C19.8102 10.436 19.6704 10.6052 19.4461 10.6645C19.2535 10.7149 19.142 10.6654 19.0766 10.4993C18.9935 10.289 19.2472 10.0186 19.5812 9.96062ZM18.1724 6.78623C18.6151 6.65357 19.1774 6.75569 19.5341 7.03304C19.7642 7.21162 20.0917 7.78037 20.1107 8.0332C20.1711 8.85344 19.7056 9.5553 18.9453 9.79118C18.6234 9.89129 18.3677 9.88727 18.0676 9.77936C17.8029 9.68372 17.6761 9.60613 17.4533 9.40057C17.0081 8.99212 16.896 8.39773 17.1452 7.76455C17.3416 7.26446 17.6935 6.92892 18.1724 6.78623Z" fill="#FFF6E1"/>
<path d="M19.707 16.5695C19.4497 16.4193 19.1724 16.4681 18.8718 16.7178C18.4504 17.0674 18.328 17.1182 18.1002 17.0371C17.8427 16.945 17.7644 16.6721 17.8614 16.2032C17.9207 15.9141 17.9013 15.8331 17.7617 15.793C17.6088 15.7482 17.4333 15.7932 17.1613 15.9462C16.8218 16.1377 16.6639 16.1517 16.4289 16.0104C16.2002 15.8726 16.1065 15.7032 16.0943 15.408C16.0851 15.1819 16.0153 14.9311 15.9518 14.8941C15.9324 14.8827 15.8383 14.8671 15.7422 14.8595C15.6078 14.8493 15.5275 14.8731 15.3877 14.9659C14.961 15.2477 14.7648 15.5223 14.7722 15.8282C14.782 16.2106 15.1813 16.8429 15.713 17.3173C15.8399 17.4308 16.6599 17.8593 16.9865 17.9835C17.4032 18.1411 17.9588 18.291 18.2275 18.3179C18.4964 18.3449 18.9318 18.2332 19.1817 18.0729C19.4332 17.9119 19.6535 17.5889 19.7786 17.1989C19.8891 16.8531 19.8673 16.6632 19.707 16.5695Z" fill="#FFF6E1"/>
<path d="M19.894 11.0545C19.9747 11.1809 20.0492 11.2119 20.1883 11.1751C20.4249 11.1129 20.6115 10.6346 20.4982 10.3823C20.4295 10.2302 20.3758 10.2023 20.2106 10.2324C20.086 10.2559 20.0641 10.2761 19.9428 10.4837C19.8001 10.729 19.7868 10.8857 19.894 11.0545ZM20.2445 10.4342C20.3352 10.4315 20.3283 10.6743 20.2329 10.8378C20.1359 11.0039 20.0643 11.0146 20.0405 10.8679C20.0244 10.7735 20.1832 10.4356 20.2445 10.4342Z" fill="#1B1464"/>
<path d="M11.935 14.843C12.4096 16.0682 13.1922 17.3131 14.0751 18.2473L14.3723 18.5614L14.3101 18.7126C14.241 18.8787 14.2129 19.1639 14.2575 19.2439C14.2755 19.2756 14.2445 19.3817 14.1774 19.5204C14.1021 19.6758 14.0675 19.8075 14.0651 19.9451L14.061 20.1444L13.6114 20.2766C12.0101 20.7479 10.7112 21.4625 10.2341 22.1374C10.0985 22.3287 10.0925 22.3485 10.1262 22.4785C10.1585 22.6 10.1808 22.6234 10.3101 22.6738C10.597 22.7853 10.7837 22.7663 12.7175 22.4281C12.883 22.3989 13.0393 22.3875 13.0638 22.402C13.1251 22.4379 13.0277 22.7092 12.7824 23.187C12.2748 24.1749 12.0346 25.0514 12.1503 25.493C12.2047 25.6984 12.3847 25.8112 12.6326 25.7945L12.804 25.7822L12.3358 26.5382C11.5312 27.836 8.44577 33.009 7.02022 35.4501C5.70123 37.7099 4.52338 39.8139 4.50109 39.9519C4.4886 40.0262 4.58536 40.1972 4.71133 40.3234C4.81054 40.4228 5.20762 40.6261 5.40181 40.6763C5.65798 40.7429 5.70235 40.6981 6.13421 39.9425C6.48848 39.323 6.67732 38.9627 7.34573 37.6261C7.4882 37.3411 8.26028 35.9658 9.0609 34.5701C10.2363 32.5211 10.7553 31.6503 11.7506 30.0542C12.7677 28.4231 13.1073 27.8525 13.6847 26.8015C14.0697 26.1003 14.393 25.524 14.4024 25.5202C14.4122 25.5167 14.4142 25.5468 14.4073 25.5876C14.3781 25.7519 14.4144 26.2149 14.4697 26.39C14.6186 26.8599 15.0708 26.9618 15.4215 26.6047C15.5867 26.4361 15.8375 25.984 16.029 25.5084C16.1198 25.2846 16.1985 25.11 16.2045 25.1211C16.7284 26.1055 16.8129 26.2123 17.2863 26.486C17.6546 26.6999 17.931 26.758 18.1716 26.6724C18.3707 26.6011 18.5034 26.3596 18.5174 26.041C18.5297 25.7699 18.465 25.2636 18.3948 25.0748C18.2062 24.5667 17.7928 23.2981 17.7077 22.9639L17.6044 22.5572L17.7509 22.505C17.993 22.4187 18.0958 22.3342 18.3116 22.0442C18.4637 21.8393 18.5442 21.759 18.6211 21.7361C18.7462 21.6986 18.9718 21.4955 19.065 21.3361L19.1332 21.2206L19.625 21.3202C20.6642 21.5309 21.7583 21.5744 22.8746 21.4487C23.627 21.3648 24.9665 21.0168 25.6445 20.7292C27.3918 19.989 28.824 18.8823 29.9723 17.386C30.3261 16.9245 31.048 15.6646 31.2614 15.1387C31.9933 13.3263 32.2158 11.6551 31.9813 9.73053C31.911 9.15687 31.596 7.92216 31.3753 7.35921C30.7265 5.70111 29.673 4.23275 28.3293 3.11308C25.7263 0.945097 22.2898 0.183047 19.0023 1.04609C17.8749 1.34151 16.9077 1.77582 15.9289 2.42528C15.0064 3.0375 14.3669 3.6038 13.6914 4.40888C11.7796 6.68656 10.9317 9.64982 11.3488 12.5935C11.4344 13.1979 11.7154 14.275 11.935 14.843ZM5.71751 40.2304L5.53558 40.4888L5.37461 40.4417L5.37505 40.442C5.15812 40.3793 4.88991 40.2163 4.79895 40.0906C4.74321 40.0152 4.73452 39.9566 4.76439 39.8672C4.88702 39.5047 10.1835 30.4883 12.5062 26.6887C12.8199 26.1757 13.0553 25.7621 13.0453 25.743C13.0355 25.7238 13.2421 25.5664 13.5046 25.3922C13.7681 25.2181 14.1045 24.9767 14.2532 24.8565C14.4017 24.7359 14.5319 24.642 14.5422 24.6471C14.5892 24.6739 14.4711 25.0264 14.3785 25.1341C14.3246 25.1976 13.9741 25.8094 13.6007 26.4932C13.0631 27.4771 12.7133 28.071 11.9261 29.3356C10.7379 31.2441 7.54126 36.7133 7.14797 37.5101C6.5081 38.8077 5.88629 39.9898 5.71751 40.2304ZM17.4707 22.9977C17.528 23.2223 17.6463 23.6146 17.7346 23.8702C18.2519 25.3731 18.3067 25.5922 18.2782 26.0379C18.2548 26.4029 18.1493 26.5014 17.8285 26.4588C17.5881 26.4265 17.3117 26.2827 17.095 26.0765C16.8914 25.8839 16.7432 25.6553 16.4834 25.1352C16.2988 24.7644 16.1887 24.6835 16.0783 24.8362C16.0409 24.8882 15.9198 25.1532 15.809 25.4259C15.4957 26.1991 15.3022 26.4881 15.0429 26.5699C14.8599 26.6281 14.7506 26.5291 14.6813 26.2412C14.6062 25.9345 14.622 25.6284 14.7493 24.9198C14.8378 24.4255 14.8396 24.3669 14.7712 24.3147C14.7292 24.2833 14.6688 24.2677 14.6365 24.2797C14.6044 24.2918 14.4091 24.4342 14.2028 24.5963C13.5549 25.1051 13.0007 25.4607 12.7512 25.5258L12.7516 25.526C12.4206 25.613 12.3383 25.5361 12.3646 25.1664C12.4021 24.6382 12.5635 24.156 13.0076 23.2457C13.3451 22.5538 13.3844 22.4096 13.2758 22.256C13.1931 22.1383 12.9733 22.134 12.4199 22.2395C11.1939 22.4725 10.6164 22.5336 10.404 22.4522C10.2976 22.412 10.3623 22.2999 10.6501 22.025C11.226 21.4745 12.0683 21.0251 13.3376 20.5916C13.6205 20.4949 13.9197 20.4048 14.0026 20.3901C14.1409 20.3662 14.1583 20.3716 14.1984 20.4518C14.2842 20.6251 14.6022 21.0103 14.8793 21.2783C15.6166 21.9922 16.6317 22.5536 17.2383 22.5842L17.3677 22.5902L17.4707 22.9977ZM18.121 21.916C18.0169 22.0932 17.8555 22.2225 17.6615 22.2841C17.4245 22.3592 17.2624 22.3621 16.9485 22.2968L16.9489 22.297C16.4589 22.1949 15.4899 21.588 14.972 21.0583C14.3475 20.4195 14.1578 19.9874 14.3531 19.6474C14.4129 19.5427 14.4039 19.5402 14.521 19.6956C14.6323 19.8427 15.1905 20.337 15.5918 20.6422C15.7731 20.7805 16.1345 21.0028 16.5601 21.2389C17.2707 21.6322 17.5581 21.7425 18.0004 21.7929L18.1812 21.813L18.121 21.916ZM18.8249 21.2752C18.6967 21.4306 18.5584 21.5193 18.383 21.5588C18.197 21.6005 17.7059 21.5151 17.3329 21.3767C16.9425 21.2315 15.9847 20.669 15.5519 20.3306C14.6739 19.6441 14.3533 19.2129 14.4724 18.8791C14.4969 18.812 14.5264 18.7541 14.5397 18.7507C14.5522 18.7474 14.7562 18.9095 14.9923 19.1115C15.3912 19.4515 15.4913 19.5181 16.3706 20.0347C17.0136 20.4133 17.4194 20.6327 17.6332 20.7181C17.9705 20.8527 18.7573 21.1225 18.863 21.1401C18.9183 21.149 18.9129 21.1677 18.8249 21.2752ZM15.9597 2.681C18.2541 1.12435 21.0374 0.579679 23.7655 1.15556C24.9304 1.40103 25.6748 1.69154 26.7615 2.32272C27.7392 2.89102 28.3081 3.33314 29.0129 4.07156C29.6082 4.6956 30.3038 5.66143 30.6745 6.37755C31.3898 7.76097 31.8083 9.40792 31.8335 10.9427C31.8827 13.8799 30.6587 16.7002 28.4865 18.6551C25.5812 21.2692 21.521 21.9933 17.8381 20.5526C17.4142 20.3872 15.9775 19.5879 15.6387 19.3295C13.6851 17.8404 12.4228 15.9743 11.8268 13.6953C11.4851 12.3861 11.3986 11.2569 11.5435 9.98648C11.8859 6.98376 13.4626 4.37522 15.9597 2.681Z" fill="#1B1464"/>
<path d="M21.5092 11.5731C21.5867 11.6422 21.749 11.747 21.8694 11.8054C22.4948 12.1097 23.2781 11.871 23.7837 11.2219C23.9311 11.0333 24.0967 10.6079 24.1219 10.3529C24.1485 10.086 24.039 9.65436 23.8865 9.42472C23.7839 9.27066 23.7295 9.22785 23.3844 9.02608C23.0107 8.80692 22.9887 8.79889 22.7155 8.77927C22.0538 8.73201 21.3107 9.13555 21.0463 9.6858C20.7743 10.2499 20.985 11.1087 21.5092 11.5731ZM21.3049 9.70676C21.4238 9.50209 21.4677 9.45816 21.7348 9.28248C22.0935 9.04637 22.4632 8.94983 22.7913 9.00669C23.0812 9.05663 23.5572 9.36765 23.7162 9.61022C23.9226 9.92703 23.9445 10.3382 23.7768 10.7488C23.6045 11.1704 23.2604 11.4906 22.8304 11.6302C22.5258 11.7292 22.3459 11.7307 22.0625 11.6369C21.8376 11.5624 21.8384 11.5631 21.6545 11.3851C21.3152 11.059 21.1395 10.6213 21.1616 10.1611C21.1712 9.97697 21.1979 9.89292 21.3049 9.70676Z" fill="#1B1464"/>
<path d="M23.1684 15.8436C23.069 15.801 22.9339 15.7339 22.8674 15.6951C22.7718 15.6401 22.7397 15.6374 22.712 15.6847C22.6931 15.7172 22.6815 15.7587 22.6869 15.7772C22.6913 15.7959 22.799 15.8717 22.9256 15.9457C23.1796 16.0942 23.3178 16.1094 23.337 15.9919C23.3466 15.9324 23.3216 15.9101 23.1684 15.8436Z" fill="#1B1464"/>
<path d="M27.3217 17.6938C27.2898 17.675 27.0118 17.5711 26.7039 17.4621C26.1097 17.2519 25.0445 16.7792 24.3455 16.4158C23.9143 16.1915 23.8135 16.1706 23.7921 16.2999C23.7848 16.346 23.8392 16.3926 24.0329 16.5059C24.7589 16.9293 27.1337 17.9183 27.3128 17.8715C27.3819 17.8532 27.3881 17.7326 27.3217 17.6938Z" fill="#1B1464"/>
<path d="M26.2459 14.3447C26.4766 14.4787 26.5658 14.4943 26.6015 14.4069C26.6284 14.3405 26.6102 14.32 26.4135 14.2009C26.1899 14.0654 26.1223 14.064 26.1007 14.1962C26.0943 14.2373 26.1382 14.2825 26.2459 14.3447Z" fill="#1B1464"/>
<path d="M27.5883 14.8939C28.5861 15.2885 29.1965 15.4729 29.2612 15.3995C29.3483 15.2994 29.2888 15.2562 28.8995 15.1384C28.5435 15.031 28.1123 14.8738 27.7161 14.7077C27.5467 14.6368 27.4688 14.656 27.4501 14.7723C27.4416 14.8214 27.4704 14.8466 27.5883 14.8939Z" fill="#1B1464"/>
<path d="M12.5151 14.4406C12.6948 14.9728 13.3831 16.391 13.7015 16.8821C14.1726 17.6092 14.7939 18.2194 15.8131 18.9567C16.4425 19.4118 17.2611 19.8915 17.7434 20.0873C19.259 20.7044 20.8018 20.9769 22.3409 20.9C24.1318 20.8101 25.4671 20.3646 27.1303 19.3014C27.9216 18.7962 28.423 18.3505 29.1723 17.4854C29.5621 17.0351 29.5768 17.0132 30.0708 16.1413C30.506 15.3725 30.6021 15.179 30.789 14.6896C31.0529 14.0007 31.1624 13.6331 31.2763 13.0532C31.5361 11.7322 31.4968 10.2428 31.1691 8.99364C30.914 8.02179 30.6004 7.25261 30.0336 6.20451C29.5284 5.27123 29.0181 4.60773 28.1905 3.80599C27.6208 3.25463 27.3428 3.04862 26.5286 2.57552C25.8785 2.19851 25.752 2.13653 25.3124 1.9838C24.4264 1.67435 23.1201 1.38451 22.3763 1.33234C22.2049 1.32008 22.0033 1.30001 21.9273 1.28797C21.7728 1.26233 21.0232 1.30781 20.3858 1.38117C18.6925 1.5758 17.4914 2.02438 16.0512 3.00091C15.1783 3.59285 14.5496 4.20708 13.8312 5.17091C13.5291 5.57623 13.0351 6.44084 12.8625 6.86623C12.7031 7.26064 12.4137 8.19481 12.2525 8.84003C12.1317 9.32094 11.9602 10.3962 11.9328 10.8415C11.8681 11.8771 12.0677 13.1098 12.5151 14.4406ZM12.1651 10.8673C12.1894 10.4698 12.3698 9.35037 12.4826 8.89421C12.6391 8.26058 12.9303 7.31615 13.0933 6.91461C13.2852 6.44151 13.7334 5.67322 14.0814 5.22218C14.983 4.05191 15.8119 3.34025 17.1055 2.62591C18.2642 1.98603 19.4797 1.6554 21.1641 1.52162C22.3179 1.43044 24.5118 1.86319 25.8292 2.44175C26.2572 2.63014 27.0284 3.11217 27.457 3.45975C28.0946 3.97767 28.9851 4.93145 29.3407 5.47724C29.6776 5.99516 30.2617 7.11572 30.492 7.68737C30.6958 8.19146 30.9586 9.05339 31.0467 9.50331C31.3089 10.8504 31.2509 12.3696 30.8877 13.6661C30.6666 14.4546 30.2066 15.5618 29.8316 16.2064C29.4769 16.817 28.6103 17.8361 27.9943 18.3674C26.9315 19.2844 25.2426 20.1713 24.0411 20.4427C23.0367 20.6694 21.6696 20.7421 20.6913 20.621C19.8911 20.5218 18.8271 20.2585 17.994 19.9537C17.2716 19.6891 15.9248 18.8301 15.0851 18.0974C14.6729 17.7387 14.1964 17.2023 13.9182 16.7849C13.7082 16.4697 13.0786 15.2367 12.8857 14.7614C12.7332 14.3871 12.4217 13.3871 12.356 13.0641C12.2155 12.3711 12.1315 11.4022 12.1651 10.8673Z" fill="#1B1464"/>
<path d="M14.273 10.5212C14.2997 10.4996 14.3151 10.4574 14.3075 10.4282C14.2997 10.3983 14.0538 10.2084 13.7608 10.0048C13.4683 9.80149 13.1491 9.56872 13.0521 9.48824C12.8171 9.29159 12.7841 9.27465 12.7243 9.32259C12.5993 9.42247 12.6878 9.51143 13.4295 10.0305C14.1062 10.5038 14.215 10.5673 14.273 10.5212Z" fill="#1B1464"/>
<path d="M14.5834 6.81293C14.6619 6.7505 14.587 6.62743 14.4042 6.51908C14.2421 6.42298 13.9181 6.14585 13.8773 6.06782C13.8428 6.00339 13.7335 6.00004 13.6968 6.06292C13.6437 6.15366 13.6912 6.22745 13.9353 6.43614C14.2637 6.71683 14.5186 6.86487 14.5834 6.81293Z" fill="#1B1464"/>
<path d="M15.0523 9.58033C15.1027 9.63584 15.3626 9.82357 15.6302 9.99725C16.025 10.2548 16.1316 10.3395 16.2047 10.4545C16.4221 10.7945 16.3913 11.0168 16.0136 11.8531C15.6183 12.728 15.5374 13.0265 15.6039 13.3676C15.6235 13.4675 15.6752 13.6073 15.7187 13.6784C15.8172 13.8358 16.1117 14.0198 16.3084 14.0461C16.6921 14.0973 16.9128 14.0001 17.4425 13.5444C17.8655 13.1815 18.0298 13.0709 18.1662 13.0599C18.3872 13.0414 18.391 13.1308 18.1979 13.762C18.055 14.2289 18.0412 14.4055 18.1248 14.6701C18.1852 14.8601 18.1988 14.8766 18.3676 14.9568C18.6993 15.1156 18.9377 15.027 19.3544 14.5932C19.7323 14.199 19.9795 14.0956 20.2167 14.2333C20.3456 14.3087 20.3594 14.4003 20.2937 14.7307C20.2564 14.9158 20.2555 15.0676 20.2905 15.2146C20.3353 15.4038 20.3581 15.4382 20.4838 15.5115C20.6345 15.5989 20.8131 15.6098 20.9634 15.541C21.1364 15.4614 21.3034 15.2841 21.5794 14.8861C21.9232 14.3914 22.2349 14.0253 22.4037 13.9167C22.5508 13.8222 22.7169 13.8193 23.2286 13.9025C24.1284 14.0494 24.6606 13.954 25.4924 13.4972C26.5203 12.9335 27.4029 11.7521 27.7717 10.4476C27.9712 9.7413 27.9906 9.13844 27.8395 8.36145C27.7467 7.88656 27.6682 7.67676 27.2783 6.86856C26.8092 5.89738 26.4605 5.41268 25.7607 4.76211C25.4967 4.51642 25.354 4.41207 24.9892 4.19893C24.4308 3.87275 24.0968 3.72873 23.4366 3.52941C22.1199 3.13255 21.1275 3.1029 19.897 3.42395C18.9352 3.67522 18.3069 3.99605 17.4704 4.66312C16.6491 5.31815 16.1369 5.88467 15.6148 6.71718C15.0347 7.64154 14.6851 8.48452 14.7163 8.88293C14.7323 9.07222 14.8931 9.40799 15.0523 9.58033ZM16.6158 5.76896C16.8613 5.49094 17.4994 4.9242 17.8983 4.63012C19.0589 3.7751 20.4236 3.36598 21.801 3.46096C22.5022 3.50934 23.2596 3.6828 24.0682 3.98022C24.534 4.15122 25.2967 4.59177 25.4719 4.79042C25.5428 4.87113 25.7544 5.09119 25.9419 5.27869C26.37 5.70787 26.6897 6.19614 27.1164 7.07368C27.6058 8.07763 27.7768 8.8816 27.6774 9.70763C27.5307 10.9316 26.8808 12.126 25.9379 12.9061C25.3154 13.4209 24.5407 13.7391 23.9061 13.7399C23.8009 13.7397 23.5158 13.7094 23.2732 13.6724C23.0304 13.6345 22.7517 13.6037 22.6538 13.6044C22.3134 13.6051 22.005 13.8802 21.4396 14.6888C21.1293 15.1323 20.9179 15.3461 20.7761 15.3575C20.509 15.3791 20.4397 15.1459 20.5541 14.6155C20.5808 14.4913 20.5781 14.3604 20.5463 14.2715C20.5001 14.1435 20.4729 14.117 20.2885 14.0247C19.9269 13.8429 19.6903 13.9277 19.1996 14.4137C18.8781 14.7319 18.7687 14.7992 18.5939 14.7843C18.4632 14.7733 18.4458 14.7637 18.3736 14.6576C18.2721 14.5076 18.2886 14.3022 18.449 13.7444C18.5754 13.3041 18.6003 13.0606 18.5283 12.9708C18.4552 12.8794 18.3181 12.8218 18.1794 12.8245C17.987 12.8281 17.7614 12.9654 17.2898 13.3645C16.8346 13.7506 16.6662 13.8363 16.4074 13.8164C15.9577 13.7814 15.7358 13.4191 15.8545 12.9152C15.9267 12.6089 15.9414 12.5717 16.2399 11.9102C16.5657 11.1878 16.6141 11.0016 16.5545 10.6971C16.4838 10.3348 16.3791 10.2144 15.8103 9.84564C15.2928 9.50943 15.1584 9.38257 15.0175 9.09719C14.8619 8.78149 15.0157 8.25354 15.549 7.27567C15.8863 6.65676 16.1073 6.34462 16.6158 5.76896Z" fill="#1B1464"/>
<path d="M19.8037 16.3662C19.4229 16.1437 19.0893 16.2153 18.6191 16.6193C18.3803 16.8249 18.2876 16.8621 18.1766 16.7972C18.0435 16.7194 18.0238 16.5765 18.0974 16.2267C18.1721 15.8717 18.1366 15.7373 17.9384 15.6229C17.7193 15.4956 17.509 15.5188 17.1035 15.7134C16.7015 15.907 16.6041 15.9114 16.4467 15.7442C16.3671 15.6593 16.3385 15.5685 16.3129 15.3202C16.2739 14.9356 16.2291 14.839 16.0384 14.7278C15.7486 14.5585 15.3765 14.6326 15.0751 14.9202C15.0133 14.979 14.9273 15.0446 14.8836 15.0662C14.8378 15.0881 14.7511 15.1953 14.6804 15.3166C14.5119 15.6053 14.4952 15.8731 14.6243 16.2126C14.787 16.64 15.1747 17.1693 15.5524 17.4814C15.7136 17.6143 16.6166 18.0906 16.955 18.221C17.3661 18.3795 17.9984 18.5409 18.2751 18.5572C18.5901 18.5761 19.0554 18.4375 19.3488 18.237C19.5756 18.0821 19.6139 18.0406 19.7655 17.7813C19.8574 17.6241 19.9671 17.3847 20.009 17.2489C20.1586 16.7662 20.1073 16.5437 19.8037 16.3662ZM19.1823 18.072C18.9324 18.2324 18.4969 18.3441 18.2281 18.3171C17.9592 18.2901 17.4036 18.1403 16.9871 17.9826C16.6605 17.8587 15.8407 17.4302 15.7136 17.3165C15.1819 16.8422 14.7826 16.21 14.7727 15.8274C14.7652 15.5215 14.9616 15.2468 15.3883 14.965C15.5281 14.8722 15.6084 14.8484 15.7428 14.8586C15.8389 14.8662 15.933 14.8818 15.9524 14.8932C16.0157 14.9302 16.0857 15.181 16.0949 15.4071C16.1071 15.7023 16.2008 15.8717 16.4295 16.0095C16.6645 16.1509 16.8221 16.137 17.1619 15.9453C17.4339 15.7924 17.6094 15.7473 17.7623 15.7921C17.9019 15.8323 17.9213 15.9132 17.862 16.2024C17.7652 16.6715 17.8432 16.9441 18.1008 17.0362C18.3286 17.1174 18.451 17.0665 18.8724 16.7169C19.1729 16.4672 19.4503 16.4184 19.7076 16.5687C19.8679 16.6623 19.8895 16.8523 19.7794 17.1974C19.6538 17.588 19.4336 17.9111 19.1823 18.072Z" fill="#1B1464"/>
<path d="M19.077 10.4993C19.1423 10.6654 19.2538 10.7149 19.4464 10.6645C19.6707 10.6052 19.8105 10.436 19.8379 10.1892C19.8624 9.97651 19.8018 9.92278 19.5815 9.96068C19.2475 10.0187 18.9938 10.2891 19.077 10.4993ZM19.5913 10.2004C19.6239 10.247 19.5008 10.432 19.4165 10.463C19.3374 10.4918 19.2633 10.4583 19.2613 10.3941C19.2604 10.3346 19.5617 10.1571 19.5913 10.2004Z" fill="#1B1464"/>
<path d="M17.4529 9.40122C17.6759 9.60656 17.8025 9.68437 18.0671 9.78002C18.3672 9.88793 18.623 9.89172 18.9449 9.79183C19.7054 9.55595 20.1709 8.85388 20.1103 8.03386C20.0913 7.78103 19.7638 7.21228 19.5337 7.0337C19.177 6.75634 18.6149 6.65423 18.1719 6.78689C17.693 6.92958 17.341 7.2649 17.1443 7.76542C16.8958 8.39816 17.0077 8.99277 17.4529 9.40122ZM17.5561 7.47336C17.7151 7.2649 18.0411 7.04997 18.2986 6.98175C18.8464 6.83794 19.5883 7.15766 19.6595 7.56811C19.6724 7.64325 19.7137 7.72262 19.7511 7.74447C19.8925 7.82696 19.9134 8.31232 19.7919 8.70784C19.7237 8.93169 19.4996 9.22152 19.2635 9.39208C19.043 9.55194 18.6207 9.65739 18.3724 9.61481C18.0845 9.56487 17.8402 9.44448 17.6299 9.2485C17.4213 9.05364 17.3305 8.89512 17.2741 8.62468C17.2005 8.27331 17.3216 7.77992 17.5561 7.47336Z" fill="#1B1464"/>
<g opacity="0.2">
<path d="M12.582 15.7117C12.582 15.7117 16.9127 18.3296 23.3388 17.0465C29.765 15.7634 31.9809 9.72986 31.9809 9.72986C31.9809 9.72986 32.9041 15.035 27.6407 19.34C22.3772 23.645 14.4506 20.4209 12.582 15.7117Z" fill="black"/>
<path d="M14.0024 20.3899C14.0024 20.3899 14.1732 23.4109 17.8042 24.0719L17.3672 22.5897C17.3672 22.5897 18.1699 22.2825 18.181 21.813C18.181 21.813 18.8873 21.5488 19.4289 20.9125L14.8399 18.7505C14.8399 18.7505 15.758 19.4432 15.5522 20.3305L16.0786 20.9125C16.0786 20.9125 16.18 21.5369 15.5749 21.7922L14.0609 20.1442L14.0024 20.3899Z" fill="black"/>
<path d="M13.0453 25.7434L14.771 24.3145L14.3786 25.1342L9.34276 33.6622L5.74409 40.5706L4.98828 40.489L13.3164 26.4073L13.0453 25.7434Z" fill="black"/>
</g>
<path opacity="0.5" d="M20.4999 5.91067C22.3283 5.56591 23.6653 4.5167 23.4863 3.56719C23.3072 2.61769 21.6799 2.12744 19.8515 2.4722C18.0232 2.81695 16.6862 3.86617 16.8652 4.81567C17.0442 5.76518 18.6716 6.25543 20.4999 5.91067Z" fill="white"/>
<path opacity="0.5" d="M16.2174 7.91035C15.6551 8.47263 14.7932 8.52213 14.292 8.02093C13.7908 7.51996 13.8405 6.6578 14.4026 6.09552C14.9649 5.53323 15.8268 5.48373 16.328 5.98493C16.8292 6.48613 16.7797 7.34806 16.2174 7.91035Z" fill="white"/>
</g>
<defs>
<filter id="filter0_d_2125_2023" x="0.5" y="0.69812" width="35.5708" height="48" filterUnits="userSpaceOnUse" color-interpolation-filters="sRGB">
<feFlood flood-opacity="0" result="BackgroundImageFix"/>
<feColorMatrix in="SourceAlpha" type="matrix" values="0 0 0 0 0 0 0 0 0 0 0 0 0 0 0 0 0 0 127 0" result="hardAlpha"/>
<feOffset dy="4"/>
<feGaussianBlur stdDeviation="2"/>
<feComposite in2="hardAlpha" operator="out"/>
<feColorMatrix type="matrix" values="0 0 0 0 0 0 0 0 0 0 0 0 0 0 0 0 0 0 0.25 0"/>
<feBlend mode="normal" in2="BackgroundImageFix" result="effect1_dropShadow_2125_2023"/>
<feBlend mode="normal" in="SourceGraphic" in2="effect1_dropShadow_2125_2023" result="shape"/>
</filter>
</defs>
</svg>
