<svg width="41" height="41" viewBox="0 0 41 41" fill="none" xmlns="http://www.w3.org/2000/svg">
<g filter="url(#filter0_d_2125_2061)">
<path d="M10.3377 28.658C10.761 29.0204 12.2883 30.0796 12.7867 30.3566L12.7861 30.356C15.4971 31.8608 18.3543 32.5219 21.4421 32.3599C22.3096 32.3137 23.8911 32.0472 24.7519 31.8006C29.8885 30.3312 33.8581 26.4825 35.4648 21.4145C36.8315 17.1055 36.2513 12.376 33.8794 8.49623C33.2246 7.42572 32.3075 6.28123 31.3562 5.35C30.6661 4.67486 28.6685 3.23653 27.8197 2.80551C24.55 1.14404 21.1135 0.632745 17.6031 1.28571C14.3053 1.89974 11.3558 3.53097 8.94884 6.07306C8.33451 6.72123 7.12293 8.42434 6.6988 9.23516C5.51417 11.4993 4.92439 13.6939 4.83394 16.1764C4.66051 20.9104 6.70568 25.5471 10.3377 28.658ZM30.5049 21.9543C30.6744 21.927 30.6268 22.2002 30.3947 22.5914C30.1071 23.0769 29.9942 23.1707 29.9214 22.9847C29.8819 22.8855 30.4001 21.9708 30.5049 21.9543ZM26.6072 26.9079C26.8165 26.7557 27.1209 26.5041 27.2841 26.349C27.6618 25.9895 28.3121 25.2197 28.4157 25.0095C28.505 24.828 28.6454 24.8148 28.691 24.9843C28.7689 25.2781 27.2383 26.9207 26.5218 27.3131C26.343 27.4111 26.1764 27.3823 26.2088 27.2583C26.2181 27.2182 26.3981 27.0609 26.6072 26.9079ZM31.8761 18.6337C31.9852 18.6155 32.0547 18.747 31.9858 18.844C31.9157 18.9422 31.818 18.8886 31.807 18.7466C31.8016 18.6751 31.8204 18.6433 31.8761 18.6337ZM21.4235 29.8094C22.0618 29.6126 22.347 29.6153 22.2949 29.8166C22.2799 29.8738 22.1906 29.9193 22.0307 29.9517C21.898 29.9774 21.6584 30.0376 21.4975 30.0835C21.2196 30.1637 21.1156 30.1547 21.0977 30.0502C21.0824 29.9571 21.1803 29.8843 21.4235 29.8094ZM9.69257 7.86183C12.3751 4.45052 16.4559 3.10534 19.5512 4.61256C20.1784 4.91808 21.1375 5.64383 21.5458 6.12158C22.2332 6.92701 22.7852 7.99123 23.0919 9.10038C24.5476 14.3652 21.2357 20.8868 16.1363 22.7975C13.6466 23.7296 11.0967 23.3171 9.30228 21.6913C8.70023 21.1456 8.23237 20.5154 7.79986 19.6683C7.08878 18.2755 6.77248 16.3861 6.93961 14.532C7.15138 12.1834 8.09789 9.88963 9.69257 7.86183Z" fill="#28BFFF"/>
<path d="M8.35855 20.0319C9.00283 21.1099 9.96312 21.9807 11.0333 22.4563C12.861 23.2692 15.0137 23.1168 17.0682 22.0298C19.3362 20.8299 21.2304 18.6484 22.2485 16.0632C23.9352 11.7797 23.1157 7.42813 20.2387 5.38116C19.5049 4.85999 18.7638 4.55746 17.8281 4.40051C16.8735 4.23907 15.9216 4.30406 14.8841 4.5988C13.2681 5.05827 11.7342 6.04641 10.413 7.47935C9.79508 8.14909 8.86176 9.51793 8.47626 10.3192C6.82886 13.747 6.78423 17.3991 8.35855 20.0319ZM9.26851 17.9263C9.00313 18.0302 8.83809 18.005 8.87464 17.864C8.91627 17.7016 9.50694 17.4916 9.58571 17.61C9.6588 17.7196 9.57283 17.8053 9.26851 17.9263ZM10.7221 19.4083C10.3127 19.6911 10.0209 19.7354 10.0799 19.5063C10.0916 19.4604 10.186 19.3826 10.2905 19.3328C10.3944 19.2828 10.5487 19.1894 10.6341 19.1262C10.8416 18.971 10.9767 18.9611 11.0004 19.1007C11.0154 19.1927 10.9845 19.2277 10.7221 19.4083ZM11.6342 20.1886C11.1612 20.5142 10.8398 20.5789 10.9021 20.336C10.9141 20.2895 10.9971 20.2194 11.0863 20.1799C11.1756 20.1404 11.3775 20.017 11.5335 19.9058C11.7465 19.7543 11.8424 19.7156 11.9112 19.7507C12.0619 19.8256 11.9846 19.9478 11.6342 20.1886ZM12.2183 21.4948C12.1566 21.4508 12.1688 21.3196 12.2722 20.8907C12.4118 20.3126 12.4869 20.179 12.619 20.2731C12.6834 20.3189 12.6726 20.4453 12.5666 20.8952C12.4318 21.4691 12.3581 21.5946 12.2183 21.4948ZM17.2162 19.7321C17.0829 19.7681 16.6117 19.4347 16.6015 19.2984C16.5976 19.2448 16.624 19.1825 16.6605 19.1582C16.7118 19.1238 16.7875 19.1624 17.0071 19.3349C17.3147 19.5761 17.374 19.6902 17.2162 19.7321ZM19.2221 18.0182C19.1517 18.0919 19.1203 18.0796 18.7402 17.8253C18.4107 17.6049 18.337 17.5384 18.3529 17.4755L18.3535 17.4758C18.364 17.4332 18.3966 17.3883 18.4245 17.376C18.4987 17.3449 18.9774 17.6195 19.1502 17.7915C19.2739 17.9158 19.285 17.9517 19.2221 18.0182ZM20.1464 17.2113C20.0784 17.3071 19.958 17.2511 19.8223 17.0618C19.7711 16.9902 19.4962 16.7554 19.2104 16.54C18.9238 16.3241 18.6767 16.1369 18.6608 16.1246C18.6003 16.0764 18.7474 15.944 18.8294 15.9733C19.0888 16.0671 19.2407 16.1671 19.6334 16.5068C20.1117 16.9204 20.2339 17.0885 20.1464 17.2113ZM20.2013 13.6532C20.2896 13.7161 21.025 13.8964 21.211 13.9006C21.3715 13.9042 21.4302 13.9536 21.4024 14.0618C21.3691 14.1915 21.1331 14.2001 20.646 14.0887C20.1258 13.9707 19.9514 13.8865 19.9413 13.7503C19.9317 13.6215 20.079 13.566 20.2013 13.6532ZM14.9469 20.879C15.0173 20.9611 15.02 21.0051 14.961 21.0671C14.8613 21.1722 14.7277 21.1009 14.6241 20.8883C14.4665 20.563 14.2718 19.8061 14.3266 19.7291C14.3787 19.656 14.4348 19.6647 14.5378 19.7603C14.5639 19.7851 14.6462 20.0227 14.7208 20.2886C14.7948 20.5543 14.8966 20.8203 14.9469 20.879ZM20.7835 11.2642C20.6847 11.4029 20.206 11.3025 20.1779 11.1363C20.1587 11.0216 20.2636 10.9892 20.4972 11.0362C20.762 11.0908 20.8542 11.1644 20.7835 11.2642ZM20.8333 10.0777C21.2202 10.0852 21.2631 10.0966 21.2796 10.1946C21.3038 10.3362 21.2475 10.3548 20.7946 10.3596C20.4217 10.3635 20.3313 10.3431 20.3163 10.2515C20.2938 10.1203 20.443 10.07 20.8333 10.0777ZM19.4851 8.46959C19.5396 8.46629 19.867 8.34349 20.2129 8.19612C20.8881 7.91127 21.004 7.88192 21.0684 7.97986C21.1421 8.09009 21.0333 8.16407 20.3936 8.43604C19.5887 8.7796 19.3239 8.83411 19.2952 8.66338C19.2811 8.58161 19.3832 8.47738 19.4851 8.46959ZM18.7387 6.83746C18.8423 6.76528 18.9585 6.66074 18.9978 6.60563C19.0544 6.52596 19.0846 6.52146 19.1508 6.58466C19.2188 6.64906 19.2146 6.69339 19.1283 6.83417C19.0663 6.93511 18.9519 7.04264 18.8495 7.09656C18.6674 7.1921 18.5011 7.16275 18.5317 7.04144C18.5425 7.0022 18.6347 6.91085 18.7387 6.83746ZM17.9311 5.87359C17.8479 6.27585 17.5612 6.62091 17.5441 6.33845C17.5355 6.18629 17.7008 5.58963 17.7634 5.548C17.9018 5.45634 17.9839 5.61689 17.9311 5.87359ZM16.6465 7.39938C16.9367 7.48414 17.0173 7.52937 17.2299 7.72376C17.5238 7.99274 17.8248 8.51152 17.9904 9.0324C18.1501 9.5362 18.3082 10.6786 18.2948 11.23C18.2504 13.0146 17.2946 15.4009 16.0858 16.7476C15.1554 17.7843 14.1412 18.3591 13.1243 18.4256C12.4986 18.4666 11.7621 18.1449 11.373 17.663C11.036 17.2436 10.8168 16.6143 10.6508 15.5879C10.3193 13.5349 10.9794 11.2711 12.4091 9.55537C13.5008 8.24674 14.4354 7.56921 15.4418 7.35984C15.9219 7.2598 16.1963 7.26878 16.6465 7.39938ZM15.1827 5.24668C15.3259 5.22271 15.3282 5.26315 15.2132 5.96973C15.1201 6.54483 15.0566 6.68471 14.9182 6.6215C14.8631 6.59634 14.8586 6.44688 14.9002 6.09853C14.9769 5.45664 15.0386 5.27004 15.1827 5.24668ZM12.4354 6.82279C12.5025 6.8117 12.5609 6.88119 12.7095 7.15197C12.8604 7.42753 12.8832 7.5108 12.8272 7.56981C12.723 7.67973 12.6325 7.61234 12.4747 7.30892C12.3159 7.0022 12.3024 6.84525 12.4354 6.82279ZM11.8268 7.89749C11.8729 7.98435 11.9613 8.13322 12.0227 8.22787C12.1125 8.36595 12.12 8.41627 12.0562 8.48277C11.9544 8.5894 11.8789 8.54357 11.6995 8.26591C11.5353 8.01431 11.4811 7.83728 11.5413 7.75282C11.6063 7.66146 11.7375 7.72766 11.8268 7.89749ZM10.3768 8.87125C10.4421 8.8437 10.5125 8.9069 10.8341 9.28101C11.3433 9.87437 11.367 9.9154 11.2721 10.0151C11.2292 10.0604 11.1645 10.0804 11.1283 10.0598C11.0926 10.0382 10.8875 9.80907 10.6724 9.54908C10.2845 9.08092 10.2222 8.93655 10.3768 8.87125ZM9.2116 12.3745C9.18734 12.2331 9.30116 12.1643 9.41948 12.2484C9.47189 12.2859 9.57882 12.3326 9.6561 12.353C9.76692 12.3817 9.80227 12.4132 9.81545 12.4901C9.83732 12.621 9.74686 12.6567 9.52581 12.6061C9.29936 12.5548 9.23347 12.5069 9.2116 12.3745ZM8.66047 13.7571C8.65598 13.7311 8.67605 13.6772 8.7051 13.6367C8.74195 13.5849 8.81653 13.587 8.9615 13.6433C9.07472 13.6868 9.30925 13.7646 9.48447 13.8164C9.73368 13.891 9.80527 13.9297 9.81605 13.9956C9.84211 14.1462 9.66269 14.1645 9.26312 14.054C8.88512 13.9491 8.67545 13.8458 8.66047 13.7571ZM8.09586 15.4033C8.07669 15.3446 8.08298 15.2793 8.11144 15.2593C8.13959 15.2383 8.41396 15.2826 8.72218 15.3569C9.02979 15.4309 9.39491 15.4956 9.53359 15.5004C9.75524 15.5079 9.787 15.5208 9.80257 15.6115C9.84091 15.8389 9.44074 15.8442 8.56133 15.6277C8.08538 15.5109 8.14079 15.5372 8.09586 15.4033Z" fill="#FDA7DF"/>
<path d="M11.0919 16.2337C11.3543 17.3282 11.7859 17.8505 12.6105 18.0722C13.0763 18.1965 13.7598 18.0557 14.4053 17.7029C15.5807 17.0598 16.4544 16.0321 17.1424 14.4827C17.7091 13.207 18.005 11.9678 17.9778 10.9869C17.9592 10.2935 17.7498 9.21458 17.547 8.77217C17.2328 8.08206 17.0717 7.91523 16.4807 7.66872C15.7091 7.34732 14.4598 7.8709 13.3402 8.98394C12.1439 10.1737 11.3768 11.5296 11.0476 13.0362C10.8056 14.1439 10.8188 15.0937 11.0919 16.2337Z" fill="#1289A7"/>
<path opacity="0.2" d="M4.50453 16.9774C4.50453 16.9774 6.88727 22.3198 18.863 23.5161C30.8384 24.7124 36.5039 16.9774 36.5039 16.9774C36.5039 16.9774 36.0034 31.1301 21.4419 32.3599C6.88038 33.5898 4.459 18.5403 4.50453 16.9774Z" fill="black"/>
<path d="M20.3931 8.43595C21.0329 8.16398 21.1416 8.0903 21.0679 7.97977C21.0035 7.88213 20.8876 7.91148 20.2125 8.19603C19.8665 8.3434 19.5388 8.4659 19.4846 8.4695C19.3831 8.47729 19.2809 8.58152 19.2947 8.66329C19.3235 8.83402 19.5885 8.77951 20.3931 8.43595Z" fill="#1B1464"/>
<path d="M12.4746 7.3089C12.6328 7.61262 12.7229 7.67971 12.8272 7.56978C12.8832 7.51077 12.8604 7.42751 12.7095 7.15194C12.5612 6.88117 12.5025 6.81168 12.4354 6.82276C12.3024 6.84523 12.3159 7.00218 12.4746 7.3089Z" fill="#1B1464"/>
<path d="M9.78247 28.5729C10.3998 29.1336 11.9879 30.2692 12.7157 30.6705C15.2713 32.0804 18.0153 32.7612 20.8674 32.6935C25.3417 32.5869 29.3877 30.7137 32.4827 27.3149C32.9488 26.8039 34.1352 25.1374 34.4587 24.541C35.4352 22.7408 36.0148 21.0662 36.3101 19.1953C37.1602 13.8029 35.2471 8.44261 31.1597 4.76322C30.546 4.21029 29.19 3.22904 28.4828 2.82438C21.754 -1.02125 13.2884 0.462308 8.29412 6.36299C6.28429 8.73645 4.96128 11.774 4.60694 14.8285C4.00968 19.9624 5.93864 25.084 9.78247 28.5729ZM8.94888 6.07275C11.3559 3.53096 14.3053 1.89944 17.6031 1.28541C21.1136 0.63244 24.5498 1.14373 27.8197 2.80521C28.6686 3.23623 30.6664 4.67486 31.3562 5.34969C32.3072 6.28092 33.2247 7.42512 33.8794 8.49593C36.2514 12.3757 36.8316 17.1052 35.4648 21.4142C33.8582 26.4822 29.8885 30.3309 24.7519 31.8003C23.8911 32.0468 22.3096 32.3134 21.4422 32.3596C18.3543 32.5216 15.4968 31.8605 12.7861 30.3557L12.7867 30.3563C12.2883 30.0796 10.761 29.0204 10.3378 28.6577C6.70572 25.5468 4.66055 20.9101 4.83428 16.1758C4.92444 13.6933 5.5145 11.4987 6.69913 9.23456C7.12296 8.42404 8.33455 6.72093 8.94888 6.07275Z" fill="#1B1464"/>
<path d="M7.80038 19.6683C8.2329 20.5153 8.70077 21.1456 9.30282 21.6913C11.0973 23.3171 13.6472 23.7296 16.1368 22.7974C21.2363 20.8868 24.5482 14.3655 23.0925 9.10037C22.7854 7.99122 22.2334 6.927 21.5463 6.12157C21.138 5.64352 20.1789 4.91777 19.5517 4.61255C16.4564 3.10533 12.3757 4.45051 9.6931 7.86182C8.09841 9.88962 7.15191 12.1834 6.94045 14.5323C6.77301 16.3864 7.08901 18.2755 7.80038 19.6683ZM10.4132 7.47933C11.7344 6.04639 13.2683 5.05825 14.8842 4.59877C15.9218 4.30374 16.8737 4.23874 17.8283 4.40048C18.764 4.55744 19.5053 4.85996 20.2389 5.38114C23.1158 7.42811 23.935 11.7796 22.2487 16.0632C21.2306 18.6484 19.3364 20.8298 17.0684 22.0298C15.0139 23.1167 12.8612 23.2692 11.0335 22.4563C9.96327 21.9806 9.00329 21.1099 8.3587 20.0319C6.78409 17.3988 6.82872 13.7466 8.47642 10.3191C8.86221 9.51791 9.79524 8.14907 10.4132 7.47933Z" fill="#1B1464"/>
<path d="M11.6989 8.26588C11.8783 8.54384 11.9538 8.58966 12.0556 8.48273C12.1191 8.41594 12.112 8.36592 12.0221 8.22784C11.9607 8.13319 11.8723 7.98432 11.8262 7.89746C11.7369 7.72792 11.6058 7.66143 11.5408 7.75309C11.4809 7.83755 11.5351 8.01427 11.6989 8.26588Z" fill="#1B1464"/>
<path d="M11.2724 10.0152C11.3673 9.91541 11.3436 9.87438 10.8345 9.28102C10.5128 8.90691 10.4424 8.84371 10.3771 8.87126C10.2225 8.93656 10.2848 9.08063 10.673 9.54909C10.8881 9.80908 11.0932 10.0382 11.1289 10.0598C11.1648 10.0808 11.2292 10.0604 11.2724 10.0152Z" fill="#1B1464"/>
<path d="M9.81629 13.9955C9.8052 13.9296 9.73392 13.8907 9.48471 13.8164C9.30949 13.7646 9.07496 13.6867 8.96174 13.6433C8.81677 13.587 8.74218 13.5849 8.70534 13.6367C8.67659 13.6771 8.65652 13.731 8.66071 13.7571C8.67569 13.8455 8.88536 13.9491 9.26366 14.0542C9.66293 14.1645 9.84235 14.1462 9.81629 13.9955Z" fill="#1B1464"/>
<path d="M9.80268 15.6118C9.7871 15.5211 9.75535 15.5082 9.5337 15.5007C9.39502 15.4959 9.0296 15.4312 8.72228 15.3572C8.41407 15.283 8.1397 15.2386 8.11154 15.2596C8.08309 15.2797 8.0768 15.345 8.09597 15.4037C8.1409 15.5376 8.08549 15.5112 8.56143 15.628C9.44085 15.8446 9.84102 15.8392 9.80268 15.6118Z" fill="#1B1464"/>
<path d="M9.81563 12.4902C9.80246 12.413 9.76711 12.3815 9.65629 12.3531C9.57871 12.3327 9.47208 12.286 9.41966 12.2485C9.30135 12.1643 9.18753 12.2332 9.21179 12.3746C9.23336 12.507 9.29955 12.5552 9.52599 12.6062C9.74704 12.6568 9.8375 12.6211 9.81563 12.4902Z" fill="#1B1464"/>
<path d="M12.6188 20.2731C12.4867 20.179 12.4115 20.3126 12.2719 20.8907C12.1689 21.3196 12.1563 21.4508 12.218 21.4948C12.3582 21.5946 12.4316 21.4688 12.5661 20.8952C12.6724 20.4453 12.6832 20.3189 12.6188 20.2731Z" fill="#1B1464"/>
<path d="M11.9113 19.7504C11.8421 19.7153 11.7465 19.7543 11.5336 19.9055C11.3775 20.0167 11.1756 20.1401 11.0864 20.1796C10.9971 20.2191 10.9145 20.2892 10.9022 20.3357C10.8402 20.5786 11.1616 20.5142 11.6342 20.1883C11.9847 19.9478 12.0619 19.8256 11.9113 19.7504Z" fill="#1B1464"/>
<path d="M17.007 19.3349C16.7874 19.1624 16.7119 19.1238 16.6604 19.1582C16.6242 19.1825 16.5978 19.2448 16.6014 19.2984C16.6116 19.4347 17.0827 19.768 17.216 19.7321C17.3739 19.6902 17.3146 19.576 17.007 19.3349Z" fill="#1B1464"/>
<path d="M18.8293 15.9736C18.7473 15.9442 18.6002 16.0766 18.6607 16.1248C18.6766 16.1371 18.924 16.3243 19.2103 16.5403C19.4961 16.7556 19.7711 16.9905 19.8223 17.062C19.9577 17.2513 20.0781 17.3071 20.1464 17.2115C20.2338 17.0887 20.1116 16.9207 19.6333 16.507C19.2409 16.1674 19.0887 16.0673 18.8293 15.9736Z" fill="#1B1464"/>
<path d="M10.6335 19.1261C10.5481 19.1896 10.3939 19.2827 10.2899 19.3327C10.1854 19.3825 10.091 19.4603 10.0794 19.5062C10.0204 19.735 10.3121 19.691 10.7216 19.4082C10.9839 19.2276 11.0148 19.1929 10.9995 19.1006C10.9762 18.9607 10.8411 18.9706 10.6335 19.1261Z" fill="#1B1464"/>
<path d="M19.1499 17.7918C18.9771 17.6199 18.4985 17.3452 18.4242 17.3763C18.3966 17.3886 18.3637 17.4332 18.3532 17.4761L18.3526 17.4758C18.3367 17.5387 18.4104 17.6052 18.7399 17.8256C19.12 18.0799 19.1514 18.0925 19.2218 18.0185C19.2847 17.9517 19.2736 17.9158 19.1499 17.7918Z" fill="#1B1464"/>
<path d="M26.5219 27.3131C27.2384 26.9208 28.7693 25.2782 28.6911 24.9843C28.6456 24.8151 28.5054 24.828 28.4158 25.0095C28.3122 25.2201 27.6619 25.9895 27.2842 26.349C27.121 26.5038 26.8167 26.7554 26.6073 26.9079C26.3982 27.0609 26.2182 27.2182 26.2086 27.2583C26.1763 27.3823 26.3431 27.4111 26.5219 27.3131Z" fill="#1B1464"/>
<path d="M30.3948 22.591C30.627 22.2001 30.6746 21.9266 30.5051 21.9539C30.4002 21.9704 29.882 22.8851 29.9216 22.9843C29.9944 23.1706 30.1073 23.0768 30.3948 22.591Z" fill="#1B1464"/>
<path d="M31.9858 18.8439C32.0547 18.7469 31.9852 18.6154 31.8762 18.6337C31.8205 18.6433 31.8016 18.675 31.807 18.7466C31.8181 18.8886 31.9158 18.9422 31.9858 18.8439Z" fill="#1B1464"/>
<path d="M9.58575 17.6099C9.50698 17.4916 8.91631 17.7016 8.87468 17.8639C8.83813 18.005 9.00317 18.0305 9.26855 17.9262C9.57257 17.8052 9.65854 17.7196 9.58575 17.6099Z" fill="#1B1464"/>
<path d="M21.4978 30.0835C21.6584 30.0376 21.8983 29.9774 22.031 29.9517C22.191 29.9196 22.2802 29.8741 22.2952 29.8166C22.3473 29.6153 22.0622 29.6126 21.4239 29.8094C21.1803 29.8843 21.0827 29.9568 21.0983 30.0499C21.1159 30.1548 21.2199 30.1634 21.4978 30.0835Z" fill="#1B1464"/>
<path d="M20.7947 10.3597C21.2473 10.3549 21.3039 10.336 21.2797 10.1946C21.2632 10.097 21.2204 10.0856 20.8334 10.0778C20.4428 10.07 20.2939 10.1203 20.3167 10.2515C20.3314 10.3432 20.4218 10.3636 20.7947 10.3597Z" fill="#1B1464"/>
<path d="M18.8493 7.09645C18.9517 7.04224 19.0664 6.93501 19.1281 6.83406C19.2144 6.69329 19.2186 6.64926 19.1506 6.58456C19.0844 6.52166 19.0542 6.52615 18.9975 6.60552C18.9583 6.66064 18.8421 6.76517 18.7385 6.83736C18.6342 6.91044 18.5423 7.0018 18.5315 7.04104C18.5009 7.16264 18.6672 7.192 18.8493 7.09645Z" fill="#1B1464"/>
<path d="M17.9313 5.87357C17.984 5.61687 17.9019 5.45632 17.7635 5.54798C17.7009 5.58961 17.5353 6.18597 17.5443 6.33843C17.5614 6.62089 17.848 6.27583 17.9313 5.87357Z" fill="#1B1464"/>
<path d="M10.651 15.5881C10.8166 16.6146 11.0359 17.2439 11.3732 17.6632C11.7623 18.1452 12.4991 18.4669 13.1245 18.4258C14.1414 18.3593 15.1556 17.7849 16.0859 16.7479C17.2948 15.4012 18.2506 13.0149 18.2949 11.2303C18.3084 10.6786 18.1503 9.53647 17.9906 9.03267C17.825 8.51179 17.524 7.99301 17.2301 7.72403C17.0175 7.52964 16.9369 7.48411 16.6466 7.39965C16.1965 7.26905 15.9218 7.26007 15.4419 7.36041C14.4355 7.56948 13.501 8.24701 12.4092 9.55594C10.9796 11.2713 10.3197 13.5352 10.651 15.5881ZM13.3408 8.98414C14.4604 7.8711 15.7097 7.34753 16.4813 7.66892C17.0723 7.91543 17.2337 8.08227 17.5476 8.77238C17.7501 9.21478 17.9598 10.2934 17.9783 10.9871C18.0053 11.968 17.7097 13.2072 17.143 14.4829C16.4549 16.0323 15.5812 17.06 14.4059 17.7031C13.7604 18.0559 13.0769 18.1967 12.6111 18.0724C11.7865 17.8504 11.3549 17.3281 11.0925 16.2339C10.8193 15.0939 10.8062 14.1441 11.0482 13.0367C11.3774 11.5295 12.1444 10.1736 13.3408 8.98414Z" fill="#1B1464"/>
<path d="M20.6459 14.0887C21.133 14.2001 21.3693 14.1914 21.4022 14.0617C21.4304 13.9536 21.3717 13.9039 21.2108 13.9006C21.0248 13.8964 20.2895 13.7161 20.2011 13.6532C20.0789 13.566 19.9316 13.6214 19.9408 13.7502C19.9513 13.8865 20.1257 13.9707 20.6459 14.0887Z" fill="#1B1464"/>
<path d="M14.9182 6.62146C15.0562 6.68466 15.12 6.54478 15.2132 5.96969C15.3282 5.2631 15.3258 5.22266 15.1826 5.24663C15.0389 5.27029 14.9772 5.4566 14.9005 6.09848C14.8586 6.44683 14.8634 6.596 14.9182 6.62146Z" fill="#1B1464"/>
<path d="M14.3268 19.7291C14.272 19.8061 14.4667 20.563 14.6243 20.8883C14.7279 21.1012 14.8615 21.1722 14.9612 21.0671C15.0202 21.0051 15.0175 20.961 14.9472 20.879C14.8968 20.82 14.7947 20.5543 14.721 20.2886C14.6464 20.0223 14.5644 19.7848 14.538 19.7602C14.435 19.6647 14.379 19.656 14.3268 19.7291Z" fill="#1B1464"/>
<path d="M20.178 11.1363C20.2062 11.3022 20.6848 11.4028 20.7836 11.2642C20.8546 11.1644 20.7621 11.0907 20.4976 11.0365C20.264 10.9892 20.1588 11.0215 20.178 11.1363Z" fill="#1B1464"/>
<g opacity="0.5">
<path d="M14.0486 6.06092C14.6617 6.648 15.7379 6.71419 16.5361 6.79057C17.8831 6.91967 21.8177 6.19062 22.4224 5.97735C23.1743 5.71257 24.4622 5.25549 24.6758 4.37099C24.9385 3.28371 23.8458 2.89342 23.005 2.77122C22.0405 2.63074 21.0701 2.51153 20.0951 2.47678C19.1312 2.44233 18.1644 2.50104 17.2161 2.68256C16.3235 2.85359 15.3578 3.13664 14.623 3.69047C13.9117 4.22722 13.2419 5.28874 14.0486 6.06092Z" fill="white"/>
<path d="M12.3975 6.41055C12.3382 6.29014 12.2519 6.17542 12.1486 6.08916C12.0737 6.02656 12.0039 5.96725 11.9171 5.92651C11.7374 5.84265 11.6622 5.82228 11.4624 5.80311C11.194 5.77735 10.9262 5.87739 10.7037 6.03225C10.6 6.064 10.4988 6.10863 10.4036 6.15685C10.2748 6.22185 10.1591 6.31111 10.0486 6.40306C9.89736 6.52886 9.76617 6.70768 9.68829 6.89938C9.53822 7.09976 9.45346 7.34957 9.44537 7.59877C9.42171 8.33471 10.1714 8.97301 10.8924 8.73548C10.9032 8.73189 10.9116 8.72589 10.922 8.722C10.9622 8.7232 11.0026 8.72799 11.0415 8.7244C11.2776 8.70373 11.436 8.6624 11.6493 8.56565C11.9159 8.44494 12.1243 8.22598 12.2864 7.98786C12.4505 7.74674 12.5281 7.46159 12.5563 7.17524C12.5823 6.91166 12.5134 6.64538 12.3975 6.41055Z" fill="white"/>
<path d="M28.0365 5.0231C28.032 4.92426 28.0026 4.8323 27.9484 4.74694C27.9098 4.69692 27.8708 4.6466 27.8322 4.59658C27.8166 4.581 27.7978 4.57112 27.781 4.55704C27.7328 4.49474 27.6756 4.44142 27.6037 4.40278C27.5447 4.37792 27.4854 4.35276 27.4263 4.3279C27.2946 4.29256 27.1631 4.29256 27.0313 4.3279C26.9723 4.35276 26.913 4.37792 26.8536 4.40278C26.7419 4.46898 26.6533 4.55764 26.5871 4.66936L26.5868 4.67026C26.5619 4.72957 26.5367 4.78857 26.5119 4.84788C26.5116 4.84848 26.5113 4.84908 26.5113 4.84968C26.511 4.85028 26.511 4.85087 26.5107 4.85147C26.499 4.93115 26.4849 5.03029 26.4822 5.05785C26.4822 5.05845 26.4822 5.05905 26.4819 5.05964C26.4819 5.06054 26.4819 5.06174 26.4819 5.06294C26.4819 5.09619 26.4969 5.17706 26.4957 5.16867C26.4954 5.16717 26.502 5.24116 26.5101 5.27381C26.5107 5.2759 26.5113 5.2783 26.5122 5.2804C26.5233 5.31035 26.5559 5.38433 26.5502 5.37055C26.5535 5.37864 26.5751 5.43076 26.588 5.46011C26.5886 5.46131 26.5889 5.46251 26.5895 5.46341C26.5907 5.4655 26.5919 5.4679 26.5934 5.47C26.594 5.4709 26.5946 5.47179 26.5952 5.47269C26.5952 5.47269 26.5958 5.47329 26.5961 5.47389L26.5967 5.47449C26.6353 5.52451 26.6739 5.57483 26.7129 5.62485C26.7144 5.62695 26.7162 5.62875 26.718 5.63054C26.7195 5.63204 26.721 5.63384 26.7228 5.63504C26.7722 5.67817 26.8252 5.71711 26.8782 5.75545C26.8821 5.75844 26.8863 5.76084 26.8908 5.76264C26.9028 5.76803 27.0561 5.83272 27.0687 5.83782C27.0693 5.83812 27.0699 5.83842 27.0705 5.83842C27.0714 5.83871 27.0726 5.83931 27.0735 5.83961C27.0759 5.84051 27.0783 5.84111 27.0807 5.84141C27.1481 5.85429 27.2164 5.86507 27.285 5.86867C27.2877 5.86897 27.2901 5.86867 27.2928 5.86837C27.3257 5.86537 27.4099 5.85279 27.3928 5.85489C27.3955 5.85459 27.4605 5.8471 27.4934 5.84141C27.4946 5.84111 27.4958 5.84081 27.497 5.84051C27.4982 5.84021 27.4994 5.83991 27.5006 5.83931C27.5623 5.81775 27.6216 5.78899 27.6815 5.76293C27.7681 5.71621 27.8376 5.65241 27.89 5.57154C27.9556 5.49965 27.9999 5.41548 28.023 5.31874C28.0542 5.22079 28.0586 5.12195 28.0365 5.0231Z" fill="white"/>
<path d="M26.5088 4.85964C26.5091 4.85724 26.5097 4.85514 26.5103 4.85275L26.5106 4.85155C26.5265 4.74462 26.5372 4.67303 26.5088 4.85964Z" fill="white"/>
</g>
</g>
<defs>
<filter id="filter0_d_2125_2061" x="0.5" y="0.69812" width="40.0083" height="40" filterUnits="userSpaceOnUse" color-interpolation-filters="sRGB">
<feFlood flood-opacity="0" result="BackgroundImageFix"/>
<feColorMatrix in="SourceAlpha" type="matrix" values="0 0 0 0 0 0 0 0 0 0 0 0 0 0 0 0 0 0 127 0" result="hardAlpha"/>
<feOffset dy="4"/>
<feGaussianBlur stdDeviation="2"/>
<feComposite in2="hardAlpha" operator="out"/>
<feColorMatrix type="matrix" values="0 0 0 0 0 0 0 0 0 0 0 0 0 0 0 0 0 0 0.25 0"/>
<feBlend mode="normal" in2="BackgroundImageFix" result="effect1_dropShadow_2125_2061"/>
<feBlend mode="normal" in="SourceGraphic" in2="effect1_dropShadow_2125_2061" result="shape"/>
</filter>
</defs>
</svg>
