<svg width="37" height="37" viewBox="0 0 37 37" fill="none" xmlns="http://www.w3.org/2000/svg">
<g filter="url(#filter0_d_2125_1994)">
<path d="M8.72078 17.1737C9.77533 17.4227 11.0178 17.4085 12.3002 17.133C13.5299 16.8686 14.3514 16.5035 15.4559 15.7309C16.3954 15.0741 16.7396 14.7384 17.2515 13.9817C17.4309 13.716 17.657 13.2611 17.6212 13.2379C17.6104 13.231 17.5056 13.283 17.3874 13.3535C16.8259 13.6885 15.6609 13.863 14.6977 13.757C12.5698 13.5227 10.7143 12.7011 9.36958 11.3971C8.29932 10.3587 7.16083 8.5869 6.95795 7.64228C6.93118 7.51767 6.89281 7.41984 6.87222 7.42421C6.85162 7.42859 6.71002 7.65619 6.55735 7.92987C5.46726 9.8863 4.90342 11.8471 4.78241 14.104C4.74483 14.8087 4.77032 14.8676 5.33029 15.3486C6.27903 16.1634 7.71359 16.9358 8.72078 17.1737Z" fill="#FF3838"/>
<path d="M14.4236 26.3139C15.8066 25.2068 16.3839 24.5673 17.3262 23.1006C18.3859 21.4497 18.9829 19.9258 19.1549 18.4328C19.323 16.9681 19.2211 15.6708 18.8681 14.7957C18.6802 14.3281 18.3957 13.8081 18.1907 13.5547L18.0386 13.3676L18.019 13.7635C17.9616 14.9597 17.5599 16.1491 16.9475 16.9401C16.6506 17.3219 15.5978 18.406 15.1455 18.7951C13.5351 20.1774 11.4762 21.055 8.93375 21.4425C7.75897 21.6212 7.31021 21.6539 6.72758 21.6042C6.65369 21.5978 6.65034 21.6114 6.69875 21.7108C6.72964 21.7736 6.87433 22.0069 7.02057 22.2301C8.39721 24.3335 10.4371 26.0979 12.705 27.1476L13.0696 27.317L13.2601 27.2045C13.3652 27.1435 13.8886 26.7421 14.4236 26.3139ZM10.0828 23.9818C10.0666 23.943 10.0815 23.893 10.1168 23.8699C10.2023 23.8142 10.3606 23.9144 10.3109 23.9924C10.2589 24.0722 10.1178 24.0653 10.0828 23.9818ZM12.4458 25.3868C11.6881 25.0694 11.4113 24.8688 11.5797 24.7581C11.6106 24.7385 11.782 24.797 11.972 24.893C12.1584 24.987 12.5428 25.1546 12.8271 25.2663C13.3309 25.4633 13.4321 25.5382 13.3067 25.6203C13.221 25.6757 12.9803 25.6105 12.4458 25.3868Z" fill="#FF3838"/>
<path d="M13.8753 4.13537C13.7484 5.04497 13.7057 6.14329 13.7667 6.93653C13.7793 7.10156 13.8643 7.55624 13.9544 7.94886C14.0939 8.55158 14.1544 8.73592 14.3439 9.14013C14.6467 9.78584 14.898 10.207 15.3179 10.7776C15.7278 11.3345 16.0105 11.6457 16.4466 12.0198C16.7954 12.3203 17.6247 12.8936 17.6512 12.853C17.6603 12.8388 17.6003 12.7134 17.5181 12.5749C17.3866 12.3525 17.3498 12.2307 17.202 11.5435C16.7743 9.54794 16.9072 7.81653 17.6268 6.00298C18.0892 4.83695 18.5838 3.97317 19.2856 3.10501C19.6898 2.60451 20.6033 1.6671 20.9171 1.43049L21.188 1.22684L20.9581 1.18101C19.9934 0.990752 18.5415 0.918662 17.3755 1.0044C16.4705 1.07134 14.4425 1.4946 14.4675 1.61097C14.4719 1.63157 14.4302 1.77085 14.3743 1.92044C14.2396 2.2814 13.9626 3.51051 13.8753 4.13537Z" fill="#FF3838"/>
<path d="M30.3053 21.7259C30.5291 21.3403 30.544 21.2965 30.5069 21.1242C30.4166 20.7046 29.6643 19.061 29.18 18.2255C28.2536 16.6264 27.0881 15.405 25.3487 14.2109C24.8104 13.8407 24.4376 13.6564 23.7481 13.419C22.3542 12.9383 21.1745 12.7813 19.7029 12.8799C18.9725 12.9288 18.1494 13.1342 18.5366 13.1713C18.8182 13.1983 19.8762 13.8057 20.4495 14.2694C21.1053 14.7992 21.7577 15.6141 22.3949 16.7013C22.9852 17.7075 23.3529 18.5169 23.7159 19.6099C23.919 20.2206 24.3974 22.4532 24.4602 23.0825C24.5859 24.3433 24.5081 25.5912 24.2259 26.8092C24.126 27.242 24.1232 27.2412 24.703 26.9488C26.7174 25.9318 28.388 24.4854 29.7513 22.5791C29.924 22.3392 30.173 21.9551 30.3053 21.7259ZM27.3772 21.8873C27.9421 21.2143 28.0806 21.1057 28.1231 21.3029C28.1458 21.4077 27.5073 22.1549 27.3932 22.1572C27.2632 22.16 27.2557 22.0326 27.3772 21.8873Z" fill="#FF3838"/>
<path d="M23.0414 6.73937C21.5101 7.51638 20.721 8.17985 19.548 9.67698C18.9254 10.471 18.5068 11.2174 18.2524 11.9872C18.099 12.4501 18.0246 12.9519 18.1119 12.9333C18.1234 12.9308 18.2074 12.8419 18.2985 12.7348C18.5356 12.4575 19.3678 11.8021 19.8299 11.5284C20.4354 11.171 21.0448 10.9318 21.8757 10.7266C23.1328 10.4169 24.475 10.2496 25.6948 10.2511C26.6747 10.2524 28.6052 10.4316 30.0333 10.6543C30.9385 10.7951 31.663 10.9009 31.6882 10.8955C31.7266 10.8873 31.5103 10.2308 31.2694 9.62678C30.6713 8.12785 29.7696 6.6714 28.737 5.53651L28.5156 5.29321L27.8397 5.38281C27.3964 5.44151 26.7311 5.57307 25.9057 5.76488C24.4902 6.09391 23.9547 6.27645 23.0414 6.73937Z" fill="#FF3838"/>
<path d="M10.1856 20.9178C12.778 20.2961 14.4512 19.2992 16.2993 17.2773C17.0086 16.5006 17.2957 15.9924 17.5361 15.0874C17.6507 14.6536 17.8137 13.6948 17.7905 13.5866C17.7879 13.5743 17.7261 13.6701 17.6535 13.7996C17.3564 14.3307 16.9164 14.8945 16.5114 15.2648C16.0617 15.6762 14.9911 16.4035 14.4075 16.6944C13.752 17.0217 13.2319 17.1968 12.3509 17.386C10.6043 17.7614 9.15118 17.6918 7.83118 17.1692C6.94295 16.8178 5.76223 16.1033 5.13223 15.5356C4.96694 15.3871 4.81916 15.2668 4.80371 15.2686C4.77642 15.2715 4.80036 15.7238 4.85932 16.3209C4.87632 16.4929 5.00633 17.1442 5.1482 17.7673C5.35288 18.6658 5.45173 19.0193 5.6232 19.4704C5.93112 20.2765 6.38374 21.2082 6.50295 21.2793C6.55573 21.311 6.83172 21.3413 7.11879 21.347C7.85461 21.3622 9.00726 21.2005 10.1856 20.9178Z" fill="#5758BB"/>
<path d="M9.89106 11.5102C10.3414 11.9049 10.692 12.1456 11.2435 12.4376C11.9157 12.7941 12.468 12.9998 13.3534 13.2246C14.7383 13.576 15.6767 13.618 16.6216 13.3721C17.0361 13.2635 17.3404 13.1425 17.4068 13.0585C17.4143 13.0498 17.1952 12.8868 16.9207 12.6966C16.3363 12.2918 15.824 11.8356 15.4535 11.3917C14.5246 10.2777 13.9216 9.10679 13.6677 7.92505C13.3408 6.40449 13.4105 4.68801 13.8796 2.69372C13.9594 2.35491 14.058 1.98674 14.0992 1.87474C14.1894 1.62964 14.2177 1.62861 13.5176 1.90229C11.0738 2.85824 8.94412 4.5065 7.37207 6.65758C7.11152 7.01545 7.0366 7.14752 7.07728 7.17971C7.10766 7.20391 7.18026 7.4091 7.23845 7.63593C7.5165 8.71623 8.73764 10.4989 9.89106 11.5102Z" fill="#5758BB"/>
<path d="M23.9085 27.0978C23.9015 27.0627 23.9309 26.8689 23.9731 26.6655C24.2517 25.3277 24.3137 24.2889 24.1891 23.0531C24.125 22.421 23.6814 20.3544 23.4752 19.728C23.1274 18.6739 22.7829 17.9136 22.192 16.9C21.4207 15.5751 20.8349 14.8777 19.9274 14.2026C19.5134 13.8939 18.9315 13.5675 18.5853 13.4498C18.4073 13.3885 18.3952 13.3898 18.4444 13.4578C19.0116 14.2425 19.4138 15.3944 19.4815 16.4255C19.5726 17.8168 19.3666 19.4257 18.9614 20.4779C18.2539 22.3172 17.1777 24.0512 15.9203 25.3795C15.6232 25.6933 14.3104 26.7891 13.7097 27.2242C13.5481 27.3421 13.4157 27.4435 13.417 27.4489C13.4183 27.4554 13.565 27.5141 13.7427 27.5805C15.7437 28.3284 18.0276 28.5908 20.2327 28.3274C21.2095 28.2105 22.6379 27.8446 23.5375 27.4816C23.8101 27.3709 23.9345 27.2427 23.9085 27.0978ZM18.507 26.2904C18.3466 26.2538 18.2814 26.1338 18.3852 26.0666C18.4184 26.045 18.4815 26.0373 18.524 26.0489C18.5675 26.061 18.715 26.0702 18.8515 26.0687C19.1007 26.0666 19.1849 26.1125 19.1442 26.2265C19.1172 26.3017 18.7292 26.3408 18.507 26.2904ZM20.2137 26.0525C20.1952 26.0028 20.1859 25.9595 20.1933 25.9572C20.2006 25.9541 20.6506 25.8504 21.1931 25.7265C21.9971 25.5427 22.2386 25.4732 22.5017 25.3463C22.8583 25.1743 22.9214 25.165 22.9461 25.2801C22.969 25.3872 22.9394 25.4091 22.5167 25.5983C22.2543 25.7149 21.9173 25.8182 21.3519 25.9541C20.4498 26.1709 20.2636 26.1871 20.2137 26.0525Z" fill="#5758BB"/>
<path d="M23.4248 10.688C21.4398 10.9812 20.2591 11.4366 19.1098 12.3506L18.6016 12.7546L19.2238 12.6781C19.566 12.6369 20.1121 12.5968 20.4375 12.5893C21.5711 12.5648 22.6434 12.75 23.9217 13.1918C24.6122 13.4302 25.0571 13.6634 25.6961 14.1217C27.5735 15.4682 28.6832 16.7025 29.6626 18.5343C29.972 19.1133 30.3562 19.9411 30.5698 20.4913C30.6566 20.7142 30.7349 20.9016 30.7447 20.9081C30.7756 20.9279 31.2313 19.8939 31.412 19.395C31.946 17.9179 32.2462 16.2107 32.2312 14.7414C32.2204 13.7067 32.1118 12.615 31.9395 11.8136C31.8208 11.2613 31.8067 11.2214 31.7166 11.1957C31.5492 11.1478 29.2233 10.8087 28.4687 10.7222C26.2976 10.4732 24.9361 10.464 23.4248 10.688ZM30.9535 16.8552C30.9771 16.9653 30.8685 17.1831 30.6167 17.5258C30.395 17.8286 30.2802 17.8948 30.2354 17.7454C30.2189 17.6916 30.3139 17.5078 30.5119 17.211C30.8031 16.7728 30.9161 16.6819 30.9535 16.8552ZM31.1823 15.6005C31.2346 15.6804 31.1566 15.8212 31.0595 15.8225C30.9583 15.825 30.9074 15.7277 30.9638 15.6405C31.0186 15.5555 31.1386 15.5341 31.1823 15.6005Z" fill="#5758BB"/>
<path d="M19.5633 3.19329C19.1758 3.65208 18.5203 4.66493 18.2683 5.19427C17.378 7.06626 17.1089 8.51807 17.2819 10.5139C17.3324 11.0914 17.5881 12.2039 17.7245 12.4397L17.8239 12.6117L17.9243 12.2183C18.164 11.2701 18.7438 10.214 19.5798 9.19803C20.676 7.86593 21.4379 7.24905 22.9031 6.50551C23.8485 6.02586 24.3371 5.86263 25.9148 5.50039C26.7248 5.31424 27.5201 5.15385 27.7922 5.12192C28.0512 5.09051 28.2675 5.0591 28.2729 5.05086C28.2783 5.04262 28.0955 4.8624 27.8671 4.65051C26.1792 3.08284 24.1069 1.94744 21.9461 1.40574L21.5437 1.30457L21.2072 1.54967C20.8573 1.80558 20.0749 2.58646 19.5633 3.19329Z" fill="#5758BB"/>
<path opacity="0.2" d="M4.73979 15.2706C4.73979 15.2706 6.78789 19.8627 17.0814 20.891C27.3749 21.9193 32.2447 15.2706 32.2447 15.2706C32.2447 15.2706 31.8145 27.4353 19.2981 28.4927C6.78196 29.5499 4.70066 16.6138 4.73979 15.2706Z" fill="black"/>
<path d="M30.4838 21.9477C32.0605 19.3741 32.7585 16.2272 32.4387 13.1333C32.3808 12.5705 31.9292 10.6336 31.7224 10.0623C31.1838 8.56981 30.5093 7.33606 29.5639 6.11467C28.3796 4.58562 26.9417 3.36114 25.2051 2.40416C23.4459 1.43508 21.3373 0.833396 19.3005 0.719599C15.4927 0.506937 11.6898 1.88203 8.95064 4.46229C5.71076 7.51371 4.1019 11.8535 4.58412 16.2372C4.64205 16.7637 4.99091 18.3958 5.15131 18.8952C5.57869 20.2201 6.11498 21.3511 6.81655 22.4057C8.43237 24.8351 10.6761 26.654 13.364 27.713C15.4013 28.5163 17.3495 28.81 19.6435 28.6607C20.3849 28.6123 22.4714 28.163 23.1951 27.8966C24.838 27.291 26.0627 26.5935 27.4097 25.4986C28.6136 24.5192 29.6205 23.356 30.4838 21.9477ZM31.9395 11.8141C32.1117 12.6155 32.2204 13.7072 32.2312 14.7419C32.2461 16.2112 31.9459 17.9184 31.412 19.3955C31.2312 19.8944 30.7755 20.9281 30.7446 20.9086C30.7346 20.9021 30.6563 20.7147 30.5698 20.4917C30.3564 19.9413 29.972 19.1138 29.6625 18.5348C28.6834 16.703 27.5737 15.4687 25.6961 14.1222C25.0571 13.6639 24.6122 13.4307 23.9217 13.1922C22.6436 12.7504 21.5711 12.5653 20.4375 12.5898C20.112 12.5973 19.5662 12.6374 19.2238 12.6786L18.6015 12.7551L19.1098 12.3511C20.2591 11.4369 21.4395 10.9817 23.4248 10.6884C24.9361 10.4645 26.2975 10.4735 28.4679 10.7229C29.2225 10.8095 31.5487 11.1485 31.7158 11.1964C31.8064 11.2219 31.8208 11.2618 31.9395 11.8141ZM27.8394 5.38271L28.5153 5.29311L28.7367 5.53642C29.7694 6.67104 30.671 8.12775 31.2691 9.62668C31.51 10.2307 31.7263 10.8872 31.6879 10.8954C31.6627 10.9009 30.9382 10.795 30.033 10.6542C28.6049 10.4315 26.6744 10.2526 25.6945 10.251C24.4744 10.2495 23.1323 10.4168 21.8754 10.7265C21.0446 10.9317 20.4352 11.1709 19.8296 11.5283C19.3675 11.8017 18.5351 12.4572 18.2982 12.7347C18.2071 12.8418 18.1232 12.9307 18.1116 12.9332C18.0243 12.952 18.0987 12.4502 18.2521 11.9871C18.5065 11.2173 18.9251 10.4709 19.5477 9.67689C20.7207 8.18001 21.5098 7.51628 23.0412 6.73927C23.9544 6.27636 24.4899 6.09382 25.9054 5.76453C26.7308 5.57298 27.3961 5.44141 27.8394 5.38271ZM21.9459 1.40599C24.1068 1.94768 26.1791 3.08308 27.867 4.65075C28.0954 4.86239 28.2782 5.04261 28.2727 5.05111C28.2673 5.05934 28.0513 5.09075 27.7921 5.12216C27.5199 5.15409 26.7246 5.31448 25.9147 5.50063C24.337 5.86262 23.8483 6.02585 22.9029 6.50575C21.4374 7.2493 20.6756 7.86617 19.5796 9.19827C18.7439 10.2142 18.1641 11.2703 17.9241 12.2185L17.8237 12.6119L17.7244 12.4399C17.5876 12.2041 17.3322 11.0916 17.2818 10.5141C17.1085 8.51832 17.3778 7.0665 18.2681 5.19451C18.5199 4.66517 19.1757 3.65232 19.5631 3.19353C20.0747 2.58695 20.8571 1.80582 21.207 1.55016L21.5435 1.30506L21.9459 1.40599ZM17.3755 1.00461C18.5418 0.918872 19.9933 0.990962 20.9581 1.18122L21.188 1.22705L20.9171 1.4307C20.6033 1.66731 19.6898 2.60472 19.2856 3.10522C18.5835 3.97338 18.0892 4.83716 17.6268 6.00319C16.9072 7.817 16.7743 9.54815 17.202 11.5437C17.3498 12.2309 17.3866 12.3527 17.5181 12.5751C17.6003 12.7136 17.6603 12.839 17.6512 12.8532C17.6247 12.8938 16.7954 12.3202 16.4466 12.02C16.0107 11.6457 15.728 11.3347 15.3179 10.7778C14.898 10.2073 14.6467 9.78605 14.3439 9.14034C14.1544 8.73613 14.0942 8.55204 13.9544 7.94907C13.8643 7.55645 13.7793 7.10177 13.7667 6.93674C13.7059 6.14351 13.7484 5.04518 13.8753 4.13558C13.9624 3.51072 14.2394 2.28161 14.374 1.92065C14.4299 1.77106 14.4716 1.63178 14.4672 1.61118C14.4423 1.49481 16.4705 1.07155 17.3755 1.00461ZM7.37164 6.6574C8.94395 4.50658 11.0734 2.85806 13.5172 1.90211C14.2172 1.62843 14.1889 1.6292 14.0988 1.87456C14.0576 1.98656 13.959 2.35472 13.8792 2.69354C13.4101 4.68783 13.3403 6.40405 13.6673 7.92487C13.9214 9.10635 14.5241 10.2775 15.453 11.3916C15.8238 11.8357 16.3361 12.2916 16.9203 12.6964C17.1948 12.8866 17.4139 13.0496 17.4064 13.0584C17.34 13.1423 17.0357 13.2633 16.6211 13.372C15.6763 13.6181 14.7381 13.5761 13.3529 13.2244C12.4678 12.9997 11.9153 12.794 11.2431 12.4374C10.6916 12.1454 10.3409 11.9047 9.89063 11.51C8.73721 10.4987 7.51633 8.71579 7.2375 7.63575C7.17932 7.40892 7.10671 7.20373 7.07633 7.17953C7.03617 7.14734 7.11083 7.01527 7.37164 6.6574ZM4.7821 14.1039C4.90311 11.847 5.46721 9.8862 6.55704 7.92976C6.70971 7.65608 6.85131 7.42849 6.87191 7.42411C6.8925 7.41974 6.93061 7.51757 6.95764 7.64218C7.16078 8.5868 8.29901 10.3586 9.36927 11.397C10.714 12.701 12.5695 13.5226 14.6974 13.7569C15.6606 13.8629 16.8256 13.6884 17.3871 13.3534C17.5053 13.2829 17.6103 13.2309 17.6209 13.2378C17.6566 13.261 17.4306 13.7159 17.2511 13.9816C16.7393 14.738 16.3951 15.0738 15.4556 15.7308C14.3511 16.5037 13.5296 16.8685 12.2999 17.1329C11.0175 17.4087 9.77503 17.4228 8.72047 17.1736C7.71329 16.9357 6.27898 16.1636 5.32973 15.3482C4.77001 14.8675 4.74452 14.8086 4.7821 14.1039ZM6.50323 21.2796C6.38403 21.2085 5.93141 20.2768 5.62348 19.4707C5.45202 19.0196 5.35315 18.6661 5.14847 17.7676C5.00661 17.1445 4.8766 16.4931 4.85961 16.3212C4.80091 15.7238 4.7767 15.2717 4.80399 15.2689C4.81944 15.2671 4.96697 15.3873 5.13251 15.5359C5.76252 16.1036 6.94323 16.8178 7.83147 17.1695C9.1512 17.6921 10.6046 17.7616 12.3512 17.3863C13.2322 17.1968 13.752 17.022 14.4078 16.6947C14.9914 16.4038 16.0622 15.6762 16.5117 15.2651C16.9167 14.8948 17.3567 14.331 17.6538 13.7998C17.7264 13.6703 17.7882 13.5748 17.7908 13.5869C17.814 13.6951 17.651 14.6538 17.5364 15.0877C17.2959 15.9929 17.0089 16.5011 16.2996 17.2776C14.4515 19.2994 12.7783 20.2963 10.1859 20.9181C9.00754 21.2008 7.85489 21.3625 7.11907 21.3473C6.83175 21.3416 6.55575 21.3112 6.50323 21.2796ZM12.7052 27.1479C10.437 26.0982 8.3971 24.3336 7.02072 22.2304C6.87448 22.0074 6.72979 21.7742 6.69889 21.7111C6.65049 21.6117 6.65384 21.598 6.72773 21.6045C7.31036 21.6542 7.75886 21.6215 8.9339 21.4428C11.4763 21.0553 13.5352 20.1776 15.1456 18.7953C15.598 18.4063 16.6507 17.3222 16.9476 16.9403C17.5601 16.1492 17.9617 14.96 18.0191 13.7638L18.0387 13.3678L18.1909 13.555C18.3958 13.8083 18.6803 14.3284 18.8682 14.796C19.2212 15.6711 19.3232 16.9684 19.1551 18.4331C18.9828 19.9261 18.386 21.45 17.3263 23.1008C16.384 24.5676 15.8068 25.2071 14.4237 26.3142C13.8887 26.7424 13.365 27.1437 13.2608 27.205L13.0703 27.3175L12.7052 27.1479ZM20.2328 28.3275C18.0276 28.5907 15.744 28.3286 13.7427 27.5806C13.5651 27.5142 13.4183 27.4555 13.4171 27.4491C13.4158 27.4437 13.5481 27.3422 13.7098 27.2243C14.3107 26.7892 15.6232 25.6935 15.9203 25.3796C17.1778 24.0514 18.2542 22.3174 18.9614 20.4781C19.3667 19.4259 19.5727 17.817 19.4815 16.4257C19.4138 15.3948 19.0114 14.2427 18.4445 13.4579C18.3953 13.3897 18.4074 13.3884 18.5853 13.45C18.9316 13.5676 19.5134 13.8941 19.9274 14.2028C20.835 14.8776 21.4207 15.5753 22.1921 16.9002C22.7827 17.9141 23.1274 18.6741 23.4752 19.7281C23.6815 20.3545 24.1251 22.4212 24.1892 23.0532C24.3138 24.289 24.2517 25.3279 23.9732 26.6656C23.9309 26.869 23.9016 27.0629 23.9085 27.0979C23.9345 27.2429 23.8102 27.3713 23.5373 27.4818C22.638 27.8448 21.2096 28.2106 20.2328 28.3275ZM24.7028 26.9494C24.123 27.2416 24.1258 27.2426 24.2257 26.8098C24.5079 25.592 24.5857 24.3439 24.46 23.0831C24.3972 22.4536 23.9186 20.2212 23.7157 19.6105C23.3524 18.5175 22.985 17.7081 22.3947 16.7019C21.7575 15.6149 21.1051 14.7998 20.4493 14.27C19.876 13.8063 18.818 13.1989 18.5364 13.1719C18.1492 13.1348 18.9723 12.9291 19.7027 12.8805C21.1743 12.7819 22.354 12.9389 23.7479 13.4196C24.4374 13.657 24.8104 13.8413 25.3485 14.2115C27.0879 15.4056 28.2534 16.627 29.1798 18.2261C29.6641 19.0616 30.4164 20.7049 30.5067 21.1248C30.5438 21.2968 30.5289 21.3408 30.3051 21.7265C30.1731 21.9557 29.9238 22.3395 29.7511 22.5803C28.3878 24.486 26.7172 25.9324 24.7028 26.9494Z" fill="#1B1464"/>
<path d="M31.0597 15.8226C31.1567 15.8213 31.2347 15.6805 31.1825 15.6006C31.1387 15.5342 31.0187 15.5556 30.9636 15.6405C30.9075 15.7278 30.9585 15.8251 31.0597 15.8226Z" fill="#1B1464"/>
<path d="M30.2357 17.7456C30.2808 17.895 30.3953 17.8288 30.617 17.526C30.8685 17.1831 30.9775 16.9655 30.9538 16.8553C30.9164 16.6821 30.8034 16.773 30.5122 17.2111C30.3142 17.508 30.2192 17.6918 30.2357 17.7456Z" fill="#1B1464"/>
<path d="M28.123 21.303C28.0805 21.1057 27.942 21.2144 27.3771 21.8874C27.2556 22.0326 27.2631 22.16 27.3928 22.1572C27.5071 22.1549 28.1454 21.4077 28.123 21.303Z" fill="#1B1464"/>
<path d="M10.1162 23.8701C10.0809 23.8935 10.066 23.9432 10.0822 23.9821C10.1172 24.0655 10.2586 24.0725 10.3101 23.9927C10.36 23.9146 10.2017 23.8145 10.1162 23.8701Z" fill="#1B1464"/>
<path d="M18.8514 26.0689C18.715 26.0704 18.5674 26.0612 18.5239 26.0491C18.4814 26.0375 18.4186 26.0452 18.3851 26.0668C18.2814 26.1343 18.3465 26.2543 18.5069 26.2906C18.7294 26.341 19.1171 26.3019 19.1439 26.2267C19.1848 26.1127 19.1006 26.0668 18.8514 26.0689Z" fill="#1B1464"/>
<path d="M12.8267 25.2666C12.5424 25.1549 12.158 24.9875 11.9716 24.8933C11.7819 24.7973 11.6102 24.7388 11.5793 24.7584C11.4109 24.8691 11.6877 25.0697 12.4454 25.3871C12.9801 25.6111 13.2206 25.6762 13.306 25.6206C13.4319 25.5385 13.3305 25.4636 12.8267 25.2666Z" fill="#1B1464"/>
<path d="M22.5163 25.5988C22.9393 25.4095 22.9689 25.3876 22.9458 25.2805C22.9211 25.1655 22.858 25.1747 22.5014 25.3467C22.2383 25.4734 21.997 25.5432 21.1927 25.727C20.6505 25.8506 20.2002 25.9546 20.193 25.9577C20.1856 25.96 20.1948 26.0032 20.2134 26.0529C20.2633 26.1876 20.4497 26.1714 21.3511 25.9546C21.9172 25.8186 22.254 25.7154 22.5163 25.5988Z" fill="#1B1464"/>
<g opacity="0.5">
<path d="M13.2004 5.62959C13.7274 6.13447 14.6525 6.19111 15.3386 6.25677C16.4964 6.36773 19.8781 5.74107 20.3982 5.55776C21.0444 5.33017 22.1515 4.93728 22.3351 4.17701C22.5608 3.24243 21.6216 2.90696 20.8989 2.80191C20.0699 2.68116 19.2358 2.57869 18.3977 2.54883C17.5692 2.51922 16.7381 2.56968 15.923 2.7257C15.1558 2.87271 14.3257 3.11601 13.6942 3.59206C13.0827 4.05317 12.5073 4.9656 13.2004 5.62959Z" fill="white"/>
<path d="M11.7814 5.92966C11.7304 5.82616 11.6563 5.72755 11.5675 5.6534C11.5031 5.59959 11.4431 5.54862 11.3684 5.5136C11.214 5.44151 11.1493 5.42401 10.9776 5.40753C10.7469 5.38539 10.5168 5.47112 10.3255 5.60449C10.2366 5.63178 10.1494 5.67014 10.0675 5.71159C9.95679 5.76746 9.85741 5.84418 9.76241 5.92322C9.63239 6.03136 9.51962 6.18506 9.45242 6.34983C9.32344 6.52207 9.25057 6.73679 9.24362 6.951C9.22354 7.58358 9.8677 8.13223 10.4874 7.92806C10.4964 7.92497 10.5039 7.91982 10.5129 7.91647C10.5474 7.9175 10.5822 7.92163 10.6156 7.91854C10.8185 7.90077 10.9547 7.86524 11.1378 7.78208C11.3669 7.67833 11.5461 7.49038 11.6854 7.28544C11.8265 7.07819 11.8931 6.83308 11.9173 6.58695C11.9403 6.36039 11.881 6.13176 11.7814 5.92966Z" fill="white"/>
<path d="M25.2237 4.73754C25.2198 4.65258 25.1946 4.57328 25.148 4.50016C25.1147 4.45716 25.0813 4.41391 25.0481 4.37092C25.0347 4.35753 25.0185 4.34903 25.004 4.33693C24.9626 4.28338 24.9134 4.23755 24.8516 4.20434C24.8006 4.18297 24.7499 4.16134 24.6992 4.13997C24.5859 4.10959 24.4729 4.10959 24.3596 4.13997C24.3086 4.16134 24.2579 4.18297 24.2072 4.20434C24.1112 4.26124 24.035 4.33744 23.9781 4.43348L23.9778 4.43425C23.9564 4.48497 23.9348 4.53594 23.9134 4.58692C23.9132 4.58744 23.9129 4.58795 23.9129 4.58846C23.9127 4.58898 23.9127 4.5895 23.9124 4.59001C23.9024 4.6585 23.8903 4.74372 23.888 4.7674C23.888 4.76792 23.8877 4.76843 23.8877 4.76895C23.8877 4.76972 23.8877 4.77075 23.8877 4.77178C23.8877 4.80036 23.9006 4.86987 23.8995 4.8624C23.8993 4.86112 23.9049 4.92471 23.9119 4.95277C23.9124 4.95458 23.9129 4.95664 23.9137 4.95844C23.9232 4.98418 23.9513 5.04752 23.9464 5.03593C23.9492 5.04288 23.9678 5.08768 23.9788 5.11291C23.9794 5.11394 23.9796 5.11497 23.9801 5.11574C23.9812 5.11755 23.9822 5.11961 23.9835 5.12141C23.984 5.12218 23.9845 5.12295 23.985 5.12373L23.9858 5.12476L23.9863 5.12553C24.0195 5.16853 24.053 5.21178 24.0862 5.25477C24.0875 5.25658 24.089 5.25812 24.0906 5.25967C24.0919 5.26095 24.0931 5.2625 24.0947 5.26353C24.1372 5.3006 24.1827 5.33407 24.2283 5.36702C24.2317 5.36934 24.2353 5.37166 24.2391 5.3732C24.2494 5.37784 24.3812 5.43345 24.3921 5.43783C24.3926 5.43809 24.3931 5.43834 24.3936 5.43834C24.3944 5.4386 24.3954 5.43911 24.3962 5.43937C24.3982 5.44014 24.4003 5.44066 24.4024 5.44092C24.4603 5.45199 24.519 5.46126 24.5779 5.46435C24.5803 5.4646 24.5823 5.46434 24.5846 5.46409C24.613 5.46151 24.6853 5.45044 24.6706 5.4525C24.6729 5.45224 24.7288 5.44581 24.7571 5.44092C24.7582 5.44066 24.7592 5.4404 24.7602 5.44015C24.7613 5.43989 24.7623 5.43963 24.7633 5.43911C24.8164 5.42058 24.8673 5.39586 24.9191 5.37346C24.9935 5.3333 25.0532 5.27846 25.0983 5.20894C25.1547 5.14715 25.1928 5.07481 25.2126 4.99165C25.2388 4.9072 25.2427 4.8225 25.2237 4.73754Z" fill="white"/>
<path d="M23.9106 4.59662C23.9109 4.59456 23.9114 4.59276 23.9119 4.5907C23.9119 4.59019 23.9122 4.58967 23.9122 4.58967C23.9256 4.49776 23.9351 4.43648 23.9106 4.59662Z" fill="white"/>
</g>
</g>
<defs>
<filter id="filter0_d_2125_1994" x="0.5" y="0.69812" width="36.0146" height="36" filterUnits="userSpaceOnUse" color-interpolation-filters="sRGB">
<feFlood flood-opacity="0" result="BackgroundImageFix"/>
<feColorMatrix in="SourceAlpha" type="matrix" values="0 0 0 0 0 0 0 0 0 0 0 0 0 0 0 0 0 0 127 0" result="hardAlpha"/>
<feOffset dy="4"/>
<feGaussianBlur stdDeviation="2"/>
<feComposite in2="hardAlpha" operator="out"/>
<feColorMatrix type="matrix" values="0 0 0 0 0 0 0 0 0 0 0 0 0 0 0 0 0 0 0.25 0"/>
<feBlend mode="normal" in2="BackgroundImageFix" result="effect1_dropShadow_2125_1994"/>
<feBlend mode="normal" in="SourceGraphic" in2="effect1_dropShadow_2125_1994" result="shape"/>
</filter>
</defs>
</svg>
