<svg width="39" height="46" viewBox="0 0 39 46" fill="none" xmlns="http://www.w3.org/2000/svg">
<g filter="url(#filter0_d_2125_1972)">
<path d="M30.0886 15.8802C31.1465 15.8016 31.9731 15.4338 32.6827 14.7235C33.3679 14.0389 33.7824 13.2349 34.0443 12.0871C34.2 11.3988 34.2124 10.0787 34.0676 9.32966C33.4232 5.97994 31.8966 3.97258 28.8382 2.45488C27.304 1.69414 25.7516 1.27002 23.8506 1.09262C22.9739 1.01027 21.3351 1.05248 20.4038 1.18115C17.3739 1.59944 14.296 2.74827 11.5769 4.47391C9.23843 5.95833 8.16853 6.93627 7.33264 8.35275C7.23279 8.52088 6.90749 9.01672 6.61068 9.45285C5.20999 11.5148 4.63489 13.5606 4.9094 15.512C5.08577 16.7727 5.43234 17.8673 5.86847 18.546C6.37563 19.3332 7.48843 20.2305 8.5 20.6666C8.9725 20.8701 9.67731 21.0801 10.0771 21.1353C10.4881 21.1933 11.276 21.1697 11.7066 21.0883C13.3753 20.772 15.0721 19.7923 17.4206 17.7884C18.5045 16.864 19.1846 16.3242 19.699 15.9783C21.7366 14.6095 23.5576 14.4963 27.5754 15.4893C29.0475 15.8531 29.5021 15.9241 30.0886 15.8802ZM24.4268 12.0182C23.6321 11.8696 21.3845 12.247 19.9166 12.7755C19.0951 13.0706 18.1257 13.612 17.2552 14.2613C16.7315 14.6507 16.678 14.6778 16.6159 14.5759C16.4814 14.3584 16.9285 13.9679 18.1631 13.2239C19.0398 12.6955 19.7834 12.3984 21.017 12.083C22.5944 11.6795 24.4638 11.5319 24.656 11.7955C24.7874 11.9749 24.692 12.0676 24.4268 12.0182Z" fill="#C4E538"/>
<path opacity="0.2" d="M4.9578 13.2808C4.9578 13.2808 4.27496 17.1123 9.55654 17.1768C14.8381 17.2413 15.4623 14.6211 19.9166 12.775C24.3709 10.9289 30.2965 12.797 31.971 12.0239C33.6456 11.2511 34.2639 10.2814 33.7832 8.1344C33.7832 8.1344 35.3846 12.204 33.066 14.6259C30.7474 17.0478 26.3353 15.3733 26.3353 15.3733C26.3353 15.3733 22.8854 14.0329 19.5058 16.4359C16.1263 18.8389 12.9704 22.3242 9.07341 21.1675C5.17672 20.0108 4.20015 15.5668 4.9578 13.2808Z" fill="black"/>
<path d="M21.0169 12.0826C19.7833 12.3983 19.0401 12.6951 18.163 13.2235C16.9284 13.9678 16.4813 14.3579 16.6158 14.5755C16.6782 14.6774 16.7314 14.6503 17.2551 14.2608C18.1256 13.612 19.095 13.0701 19.9164 12.775C21.3844 12.2466 23.6319 11.8692 24.4267 12.0177C24.6919 12.0671 24.7873 11.9748 24.6555 11.7947C24.4637 11.5315 22.5943 11.6791 21.0169 12.0826Z" fill="#1B1464"/>
<path d="M29.7852 16.2116C30.7233 16.2137 31.084 16.1416 31.7805 15.8129C33.7546 14.8809 34.8314 12.4148 34.467 9.66283C34.1307 7.12841 33.0944 5.09634 31.4199 3.68912C27.7679 0.621809 22.3007 -0.138241 16.7404 1.64985C15.1521 2.16079 13.3358 2.97403 12.0566 3.74815C9.57639 5.24904 8.24776 6.38345 7.26055 7.84179C7.0056 8.21821 6.60207 8.81013 6.36496 9.15738C5.58226 10.3004 5.19863 11.081 4.80814 12.3215C4.38059 13.6789 4.39912 15.4934 4.85652 17.0736C5.18079 18.1895 5.54383 18.8497 6.20403 19.5181C7.16413 20.4919 8.47801 21.2067 9.73286 21.4369C9.95316 21.4771 10.4133 21.5138 10.7561 21.5155C12.6272 21.5313 14.612 20.6031 17.0376 18.5759C17.343 18.3216 17.9143 17.8426 18.3096 17.5125C20.2724 15.8681 21.2695 15.3589 22.8161 15.2124C23.9357 15.106 25.1645 15.2742 27.5177 15.8558C28.939 16.2072 28.9613 16.2099 29.7852 16.2116ZM19.699 15.979C19.1846 16.3245 18.5045 16.8646 17.4205 17.789C15.0721 19.793 13.3753 20.7723 11.7066 21.089C11.276 21.1703 10.4878 21.1937 10.077 21.136C9.67728 21.0808 8.97247 20.8708 8.49997 20.6673C7.4884 20.2312 6.3756 19.3338 5.86844 18.5467C5.43231 17.868 5.08574 16.7733 4.90937 15.5127C4.63486 13.5609 5.2103 11.5151 6.61065 9.45351C6.90746 9.01738 7.23276 8.52155 7.33261 8.35341C8.1685 6.93659 9.2384 5.95899 11.5769 4.47457C14.2963 2.74893 17.3739 1.6001 20.4038 1.18181C21.3351 1.05314 22.9736 1.01093 23.8506 1.09329C25.7516 1.27069 27.304 1.6948 28.8381 2.45554C31.8962 3.97324 33.4228 5.9806 34.0676 9.33032C34.2124 10.0794 34.2 11.3995 34.0442 12.0878C33.7828 13.2356 33.3682 14.0396 32.6827 14.7241C31.973 15.4348 31.1464 15.8026 30.0885 15.8808C29.5021 15.9248 29.0474 15.8537 27.5757 15.4907C23.5576 14.4973 21.7365 14.6102 19.699 15.979Z" fill="#1B1464"/>
<g opacity="0.5">
<path d="M10.8631 7.02597C10.916 7.67244 11.478 8.2702 12.1537 8.22765C12.41 8.21152 12.6495 8.11612 12.8221 7.95348C13.3811 7.42676 13.9054 6.85955 14.5495 6.44161C16.5067 5.17131 18.8126 4.4768 21.1724 4.4991C21.8954 4.50596 22.266 3.80939 22.0114 3.18076C21.4599 1.82022 19.7405 2.3236 18.6737 2.55076C17.4137 2.8191 16.1749 3.17904 14.9606 3.60865C13.7884 4.02317 12.5596 4.4744 11.6651 5.37308C11.2231 5.8171 10.8093 6.36612 10.8631 7.02597Z" fill="white"/>
<path d="M23.5091 2.50745C23.4995 2.52083 23.4913 2.53456 23.4837 2.54931C23.4518 2.61279 23.4093 2.70441 23.3835 2.77029C23.3798 2.78024 23.376 2.7902 23.3736 2.80083C23.3695 2.8173 23.3677 2.83034 23.3643 2.84578C23.305 2.97412 23.2741 3.08632 23.2638 3.24794C23.2573 3.35054 23.2658 3.45863 23.295 3.55779C23.3616 3.78392 23.401 3.84878 23.5438 4.03544C23.6097 4.12157 23.6999 4.19294 23.7922 4.2475C23.9772 4.35696 24.0853 4.37687 24.2922 4.40466C24.3083 4.40672 24.3237 4.40775 24.3402 4.40706C24.4088 4.40432 24.5107 4.3954 24.5783 4.38613C24.589 4.38476 24.5993 4.3827 24.6099 4.37995C24.6518 4.36863 24.7026 4.34736 24.7355 4.33535C24.7722 4.32197 24.8268 4.30584 24.8679 4.28628C24.8796 4.28079 24.8944 4.27118 24.9084 4.26295C24.9637 4.24613 25.021 4.22555 25.0913 4.19638C25.1081 4.18917 25.1236 4.18093 25.1387 4.17132C25.162 4.15691 25.3109 4.06564 25.371 4.00353C25.5041 3.86628 25.6201 3.71152 25.6675 3.52177C25.6891 3.43495 25.7117 3.34299 25.7083 3.2524C25.708 3.24382 25.7073 3.23696 25.7069 3.22873C25.7275 3.10005 25.7255 2.98956 25.6977 2.83892C25.6795 2.74078 25.6448 2.64196 25.5944 2.55583C25.5415 2.46524 25.4832 2.36779 25.4036 2.29642C25.3367 2.23671 25.2461 2.14681 25.1541 2.10117C25.0755 2.06206 24.9959 2.02225 24.9129 1.99308C24.8635 1.97558 24.8038 1.97044 24.7554 1.96254C24.7118 1.95534 24.6535 1.94092 24.6041 1.93955C24.5173 1.93749 24.4298 1.95019 24.344 1.96117C24.2383 1.97455 24.1347 2.01745 24.0406 2.06652C24.0262 2.07407 24.0125 2.08402 23.9984 2.09225C23.9706 2.10495 23.9415 2.11592 23.9157 2.13171C23.7198 2.25215 23.6443 2.32078 23.5091 2.50745Z" fill="white"/>
<path d="M9.1782 9.04316C9.13085 9.09634 9.06428 9.17767 9.02036 9.23394C9.01762 9.23737 9.01521 9.24046 9.01281 9.24389C9.00835 9.25007 9.00458 9.25659 9.0008 9.26345C8.961 9.33791 8.92703 9.4158 8.8958 9.49438C8.8934 9.5009 8.891 9.50743 8.88928 9.51429C8.88825 9.51875 8.88722 9.5232 8.88619 9.52767L8.84811 9.7538C8.84776 9.7562 8.84742 9.75825 8.84708 9.76066C8.84605 9.76855 8.8457 9.77644 8.8457 9.78468C8.84845 9.86669 8.85463 9.94904 8.86767 10.03C8.86904 10.0379 8.8711 10.0455 8.8735 10.0534C8.86835 10.0379 8.90335 10.1529 8.93663 10.2352C8.95139 10.2942 8.97335 10.3515 9.00424 10.4068C9.05022 10.4723 9.09654 10.5382 9.14252 10.6037C9.25267 10.7225 9.38512 10.8055 9.53987 10.8532L9.766 10.8913C9.92384 10.8971 10.0728 10.8639 10.2135 10.7921C10.2944 10.741 10.3785 10.6888 10.4499 10.624C10.4561 10.6185 10.4619 10.6127 10.4674 10.6065C10.5261 10.5423 10.5806 10.474 10.6338 10.4058C10.6448 10.3913 10.6551 10.3766 10.6633 10.3605C10.6849 10.3203 10.7041 10.2723 10.7213 10.2342C10.7391 10.1947 10.7632 10.1491 10.7786 10.1052C10.7844 10.0887 10.7886 10.0719 10.7916 10.0551C10.8061 9.97821 10.8201 9.89723 10.8311 9.82002C10.8318 9.81556 10.8325 9.8111 10.8328 9.80664C10.8335 9.7984 10.8342 9.79017 10.8342 9.78194C10.8356 9.68997 10.8246 9.59732 10.8109 9.50639C10.8081 9.48855 10.8037 9.47105 10.7975 9.45424C10.7711 9.38115 10.7446 9.3084 10.7186 9.23532C10.665 9.12242 10.5882 9.03115 10.4876 8.96149C10.4327 8.90213 10.3662 8.86061 10.2889 8.83659C10.1867 8.77928 10.0762 8.7508 9.95679 8.75046C9.94855 8.74908 9.94066 8.7484 9.93242 8.74874C9.93002 8.74874 9.92796 8.74909 9.92556 8.74909C9.84938 8.75595 9.77321 8.76247 9.69703 8.76933C9.69257 8.77002 9.68777 8.77036 9.6833 8.77105C9.59409 8.78786 9.50659 8.82218 9.42595 8.86335C9.38546 8.88394 9.33742 8.92374 9.30963 8.94296C9.28012 8.96389 9.22899 8.99477 9.19467 9.02497C9.18953 9.03115 9.1837 9.03698 9.1782 9.04316Z" fill="white"/>
</g>
<path d="M25.4882 17.8947C24.3962 17.9393 23.8304 18.1433 23.2669 18.6969C22.755 19.1988 21.9386 20.2656 21.4646 21.0487C21.1542 21.5631 20.8737 21.9492 20.6085 22.2262C19.781 23.0933 18.6503 23.9603 17.7152 24.4459C16.7223 24.9605 16.3087 25.0989 13.2924 25.922C10.7285 26.6212 9.34808 27.5229 8.40296 29.1155C8.07359 29.6706 7.85051 30.5518 7.881 31.1739C7.93993 32.3703 8.48465 33.6743 9.32854 34.6439C10.4271 35.9047 12.6663 36.9893 14.5997 37.1951C17.1014 37.4615 20.293 36.8642 23.0923 35.6061C25.1806 34.667 27.5468 32.8754 28.7829 31.2957C30.1657 29.5297 31.0986 27.6482 31.5124 25.7914C31.7045 24.929 31.7402 24.2704 31.6458 23.3546C31.5082 22.019 31.2057 21.1441 30.5552 20.1948C29.7149 18.9676 28.9344 18.4914 27.1139 18.0963C26.1805 17.8928 26.0176 17.8731 25.4882 17.8947ZM16.5746 27.7706C16.2956 27.9675 15.8322 27.9848 15.8048 27.7987C15.7865 27.6741 15.855 27.6208 16.0379 27.6155C16.1251 27.6138 16.2694 27.5771 16.3584 27.534C16.4483 27.4918 16.5558 27.4641 16.5996 27.4738C16.7279 27.5024 16.7142 27.6713 16.5746 27.7706ZM18.5493 26.873C18.3059 26.9699 18.1406 26.9731 18.0831 26.8826C18.011 26.7692 18.1147 26.6306 18.312 26.5779C18.6465 26.4889 20.0763 25.7061 20.794 25.2195C21.4439 24.7797 21.6404 24.723 21.5799 24.9946C21.5334 25.2018 19.3465 26.5581 18.5493 26.873Z" fill="#A3CB38"/>
<path opacity="0.2" d="M7.69189 29.8992C7.69189 29.8992 7.9292 32.9125 14.8933 33.7384C21.8575 34.5642 28.1633 28.9745 29.3548 27.5244C30.5462 26.0743 31.6462 23.3548 31.6462 23.3548C31.6462 23.3548 32.8365 28.5913 27.1704 33.1273C20.3851 38.5592 15.5114 37.6051 12.4588 36.7659C9.30419 35.8988 7.39268 32.7455 7.69189 29.8992Z" fill="black"/>
<path d="M27.2528 17.7395C25.3484 17.3151 23.9152 17.5438 23.0348 18.4118C22.5067 18.9311 21.7175 19.9407 21.2866 20.6456C20.608 21.7582 20.3702 22.0494 19.6029 22.7126C19.2793 22.9928 18.6895 23.4294 18.2903 23.684C17.1215 24.43 16.4098 24.7049 13.932 25.3695C11.7443 25.9564 10.9276 26.2768 9.96765 26.9277C9.38595 27.3215 8.97565 27.7082 8.52978 28.2845C8.07604 28.8693 7.88057 29.2448 7.69153 29.8991C7.23946 31.464 7.76117 33.3683 9.0587 34.8879C9.82444 35.7838 11.1373 36.5892 12.7049 37.1238C14.3025 37.6693 16.464 37.7663 18.5133 37.3842C21.907 36.751 24.4154 35.6369 26.8721 33.6708C28.2606 32.5606 29.1341 31.5831 30.0769 30.0864C30.9684 28.6714 31.3568 27.7722 31.7528 26.2064C32.0592 24.9986 32.1122 24.4169 32.0153 23.3671C31.8705 21.7974 31.4399 20.6816 30.5519 19.5788C29.781 18.6206 28.833 18.0916 27.2528 17.7395ZM31.6458 23.3547C31.7402 24.2704 31.7045 24.929 31.5124 25.7914C31.0987 27.6479 30.1658 29.5297 28.783 31.2957C27.5468 32.8754 25.1806 34.667 23.0923 35.6061C20.2931 36.8643 17.1014 37.4619 14.5997 37.1952C12.6664 36.989 10.4271 35.9047 9.32856 34.6439C8.48475 33.674 7.93995 32.3704 7.88102 31.1739C7.85045 30.5522 8.07353 29.671 8.40297 29.1155C9.34817 27.5226 10.7288 26.6213 13.2924 25.922C16.3087 25.099 16.7221 24.9601 17.7152 24.446C18.6499 23.9606 19.7807 23.0933 20.6085 22.2262C20.874 21.9496 21.1541 21.5635 21.4646 21.0487C21.9387 20.2656 22.755 19.1988 23.2669 18.697C23.8305 18.143 24.3962 17.9393 25.4882 17.8947C26.0176 17.8731 26.1802 17.8928 27.1136 18.0962C28.9341 18.4913 29.7149 18.9677 30.5549 20.1947C31.2057 21.1441 31.5082 22.019 31.6458 23.3547Z" fill="#1B1464"/>
<path d="M16.5998 27.4739C16.5559 27.4641 16.4485 27.4918 16.3586 27.534C16.2694 27.5774 16.1256 27.6139 16.0381 27.6155C15.8551 27.6208 15.7866 27.6744 15.8049 27.7988C15.8324 27.9845 16.2954 27.9675 16.5748 27.7706C16.7143 27.6713 16.728 27.5024 16.5998 27.4739Z" fill="#1B1464"/>
<path d="M20.7934 25.2198C20.0758 25.7063 18.646 26.4888 18.3115 26.5781C18.1141 26.6308 18.0105 26.7694 18.0826 26.8829C18.1401 26.9734 18.3053 26.9701 18.5488 26.8732C19.346 26.558 21.5329 25.2017 21.579 24.9951C21.6399 24.7232 21.4434 24.7799 20.7934 25.2198Z" fill="#1B1464"/>
<g opacity="0.5">
<path d="M25.6863 23.0857C25.486 22.6403 24.9364 22.3571 24.4674 22.5574C24.2894 22.6334 24.1435 22.7616 24.0617 22.9205C23.7976 23.4351 23.568 23.9699 23.2161 24.4291C22.1463 25.824 20.684 26.8977 19.0033 27.4762C18.4881 27.6536 18.4004 28.2412 18.7396 28.6233C19.4738 29.4506 20.5676 28.6601 21.268 28.2301C22.0952 27.7222 22.8837 27.1547 23.6378 26.5441C24.3653 25.9546 25.1245 25.3247 25.5333 24.4617C25.7353 24.0349 25.8907 23.5408 25.6863 23.0857Z" fill="white"/>
<path d="M17.846 29.4781C17.8494 29.4662 17.8516 29.4544 17.8533 29.4421C17.8599 29.389 17.8669 29.3133 17.8685 29.2602C17.8689 29.2522 17.8689 29.2441 17.8679 29.2362C17.8665 29.2235 17.8648 29.2137 17.8632 29.2021C17.8731 29.096 17.8666 29.0084 17.8333 28.8913C17.812 28.8166 17.7786 28.7424 17.7329 28.6791C17.6286 28.5353 17.5843 28.499 17.4359 28.4027C17.3675 28.3582 17.2855 28.3301 17.2063 28.3146C17.0473 28.2834 16.9656 28.2968 16.8118 28.329C16.7997 28.3316 16.7888 28.3348 16.7771 28.3396C16.7289 28.3587 16.6588 28.3909 16.6131 28.4145C16.606 28.4181 16.5991 28.4222 16.5925 28.4267C16.5658 28.4454 16.535 28.4733 16.5144 28.4898C16.4916 28.5087 16.4572 28.5337 16.4328 28.5581C16.426 28.565 16.4177 28.5755 16.4099 28.585C16.375 28.611 16.3393 28.64 16.297 28.6783C16.2868 28.6877 16.278 28.6973 16.2696 28.7081C16.2569 28.7242 16.174 28.8264 16.1468 28.8857C16.0866 29.0168 16.0434 29.1555 16.0574 29.3024C16.0639 29.3696 16.071 29.4404 16.0962 29.5037C16.0987 29.5099 16.1008 29.5146 16.1031 29.5203C16.1209 29.6168 16.1499 29.695 16.2079 29.7947C16.2454 29.8597 16.295 29.9213 16.3527 29.9697C16.4131 30.0208 16.479 30.0752 16.5534 30.1058C16.6159 30.1314 16.7028 30.1722 16.7798 30.1816C16.8455 30.1895 16.9122 30.1977 16.9783 30.1977C17.0177 30.1977 17.0614 30.1863 17.098 30.1797C17.1305 30.174 17.1758 30.1696 17.2111 30.1578C17.2734 30.1372 17.3323 30.1064 17.3905 30.0772C17.4621 30.0411 17.525 29.9845 17.5791 29.9262C17.5875 29.9172 17.5947 29.9069 17.6028 29.8974C17.6194 29.8814 17.6371 29.8664 17.6517 29.8485C17.7607 29.7125 17.7969 29.6447 17.846 29.4781Z" fill="white"/>
<path d="M25.9558 21.2241C25.9713 21.1864 25.9912 21.1301 26.0043 21.0919C26.0052 21.0896 26.0057 21.0872 26.0065 21.0853C26.0078 21.081 26.0087 21.077 26.0093 21.0726C26.0167 21.025 26.0197 20.9768 26.0217 20.9287C26.0218 20.9249 26.0216 20.921 26.0215 20.9167C26.0214 20.9143 26.0209 20.9117 26.0205 20.9088L25.9979 20.78C25.9978 20.7786 25.9974 20.7774 25.9969 20.7763C25.9958 20.7718 25.9947 20.7673 25.9932 20.7631C25.9762 20.7196 25.9572 20.6767 25.9348 20.6355C25.9325 20.6315 25.9298 20.6277 25.9271 20.6243C25.9328 20.6316 25.892 20.5764 25.8586 20.5387C25.8394 20.5098 25.8168 20.4834 25.7898 20.4594C25.7525 20.4328 25.7154 20.4066 25.6781 20.38C25.5962 20.3375 25.5095 20.3179 25.4175 20.322L25.2888 20.3446C25.203 20.3715 25.1294 20.4177 25.0677 20.4831C25.0339 20.5258 24.9988 20.5697 24.9729 20.6184C24.9706 20.6225 24.9685 20.6269 24.9669 20.6311C24.9476 20.6767 24.9311 20.7237 24.9158 20.7705C24.9125 20.7804 24.9099 20.7903 24.9084 20.8005C24.9045 20.826 24.9035 20.8557 24.9014 20.8791C24.8995 20.9037 24.8955 20.9327 24.8951 20.9593C24.8951 20.9691 24.8961 20.9788 24.8977 20.9887C24.9044 21.0327 24.9125 21.0788 24.9214 21.1223C24.9219 21.1249 24.9224 21.1274 24.9233 21.1297C24.9244 21.1342 24.9258 21.1388 24.9273 21.1433C24.944 21.1931 24.9675 21.2405 24.9923 21.2868C24.9973 21.296 25.0028 21.3043 25.0095 21.3124C25.0374 21.3464 25.0656 21.3808 25.0935 21.4148C25.1438 21.4654 25.2023 21.4995 25.2696 21.5177C25.3105 21.5391 25.3537 21.5487 25.3999 21.5467C25.4656 21.5579 25.5305 21.5523 25.5946 21.5296C25.599 21.5289 25.6038 21.5275 25.608 21.526C25.6092 21.5255 25.6103 21.5251 25.6116 21.5243C25.6511 21.506 25.6907 21.4881 25.7302 21.4699C25.7326 21.4686 25.7349 21.4677 25.737 21.4664C25.7818 21.4406 25.8219 21.4056 25.8574 21.3678C25.875 21.3488 25.8933 21.3185 25.9046 21.3027C25.9164 21.286 25.9381 21.2596 25.9505 21.237C25.9521 21.2328 25.9541 21.2287 25.9558 21.2241Z" fill="white"/>
</g>
</g>
<defs>
<filter id="filter0_d_2125_1972" x="0.5" y="0.69812" width="38.0371" height="48" filterUnits="userSpaceOnUse" color-interpolation-filters="sRGB">
<feFlood flood-opacity="0" result="BackgroundImageFix"/>
<feColorMatrix in="SourceAlpha" type="matrix" values="0 0 0 0 0 0 0 0 0 0 0 0 0 0 0 0 0 0 127 0" result="hardAlpha"/>
<feOffset dy="4"/>
<feGaussianBlur stdDeviation="2"/>
<feComposite in2="hardAlpha" operator="out"/>
<feColorMatrix type="matrix" values="0 0 0 0 0 0 0 0 0 0 0 0 0 0 0 0 0 0 0.25 0"/>
<feBlend mode="normal" in2="BackgroundImageFix" result="effect1_dropShadow_2125_1972"/>
<feBlend mode="normal" in="SourceGraphic" in2="effect1_dropShadow_2125_1972" result="shape"/>
</filter>
</defs>
</svg>
