<svg width="292" height="61" viewBox="0 0 292 61" fill="none" xmlns="http://www.w3.org/2000/svg">
<g filter="url(#filter0_d_2135_3738)">
<path d="M36.0267 42.784C34.4481 43.4667 32.6134 43.9573 30.5227 44.256C28.4321 44.5547 26.4907 44.704 24.6988 44.704C18.8961 44.704 14.3521 43.1893 11.0668 40.16C7.78142 37.1307 6.13875 32.48 6.13875 26.208C6.13875 19.808 7.86675 15.0293 11.3228 11.872C14.7787 8.672 19.6427 7.072 25.9147 7.072C28.9014 7.072 32.0161 7.47733 35.2587 8.288C35.2587 9.14133 35.1734 10.4213 35.0028 12.128C34.8321 13.792 34.6614 14.9653 34.4907 15.648H30.4588C27.5148 15.648 25.1894 15.712 23.4828 15.84C21.8188 15.9253 20.8161 16.1173 20.4747 16.416C19.8347 17.0133 19.3441 18.2293 19.0027 20.064C18.6614 21.856 18.4907 23.584 18.4907 25.248C18.4907 28.1493 18.8534 30.3893 19.5787 31.968C20.3041 33.504 21.2214 34.528 22.3308 35.04C23.3974 35.552 25.1681 35.808 27.6428 35.808C29.6054 35.808 32.1654 35.6373 35.3228 35.296L36.0267 42.784ZM69.0952 14.56V44H60.1992L58.9832 39.072C55.9112 42.784 52.2419 44.64 47.9752 44.64C46.4392 44.64 44.9886 44.4267 43.6232 44C42.3006 43.5733 41.2979 42.9547 40.6152 42.144C40.2312 41.6747 39.9326 40.5013 39.7192 38.624C39.5486 36.7467 39.4632 33.888 39.4632 30.048V14.56H50.4072V29.92C50.4072 30.7733 50.4286 31.776 50.4712 32.928C50.5139 34.08 50.6419 34.8053 50.8552 35.104C51.1539 35.5307 52.0072 35.744 53.4152 35.744L54.4392 35.68C55.6339 35.6373 56.8712 35.36 58.1512 34.848V14.56H69.0952ZM98.1507 34.016C98.1507 37.8133 96.9347 40.544 94.5027 42.208C92.1134 43.872 88.7001 44.704 84.2627 44.704C81.1481 44.704 77.5641 44.256 73.5107 43.36C73.5961 42.5067 73.7881 41.2907 74.0867 39.712C74.4281 38.0907 74.7054 36.8533 74.9187 36C76.4547 36.256 78.1614 36.4693 80.0387 36.64C81.9161 36.768 83.5161 36.832 84.8387 36.832C85.9907 36.832 86.6947 36.768 86.9507 36.64C86.9934 36.5973 87.0361 36.4907 87.0787 36.32C87.1641 36.1067 87.2067 35.8933 87.2067 35.68C87.2067 34.8267 86.6734 34.2507 85.6067 33.952C85.2654 33.8667 83.9641 33.504 81.7027 32.864C79.4414 32.224 77.5854 31.072 76.1347 29.408C74.7267 27.7013 74.0227 25.5893 74.0227 23.072C74.0227 21.7493 74.3214 20.2773 74.9187 18.656C75.5161 17.0347 76.1561 16.0107 76.8387 15.584C77.3507 15.2427 78.5881 14.9013 80.5507 14.56C82.5134 14.176 84.3267 13.984 85.9907 13.984C89.5321 13.984 93.0947 14.24 96.6787 14.752C96.6787 15.52 96.5721 16.8213 96.3587 18.656C96.1454 20.448 95.9534 21.5787 95.7827 22.048C92.1561 21.5787 89.2334 21.344 87.0147 21.344C85.8627 21.344 85.1161 21.408 84.7747 21.536C84.6894 21.5787 84.6041 21.7067 84.5187 21.92C84.4334 22.0907 84.3907 22.3253 84.3907 22.624C84.3907 23.2213 84.5827 23.648 84.9667 23.904C85.3507 24.2027 86.3534 24.5653 87.9747 24.992C89.8947 25.5467 91.5374 26.1227 92.9027 26.72C94.3107 27.3173 95.5267 28.2133 96.5507 29.408C97.6174 30.6027 98.1507 32.1387 98.1507 34.016ZM115.348 31.904C115.348 32.672 115.37 33.4827 115.412 34.336C115.455 35.1467 115.583 35.6587 115.796 35.872C116.095 36.1707 117.14 36.32 118.932 36.32L121.108 36.256C121.492 38.304 121.684 40.672 121.684 43.36C120.874 43.6587 119.679 43.936 118.1 44.192C116.564 44.448 115.092 44.576 113.684 44.576C110.74 44.576 108.458 43.936 106.836 42.656C105.258 41.3333 104.468 39.3067 104.468 36.576V20.832H99.6682V15.008L104.468 14.56L107.348 7.52L115.348 7.072V14.56H122.132V20.832H115.348V31.904ZM139.613 44.832C134.493 44.832 130.653 43.6373 128.093 41.248C125.576 38.816 124.317 34.9973 124.317 29.792C124.317 26.9333 124.573 24.4373 125.085 22.304C125.64 20.128 126.301 18.6133 127.069 17.76C128.051 16.6507 129.843 15.7333 132.445 15.008C135.091 14.2827 137.565 13.92 139.869 13.92C145.373 13.92 149.299 15.0933 151.645 17.44C153.992 19.7867 155.165 23.5413 155.165 28.704C155.165 34.2507 153.907 38.3253 151.389 40.928C148.872 43.5307 144.947 44.832 139.613 44.832ZM139.805 37.344C141.469 37.344 142.557 36.768 143.069 35.616C143.581 34.4213 143.837 32.3307 143.837 29.344C143.837 27.2533 143.731 25.6533 143.517 24.544C143.304 23.392 142.899 22.56 142.301 22.048C141.747 21.4933 140.872 21.216 139.677 21.216C137.971 21.216 136.989 21.3653 136.733 21.664C136.392 21.9627 136.115 22.9013 135.901 24.48C135.688 26.0587 135.581 27.7013 135.581 29.408C135.581 32.3093 135.859 34.3573 136.413 35.552C137.011 36.7467 138.141 37.344 139.805 37.344ZM205.359 16.608C206.041 17.632 206.383 21.6 206.383 28.512V44H195.439V29.6V26.144C195.439 24.5653 195.289 23.6267 194.991 23.328C194.649 22.9867 193.924 22.816 192.815 22.816L192.047 22.88C190.724 22.9653 189.465 23.264 188.271 23.776C188.313 24.672 188.335 26.2507 188.335 28.512V44H177.391V29.6V25.76C177.391 24.4373 177.241 23.6267 176.943 23.328C176.601 22.9867 175.876 22.816 174.767 22.816L173.999 22.88C172.804 22.9227 171.567 23.2 170.287 23.712V44H159.343V14.56H168.239L169.391 19.36C170.799 17.4827 172.42 16.1173 174.255 15.264C176.089 14.368 177.945 13.92 179.823 13.92C181.401 13.92 182.895 14.1547 184.303 14.624C185.753 15.0933 186.756 15.7547 187.311 16.608C187.567 16.992 187.78 17.696 187.951 18.72C189.316 17.056 190.873 15.84 192.623 15.072C194.372 14.304 196.121 13.92 197.871 13.92C199.449 13.92 200.943 14.1547 202.351 14.624C203.801 15.0933 204.804 15.7547 205.359 16.608ZM217.164 10.912C215.713 10.912 214.454 10.4213 213.388 9.44C212.364 8.45866 211.852 7.28533 211.852 5.92C211.852 4.55466 212.364 3.38133 213.388 2.4C214.454 1.41866 215.713 0.927998 217.164 0.927998C218.614 0.927998 219.852 1.41866 220.876 2.4C221.9 3.38133 222.412 4.55466 222.412 5.92C222.412 7.28533 221.9 8.45866 220.876 9.44C219.852 10.4213 218.614 10.912 217.164 10.912ZM211.66 14.56H222.604V44H211.66V14.56ZM253.566 36.832V44H227.134V36.64L241.342 21.536H227.518V14.56H253.246V21.856L239.102 36.832H253.566ZM275.761 36.32C276.828 36.32 278.812 36.2133 281.713 36C282.097 36 282.801 35.9573 283.825 35.872L284.785 42.464C281.5 44 277.233 44.768 271.985 44.768C267.079 44.768 263.303 43.5307 260.657 41.056C258.055 38.5813 256.753 34.848 256.753 29.856C256.753 27.296 257.073 24.8213 257.713 22.432C258.396 20.0427 259.164 18.3787 260.017 17.44C260.913 16.5013 262.577 15.6907 265.009 15.008C267.441 14.3253 269.852 13.984 272.241 13.984C276.081 13.984 278.961 14.6667 280.881 16.032C282.801 17.3973 284.06 19.296 284.657 21.728C285.255 24.1173 285.553 27.3387 285.553 31.392C282.652 31.5627 279.815 31.648 277.041 31.648H267.953C267.953 33.0133 268.231 34.0373 268.785 34.72C269.383 35.4027 270.215 35.8507 271.281 36.064C272.348 36.2347 273.841 36.32 275.761 36.32ZM268.593 21.6C268.337 21.728 268.145 22.2827 268.017 23.264C267.889 24.2453 267.804 25.3547 267.761 26.592H271.089C273.095 26.592 274.545 26.5707 275.441 26.528C275.441 24.48 275.143 23.0293 274.545 22.176C273.991 21.3227 273.009 20.896 271.601 20.896C270.449 20.896 269.447 21.1307 268.593 21.6Z" fill="#FCF0D6"/>
</g>
<defs>
<filter id="filter0_d_2135_3738" x="0.138763" y="0.928009" width="291.414" height="55.904" filterUnits="userSpaceOnUse" color-interpolation-filters="sRGB">
<feFlood flood-opacity="0" result="BackgroundImageFix"/>
<feColorMatrix in="SourceAlpha" type="matrix" values="0 0 0 0 0 0 0 0 0 0 0 0 0 0 0 0 0 0 127 0" result="hardAlpha"/>
<feOffset dy="6"/>
<feGaussianBlur stdDeviation="3"/>
<feComposite in2="hardAlpha" operator="out"/>
<feColorMatrix type="matrix" values="0 0 0 0 0 0 0 0 0 0.0444711 0 0 0 0 0.533654 0 0 0 1 0"/>
<feBlend mode="normal" in2="BackgroundImageFix" result="effect1_dropShadow_2135_3738"/>
<feBlend mode="normal" in="SourceGraphic" in2="effect1_dropShadow_2135_3738" result="shape"/>
</filter>
</defs>
</svg>
